<svg width="113" height="75" viewBox="0 0 113 75" fill="none" xmlns="http://www.w3.org/2000/svg"><rect opacity="0.4" x="91.3806" y="-2.16797" width="70.6183" height="70.6183" rx="17.4904" transform="rotate(82.722 91.3806 -2.16797)" fill="#FFD9AB"/><rect opacity="0.4" x="17.6133" y="24.9062" width="13.8493" height="13.8493" rx="3.96001" transform="rotate(112.532 17.6133 24.9062)" fill="#FFD9AB"/><rect opacity="0.4" width="6.1394" height="6.1394" rx="1.75547" transform="matrix(0.3832 0.923665 0.923665 -0.3832 105.109 57.8008)" fill="#FFD9AB"/><rect opacity="0.4" width="8.7217" height="8.7217" rx="2.49384" transform="matrix(-0.184328 0.982865 0.982865 0.184328 102.641 3.94141)" fill="#FFD9AB"/><path d="M35.7996 16.8905C35.8827 15.7969 35.9242 15.2501 36.2895 15.0889C36.6549 14.9277 37.0868 15.2655 37.9506 15.9412L38.3746 16.2729C39.0533 16.8038 39.3927 17.0693 39.7952 17.0998C40.1978 17.1304 40.5733 16.9193 41.3245 16.4969L42.4157 15.8834C43.1668 15.4611 43.5424 15.2499 43.9449 15.2805C44.3475 15.3111 44.6868 15.5765 45.3656 16.1075L46.3516 16.8788C47.0303 17.4097 47.3697 17.6751 47.7722 17.7057C48.1748 17.7363 48.5504 17.5251 49.3015 17.1028L50.3927 16.4893C51.1438 16.067 51.5194 15.8558 51.9219 15.8864C52.3245 15.917 52.6639 16.1824 53.3426 16.7133L54.3286 17.4846C55.0074 18.0156 55.3467 18.281 55.7493 18.3116C56.1518 18.3422 56.5274 18.131 57.2785 17.7087L58.3697 17.0952C59.1209 16.6728 59.4964 16.4617 59.899 16.4923C60.3015 16.5228 60.6409 16.7883 61.3196 17.3192L62.3056 18.0905C62.9844 18.6214 63.3237 18.8869 63.7263 18.9175C64.1288 18.9481 64.5044 18.7369 65.2555 18.3146L66.3467 17.7011C67.0979 17.2787 67.4735 17.0676 67.876 17.0981C68.2785 17.1287 68.6179 17.3942 69.2967 17.9251L70.2827 18.6964C70.9614 19.2273 71.3008 19.4928 71.7033 19.5234C72.1059 19.5539 72.4814 19.3428 73.2326 18.9205L74.3238 18.3069C75.0749 17.8846 75.4505 17.6734 75.853 17.704C76.2556 17.7346 76.5949 18.0001 77.2737 18.531L78.2597 19.3023C78.9384 19.8332 79.2778 20.0987 79.6803 20.1293C80.0829 20.1598 80.4585 19.9487 81.2096 19.5263L82.3008 18.9128C83.0519 18.4905 83.4275 18.2793 83.83 18.3099C84.2326 18.3405 84.572 18.6059 85.2507 19.1369L86.2367 19.9082C86.9155 20.4391 87.2548 20.7046 87.6574 20.7351C88.0599 20.7657 88.4355 20.5545 89.1866 20.1322L90.2778 19.5187C91.029 19.0964 91.4045 18.8852 91.8071 18.9158C92.2096 18.9464 92.549 19.2118 93.2277 19.7428L94.2137 20.514C94.8925 21.045 95.2318 21.3104 95.6344 21.341C96.0369 21.3716 96.4125 21.1604 97.1636 20.7381L97.6328 20.4743C98.5888 19.9368 99.0668 19.6681 99.4036 19.8827C99.7404 20.0972 99.6988 20.644 99.6158 21.7375L97.078 55.1499C96.6972 60.1638 96.5068 62.6707 94.8309 64.11C93.1549 65.5493 90.648 65.3589 85.6341 64.9781L43.09 61.7467C38.0761 61.3659 35.5692 61.1755 34.1299 59.4996C32.6906 57.8237 32.881 55.3167 33.2618 50.3029L35.7996 16.8905Z" fill="white" stroke="#3C5D87" stroke-width="1.33333"/><path d="M54.8787 38.5742C54.9515 37.6153 55.0024 36.9631 55.1052 36.4796C55.204 36.015 55.3317 35.8061 55.4909 35.6694C55.6501 35.5327 55.876 35.4379 56.3501 35.4105C56.8436 35.3819 57.496 35.43 58.4549 35.5028L74.4089 36.7146C75.3678 36.7874 76.02 36.8384 76.5035 36.9412C76.968 37.0399 77.177 37.1677 77.3137 37.3269C77.4504 37.4861 77.5452 37.7119 77.5726 38.1861C77.6012 38.6795 77.5531 39.3319 77.4802 40.2908L76.7229 50.2621C76.65 51.221 76.5991 51.8732 76.4963 52.3567C76.3976 52.8212 76.2698 53.0302 76.1106 53.1669C75.9514 53.3036 75.7256 53.3984 75.2514 53.4258C74.758 53.4544 74.1056 53.4062 73.1467 53.3334L57.1926 52.1217C56.2337 52.0488 55.5815 51.9979 55.098 51.8951C54.6335 51.7963 54.4245 51.6686 54.2878 51.5094C54.1511 51.3502 54.0564 51.1243 54.0289 50.6502C54.0003 50.1567 54.0485 49.5043 54.1213 48.5454L54.8787 38.5742Z" fill="#FFC800" fill-opacity="0.4" stroke="#FFD9AB" stroke-width="1.33333"/><path d="M39.1438 25.6758L94.983 29.917" stroke="#FFD9AB" stroke-width="1.33333" stroke-linecap="round"/><path d="M38.8914 29L94.7305 33.2412" stroke="#FFD9AB" stroke-width="1.33333" stroke-linecap="round"/><path d="M38.5127 33.9844L51.143 34.9437" stroke="#FFD9AB" stroke-width="1.33333" stroke-linecap="round"/><path d="M81.7195 37.2656L94.3498 38.2249" stroke="#FFD9AB" stroke-width="1.33333" stroke-linecap="round"/><path d="M38.26 37.3125L50.8903 38.2718" stroke="#FFD9AB" stroke-width="1.33333" stroke-linecap="round"/><path d="M81.4668 40.5938L94.0971 41.5531" stroke="#FFD9AB" stroke-width="1.33333" stroke-linecap="round"/><path d="M38.0076 40.6328L50.6379 41.5921" stroke="#FFD9AB" stroke-width="1.33333" stroke-linecap="round"/><path d="M81.2144 43.918L93.8446 44.8773" stroke="#FFD9AB" stroke-width="1.33333" stroke-linecap="round"/><path d="M37.7554 43.957L50.3857 44.9163" stroke="#FFD9AB" stroke-width="1.33333" stroke-linecap="round"/><path d="M80.9622 47.2383L93.5924 48.1976" stroke="#FFD9AB" stroke-width="1.33333" stroke-linecap="round"/><path d="M37.5027 47.2852L50.133 48.2445" stroke="#FFD9AB" stroke-width="1.33333" stroke-linecap="round"/><path d="M80.7095 50.5664L93.3398 51.5257" stroke="#FFD9AB" stroke-width="1.33333" stroke-linecap="round"/><path d="M37.2502 50.6055L49.8805 51.5648" stroke="#FFD9AB" stroke-width="1.33333" stroke-linecap="round"/><path d="M80.457 53.8867L93.0873 54.846" stroke="#FFD9AB" stroke-width="1.33333" stroke-linecap="round"/><path d="M36.998 53.9258L49.6283 54.8851" stroke="#FFD9AB" stroke-width="1.33333" stroke-linecap="round"/><path d="M80.2048 57.2109L92.8351 58.1703" stroke="#FFD9AB" stroke-width="1.33333" stroke-linecap="round"/><path d="M36.7454 57.2539L49.3757 58.2132" stroke="#FFD9AB" stroke-width="1.33333" stroke-linecap="round"/><path d="M79.9521 60.5352L92.5824 61.4945" stroke="#FFD9AB" stroke-width="1.33333" stroke-linecap="round"/><path d="M53.6189 55.1914L76.2205 56.9081" stroke="#FFD9AB" stroke-width="1.33333" stroke-linecap="round"/><path d="M53.3662 58.5195L75.9678 60.2362" stroke="#FFD9AB" stroke-width="1.33333" stroke-linecap="round"/><path opacity="0.5" d="M39.4465 21.6875L48.7531 22.3944" stroke="#FFC800" stroke-width="1.33333" stroke-linecap="round"/><path opacity="0.5" d="M83.9871 25.0703L88.6403 25.4237" stroke="#FFC800" stroke-width="1.33333" stroke-linecap="round"/><path opacity="0.5" d="M91.9641 25.6797L95.2879 25.9321" stroke="#FFC800" stroke-width="1.33333" stroke-linecap="round"/><path opacity="0.1" d="M35.7996 16.8905C35.8827 15.7969 35.9242 15.2501 36.2895 15.0889C36.6549 14.9277 37.0868 15.2655 37.9506 15.9412L38.3746 16.2729C39.0533 16.8038 39.3927 17.0693 39.7952 17.0998C40.1978 17.1304 40.5733 16.9193 41.3245 16.4969L42.4157 15.8834C43.1668 15.4611 43.5424 15.2499 43.9449 15.2805C44.3475 15.3111 44.6868 15.5765 45.3656 16.1075L46.3516 16.8788C47.0303 17.4097 47.3697 17.6751 47.7722 17.7057C48.1748 17.7363 48.5504 17.5251 49.3015 17.1028L50.3927 16.4893C51.1438 16.067 51.5194 15.8558 51.9219 15.8864C52.3245 15.917 52.6639 16.1824 53.3426 16.7133L54.3286 17.4846C55.0074 18.0156 55.3467 18.281 55.7493 18.3116C56.1518 18.3422 56.5274 18.131 57.2785 17.7087L58.3697 17.0952C59.1209 16.6728 59.4964 16.4617 59.899 16.4923C60.3015 16.5228 60.6409 16.7883 61.3196 17.3192L62.3056 18.0905C62.9844 18.6214 63.3237 18.8869 63.7263 18.9175C64.1288 18.9481 64.5044 18.7369 65.2555 18.3146L66.3467 17.7011C67.0979 17.2787 67.4735 17.0676 67.876 17.0981C68.2785 17.1287 68.6179 17.3942 69.2967 17.9251L70.2827 18.6964C70.9614 19.2273 71.3008 19.4928 71.7033 19.5234C72.1059 19.5539 72.4814 19.3428 73.2326 18.9205L74.3238 18.3069C75.0749 17.8846 75.4505 17.6734 75.853 17.704C76.2556 17.7346 76.5949 18.0001 77.2737 18.531L78.2597 19.3023C78.9384 19.8332 79.2778 20.0987 79.6803 20.1293C80.0829 20.1598 80.4585 19.9487 81.2096 19.5263L82.3008 18.9128C83.0519 18.4905 83.4275 18.2793 83.83 18.3099C84.2326 18.3405 84.572 18.6059 85.2507 19.1369L86.2367 19.9082C86.9155 20.4391 87.2548 20.7046 87.6574 20.7351C88.0599 20.7657 88.4355 20.5545 89.1866 20.1322L90.2778 19.5187C91.029 19.0964 91.4045 18.8852 91.8071 18.9158C92.2096 18.9464 92.549 19.2118 93.2277 19.7428L94.2137 20.514C94.8925 21.045 95.2318 21.3104 95.6344 21.341C96.0369 21.3716 96.4125 21.1604 97.1636 20.7381L97.6328 20.4743C98.5888 19.9368 99.0668 19.6681 99.4036 19.8827C99.7404 20.0972 99.6988 20.644 99.6158 21.7375L97.078 55.1499C96.6972 60.1638 96.5068 62.6707 94.8309 64.11C93.1549 65.5493 90.648 65.3589 85.6341 64.9781L43.09 61.7467C38.0761 61.3659 35.5692 61.1755 34.1299 59.4996C32.6906 57.8237 32.881 55.3167 33.2618 50.3029L35.7996 16.8905Z" fill="#3C5D87" stroke="#3C5D87" stroke-width="1.33333"/><path d="M23.5332 16.5361C23.4567 15.4421 23.4184 14.8951 23.7565 14.6825C24.0946 14.47 24.571 14.7416 25.5237 15.2848L25.9913 15.5514C26.7399 15.9782 27.1142 16.1916 27.5169 16.1634C27.9196 16.1353 28.2605 15.8719 28.9425 15.345L29.9331 14.5796C30.615 14.0528 30.9559 13.7894 31.3587 13.7612C31.7614 13.733 32.1357 13.9465 32.8843 14.3733L33.9718 14.9933C34.7204 15.4201 35.0947 15.6336 35.4974 15.6054C35.9001 15.5772 36.2411 15.3138 36.923 14.787L37.9136 14.0216C38.5955 13.4947 38.9365 13.2313 39.3392 13.2032C39.7419 13.175 40.1162 13.3884 40.8648 13.8152L41.9523 14.4353C42.7009 14.8621 43.0752 15.0755 43.4779 15.0473C43.8806 15.0192 44.2216 14.7558 44.9035 14.2289L45.8941 13.4635C46.576 12.9367 46.917 12.6733 47.3197 12.6451C47.7224 12.6169 48.0967 12.8304 48.8453 13.2572L49.9328 13.8772C50.6814 14.304 51.0557 14.5175 51.4584 14.4893C51.8611 14.4611 52.2021 14.1977 52.884 13.6709L53.8746 12.9055C54.5565 12.3786 54.8975 12.1152 55.3002 12.0871C55.7029 12.0589 56.0772 12.2723 56.8258 12.6991L57.9133 13.3192C58.6619 13.746 59.0362 13.9594 59.4389 13.9312C59.8416 13.9031 60.1826 13.6397 60.8645 13.1128L61.8551 12.3474C62.537 11.8206 62.878 11.5572 63.2807 11.529C63.6834 11.5008 64.0577 11.7142 64.8063 12.1411L65.8938 12.7611C66.6424 13.1879 67.0167 13.4013 67.4194 13.3732C67.8222 13.345 68.1631 13.0816 68.845 12.5548L69.8356 11.7894C70.5176 11.2625 70.8585 10.9991 71.2612 10.9709C71.6639 10.9428 72.0382 11.1562 72.7868 11.583L73.8743 12.2031C74.6229 12.6299 74.9972 12.8433 75.4 12.8151C75.8027 12.787 76.1436 12.5236 76.8255 11.9967L77.8162 11.2313C78.4981 10.7045 78.839 10.4411 79.2417 10.4129C79.6445 10.3847 80.0188 10.5981 80.7674 11.025L81.8549 11.645C82.6035 12.0718 82.9778 12.2852 83.3805 12.2571C83.7832 12.2289 84.1241 11.9655 84.8061 11.4386L85.232 11.1096C86.0998 10.4391 86.5338 10.1038 86.8981 10.2672C87.2625 10.4306 87.3008 10.9776 87.3773 12.0717L89.7147 45.4987C90.0655 50.5147 90.2408 53.0228 88.7915 54.69C87.3422 56.3573 84.8342 56.5327 79.8181 56.8834L37.2554 59.8597C32.2393 60.2105 29.7313 60.3858 28.064 58.9365C26.3967 57.4872 26.2214 54.9792 25.8706 49.9631L23.5332 16.5361Z" fill="white" stroke="#3C5D87" stroke-width="1.33333"/><rect opacity="0.15" x="32.4141" y="57.5234" width="52" height="5.33333" rx="2" transform="rotate(-4 32.4141 57.5234)" fill="#3C5D87"/><rect opacity="0.15" x="87.6719" y="50.957" width="27.8568" height="5.33333" rx="2" transform="rotate(-94 87.6719 50.957)" fill="#3C5D87"/><path d="M45.5571 35.2211C45.49 34.2618 45.4458 33.6091 45.4773 33.1158C45.5076 32.6419 45.6037 32.4166 45.7414 32.2582C45.8791 32.0998 46.0888 31.9733 46.5539 31.8774C47.038 31.7775 47.6905 31.7304 48.6498 31.6634L64.6108 30.5473C65.5701 30.4802 66.2228 30.436 66.7161 30.4675C67.1901 30.4978 67.4153 30.5939 67.5737 30.7315C67.7321 30.8692 67.8586 31.0789 67.9546 31.5441C68.0544 32.0282 68.1015 32.6806 68.1686 33.6399L68.8661 43.6156C68.9332 44.5749 68.9774 45.2276 68.9459 45.7209C68.9156 46.1948 68.8195 46.4201 68.6818 46.5785C68.5442 46.7368 68.3345 46.8634 67.8693 46.9593C67.3852 47.0592 66.7327 47.1062 65.7734 47.1733L49.8124 48.2894C48.8531 48.3565 48.2004 48.4007 47.7071 48.3692C47.2332 48.3389 47.0079 48.2428 46.8495 48.1051C46.6912 47.9675 46.5646 47.7578 46.4687 47.2926C46.3688 46.8085 46.3218 46.1561 46.2547 45.1967L45.5571 35.2211Z" fill="#FFC800" fill-opacity="0.4" stroke="#FFD9AB" stroke-width="1.33333"/><path d="M28.1169 24.7461L83.9805 20.8397" stroke="#FFD9AB" stroke-width="1.33333" stroke-linecap="round"/><path d="M28.3494 28.0664L84.213 24.16" stroke="#FFD9AB" stroke-width="1.33333" stroke-linecap="round"/><path d="M28.698 33.0547L41.3338 32.1711" stroke="#FFD9AB" stroke-width="1.33333" stroke-linecap="round"/><path d="M71.9238 30.0352L84.5596 29.1516" stroke="#FFD9AB" stroke-width="1.33333" stroke-linecap="round"/><path d="M28.9309 36.3867L41.5667 35.5031" stroke="#FFD9AB" stroke-width="1.33333" stroke-linecap="round"/><path d="M72.1567 33.3633L84.7926 32.4797" stroke="#FFD9AB" stroke-width="1.33333" stroke-linecap="round"/><path d="M29.1633 39.707L41.7991 38.8234" stroke="#FFD9AB" stroke-width="1.33333" stroke-linecap="round"/><path d="M72.3889 36.6875L85.0247 35.8039" stroke="#FFD9AB" stroke-width="1.33333" stroke-linecap="round"/><path d="M29.3958 43.0312L42.0316 42.1477" stroke="#FFD9AB" stroke-width="1.33333" stroke-linecap="round"/><path d="M72.6213 40.0078L85.2572 39.1242" stroke="#FFD9AB" stroke-width="1.33333" stroke-linecap="round"/><path d="M29.6284 46.3594L42.2642 45.4758" stroke="#FFD9AB" stroke-width="1.33333" stroke-linecap="round"/><path d="M72.8542 43.3398L85.4901 42.4563" stroke="#FFD9AB" stroke-width="1.33333" stroke-linecap="round"/><path d="M29.8608 49.6836L42.4967 48.8" stroke="#FFD9AB" stroke-width="1.33333" stroke-linecap="round"/><path d="M73.0867 46.6602L85.7225 45.7766" stroke="#FFD9AB" stroke-width="1.33333" stroke-linecap="round"/><path d="M30.0933 53.0078L42.7291 52.1242" stroke="#FFD9AB" stroke-width="1.33333" stroke-linecap="round"/><path d="M73.3188 49.9844L85.9547 49.1008" stroke="#FFD9AB" stroke-width="1.33333" stroke-linecap="round"/><path d="M30.3262 56.3359L42.962 55.4524" stroke="#FFD9AB" stroke-width="1.33333" stroke-linecap="round"/><path d="M73.5518 53.3125L86.1876 52.4289" stroke="#FFD9AB" stroke-width="1.33333" stroke-linecap="round"/><path d="M46.7214 51.8438L69.3329 50.2626" stroke="#FFD9AB" stroke-width="1.33333" stroke-linecap="round"/><path d="M46.9541 55.1719L69.5656 53.5907" stroke="#FFD9AB" stroke-width="1.33333" stroke-linecap="round"/><path opacity="0.5" d="M27.8379 20.7539L37.1485 20.1028" stroke="#FFC800" stroke-width="1.33333" stroke-linecap="round"/><path opacity="0.5" d="M72.3979 17.6406L77.0532 17.3151" stroke="#FFC800" stroke-width="1.33333" stroke-linecap="round"/><path opacity="0.5" d="M80.3784 17.082L83.7036 16.8495" stroke="#FFC800" stroke-width="1.33333" stroke-linecap="round"/></svg>