<svg width="466" height="390" viewBox="0 0 466 390" fill="none" xmlns="http://www.w3.org/2000/svg"><g clip-path="url(#clip0_728_18802)"><rect y="0.00390625" width="442" height="389" rx="32" fill="#FEF6F0"/><g opacity="0.08"><path fill-rule="evenodd" clip-rule="evenodd" d="M206.244 325H223.058L223.338 332.497C223.478 336.264 218.887 338.208 216.28 335.484L206.244 325ZM91.2617 477.476V400.488C97.0236 396.383 104.867 401.512 103.369 408.467L97.3467 436.437L114.369 447.474C118.938 450.436 119.127 457.056 114.735 460.274L91.2617 477.476ZM91.2617 542.154V527.71L112.435 498.359C115.485 494.132 122.143 495.916 122.67 501.101L124.779 521.841L139.057 525.667C142.89 526.694 144.508 531.24 142.187 534.457L117.088 569.249C114.038 573.476 107.38 571.692 106.853 566.507L104.744 545.767L91.2617 542.154ZM223.058 585H206.244L194.823 573.069C192.838 570.995 193.543 567.577 196.186 566.459L206.032 562.291L205.471 547.223C205.33 543.455 209.921 541.512 212.528 544.235L233.985 566.651C235.97 568.724 235.265 572.142 232.622 573.261L222.776 577.428L223.058 585ZM316.288 585H244.642C245.054 584.283 245.587 583.612 246.243 583.014L292.209 541.144C297.794 536.056 306.706 540.57 305.909 548.083L302.721 578.128L316.288 585ZM351.262 527.71V542.154L350.466 541.941C346.633 540.914 345.015 536.369 347.336 533.151L351.262 527.71ZM351.262 400.489V477.477L327.246 495.077C321.476 499.305 313.538 494.158 315.044 487.165L321.067 459.195L304.045 448.158C299.476 445.196 299.286 438.577 303.679 435.358L351.17 400.556C351.2 400.533 351.231 400.511 351.262 400.489ZM316.288 325L321.833 327.809C326.963 330.407 327.904 337.337 323.653 341.209L277.688 383.08C272.103 388.167 263.191 383.653 263.988 376.141L267.175 346.095L248.063 336.415C243.726 334.218 242.383 328.924 244.642 325H316.288ZM184.124 336.299C183.081 334.385 180.226 334.774 179.734 336.897L175.687 354.372C175.313 355.988 176.672 357.479 178.316 357.255L184.44 356.419L188.609 364.074C189.651 365.988 192.507 365.598 192.998 363.475L197.045 346.001C197.42 344.384 196.06 342.894 194.417 343.118L188.293 343.953L184.124 336.299ZM331.441 358.844C330.866 356.186 327.309 355.648 325.974 358.017L314.98 377.522C313.964 379.326 315.068 381.59 317.115 381.899L324.743 383.053L327.043 393.687C327.618 396.346 331.175 396.883 332.511 394.514L343.504 375.009C344.521 373.205 343.417 370.941 341.37 370.632L333.742 369.478L331.441 358.844ZM252.841 479.181C254.314 475.079 260.077 474.973 261.7 479.018L268.191 495.198L280.55 494.971C283.867 494.91 286.219 498.188 285.097 501.311L272.973 535.074C271.5 539.177 265.737 539.283 264.114 535.237L257.623 519.058L245.264 519.285C241.947 519.346 239.595 516.067 240.716 512.945L252.841 479.181ZM151.964 546.677C152.578 544.027 156.143 543.541 157.444 545.93L162.648 555.485L170.291 554.442C172.343 554.162 174.04 556.023 173.573 558.04L168.521 579.852C167.907 582.503 164.343 582.989 163.042 580.6L157.838 571.045L150.194 572.088C148.143 572.367 146.446 570.507 146.913 568.49L151.964 546.677ZM98.9189 338.354C97.7283 337.533 96.1541 338.62 96.4989 340.024L97.8784 345.642L94.5024 347.971C93.5962 348.596 93.5964 349.935 94.5027 350.56L104.302 357.318C105.493 358.139 107.067 357.053 106.722 355.648L105.343 350.03L108.719 347.701C109.625 347.076 109.625 345.737 108.718 345.112L98.9189 338.354ZM328.106 547.867C327.345 546.471 325.262 546.755 324.903 548.304L321.95 561.055C321.677 562.234 322.669 563.322 323.868 563.158L328.336 562.548L331.378 568.134C332.139 569.53 334.222 569.246 334.581 567.697L337.534 554.947C337.807 553.767 336.815 552.68 335.616 552.843L331.148 553.453L328.106 547.867ZM338.6 510.707C339.146 508.555 336.743 506.87 334.906 508.117L327.56 513.101L322.406 509.488C321.023 508.518 319.096 509.233 318.681 510.87L314.191 528.578C313.646 530.73 316.049 532.415 317.886 531.169L325.231 526.184L330.385 529.798C331.769 530.768 333.695 530.053 334.11 528.415L338.6 510.707ZM284.575 393.621C283.117 391.852 284.619 389.219 286.883 389.574L305.522 392.49C307.246 392.76 308.166 394.672 307.301 396.187L304.081 401.833L309.911 408.908C311.369 410.677 309.867 413.31 307.603 412.955L288.964 410.039C287.24 409.769 286.32 407.857 287.184 406.342L290.405 400.695L284.575 393.621ZM223.682 354.273C227.32 350.964 233.119 353.907 232.597 358.796L230.507 378.353L242.943 384.664C246.281 386.358 246.89 390.87 244.121 393.388L214.178 420.622C210.54 423.93 204.741 420.988 205.264 416.098L207.354 396.541L194.917 390.23C191.579 388.536 190.97 384.024 193.739 381.506L223.682 354.273ZM257.249 417.074C255.129 413.957 250.279 415.114 249.794 418.853L245.803 449.625C245.434 452.471 248.029 454.806 250.82 454.14L261.22 451.659L269.701 464.127C271.821 467.244 276.671 466.087 277.156 462.348L281.146 431.576C281.516 428.73 278.921 426.395 276.13 427.061L265.73 429.542L257.249 417.074ZM156.075 345.508C154.585 340.567 147.778 340.088 145.611 344.771L136.943 363.5L122.346 362.473C118.427 362.197 115.446 365.928 116.579 369.689L128.84 410.352C130.329 415.292 137.136 415.771 139.303 411.089L147.972 392.359L162.569 393.387C166.487 393.663 169.469 389.931 168.335 386.17L156.075 345.508ZM177.275 414.059C173.196 406.007 161.326 407.267 159.028 415.997L140.12 487.844C138.371 494.489 143.815 500.828 150.648 500.102L176.103 497.399L192.42 529.604C196.5 537.656 208.37 536.395 210.667 527.666L229.576 455.818C231.324 449.174 225.88 442.835 219.047 443.56L193.592 446.264L177.275 414.059Z" fill="#FF9600"/><path fill-rule="evenodd" clip-rule="evenodd" d="M466.244 325H483.058L483.338 332.497C483.478 336.264 478.887 338.208 476.28 335.484L466.244 325ZM351.262 477.476V400.488C357.024 396.383 364.867 401.512 363.369 408.467L357.347 436.437L374.369 447.474C378.938 450.436 379.127 457.056 374.735 460.274L351.262 477.476ZM351.262 542.154V527.71L372.435 498.359C375.485 494.132 382.143 495.916 382.67 501.101L384.779 521.841L399.057 525.667C402.89 526.694 404.508 531.24 402.187 534.457L377.088 569.249C374.038 573.476 367.38 571.692 366.853 566.507L364.744 545.767L351.262 542.154ZM483.058 585H466.244L454.823 573.069C452.838 570.995 453.543 567.577 456.186 566.459L466.032 562.291L465.471 547.223C465.33 543.455 469.921 541.512 472.528 544.235L493.985 566.651C495.97 568.724 495.265 572.142 492.622 573.261L482.776 577.428L483.058 585ZM576.288 585H504.642C505.054 584.283 505.587 583.612 506.243 583.014L552.209 541.144C557.794 536.056 566.706 540.57 565.909 548.083L562.721 578.128L576.288 585ZM611.262 527.71V542.154L610.466 541.941C606.633 540.914 605.015 536.369 607.336 533.151L611.262 527.71ZM611.262 400.489V477.477L587.246 495.077C581.476 499.305 573.538 494.158 575.044 487.165L581.067 459.195L564.045 448.158C559.476 445.196 559.286 438.577 563.679 435.358L611.17 400.556C611.2 400.533 611.231 400.511 611.262 400.489ZM576.288 325L581.833 327.809C586.963 330.407 587.904 337.337 583.653 341.209L537.688 383.08C532.103 388.167 523.191 383.653 523.988 376.141L527.175 346.095L508.063 336.415C503.726 334.218 502.383 328.924 504.642 325H576.288ZM444.124 336.299C443.081 334.385 440.226 334.774 439.734 336.897L435.687 354.372C435.313 355.988 436.672 357.479 438.316 357.255L444.44 356.419L448.609 364.074C449.651 365.988 452.507 365.598 452.998 363.475L457.045 346.001C457.42 344.384 456.06 342.894 454.417 343.118L448.293 343.953L444.124 336.299ZM591.441 358.844C590.866 356.186 587.309 355.648 585.974 358.017L574.98 377.522C573.964 379.326 575.068 381.59 577.115 381.899L584.743 383.053L587.043 393.687C587.618 396.346 591.175 396.883 592.511 394.514L603.504 375.009C604.521 373.205 603.417 370.941 601.37 370.632L593.742 369.478L591.441 358.844ZM512.841 479.181C514.314 475.079 520.077 474.973 521.7 479.018L528.191 495.198L540.55 494.971C543.867 494.91 546.219 498.188 545.097 501.311L532.973 535.074C531.5 539.177 525.737 539.283 524.114 535.237L517.623 519.058L505.264 519.285C501.947 519.346 499.595 516.067 500.716 512.945L512.841 479.181ZM411.964 546.677C412.578 544.027 416.143 543.541 417.444 545.93L422.648 555.485L430.291 554.442C432.343 554.162 434.04 556.023 433.573 558.04L428.521 579.852C427.907 582.503 424.343 582.989 423.042 580.6L417.838 571.045L410.194 572.088C408.143 572.367 406.446 570.507 406.913 568.49L411.964 546.677ZM358.919 338.354C357.728 337.533 356.154 338.62 356.499 340.024L357.878 345.642L354.502 347.971C353.596 348.596 353.596 349.935 354.503 350.56L364.302 357.318C365.493 358.139 367.067 357.053 366.722 355.648L365.343 350.03L368.719 347.701C369.625 347.076 369.625 345.737 368.718 345.112L358.919 338.354ZM588.106 547.867C587.345 546.471 585.262 546.755 584.903 548.304L581.95 561.055C581.677 562.234 582.669 563.322 583.868 563.158L588.336 562.548L591.378 568.134C592.139 569.53 594.222 569.246 594.581 567.697L597.534 554.947C597.807 553.767 596.815 552.68 595.616 552.843L591.148 553.453L588.106 547.867ZM598.6 510.707C599.146 508.555 596.743 506.87 594.906 508.117L587.56 513.101L582.406 509.488C581.023 508.518 579.096 509.233 578.681 510.87L574.191 528.578C573.646 530.73 576.049 532.415 577.886 531.169L585.231 526.184L590.385 529.798C591.769 530.768 593.695 530.053 594.11 528.415L598.6 510.707ZM544.575 393.621C543.117 391.852 544.619 389.219 546.883 389.574L565.522 392.49C567.246 392.76 568.166 394.672 567.301 396.187L564.081 401.833L569.911 408.908C571.369 410.677 569.867 413.31 567.603 412.955L548.964 410.039C547.24 409.769 546.32 407.857 547.184 406.342L550.405 400.695L544.575 393.621ZM483.682 354.273C487.32 350.964 493.119 353.907 492.597 358.796L490.507 378.353L502.943 384.664C506.281 386.358 506.89 390.87 504.121 393.388L474.178 420.622C470.54 423.93 464.741 420.988 465.264 416.098L467.354 396.541L454.917 390.23C451.579 388.536 450.97 384.024 453.739 381.506L483.682 354.273ZM517.249 417.074C515.129 413.957 510.279 415.114 509.794 418.853L505.803 449.625C505.434 452.471 508.029 454.806 510.82 454.14L521.22 451.659L529.701 464.127C531.821 467.244 536.671 466.087 537.156 462.348L541.146 431.576C541.516 428.73 538.921 426.395 536.13 427.061L525.73 429.542L517.249 417.074ZM416.075 345.508C414.585 340.567 407.778 340.088 405.611 344.771L396.943 363.5L382.346 362.473C378.427 362.197 375.446 365.928 376.579 369.689L388.84 410.352C390.329 415.292 397.136 415.771 399.303 411.089L407.972 392.359L422.569 393.387C426.487 393.663 429.469 389.931 428.335 386.17L416.075 345.508ZM437.275 414.059C433.196 406.007 421.326 407.267 419.028 415.997L400.12 487.844C398.371 494.489 403.815 500.828 410.648 500.102L436.103 497.399L452.42 529.604C456.5 537.656 468.37 536.395 470.667 527.666L489.576 455.818C491.324 449.174 485.88 442.835 479.047 443.56L453.592 446.264L437.275 414.059Z" fill="#FF9600"/><path fill-rule="evenodd" clip-rule="evenodd" d="M-53.7561 325H-36.9418L-36.6623 332.497C-36.5219 336.264 -41.1132 338.208 -43.7202 335.484L-53.7561 325ZM-168.738 477.476V400.488C-162.976 396.383 -155.133 401.512 -156.631 408.467L-162.653 436.437L-145.631 447.474C-141.062 450.436 -140.873 457.056 -145.265 460.274L-168.738 477.476ZM-168.738 542.154V527.71L-147.565 498.359C-144.515 494.132 -137.857 495.916 -137.33 501.101L-135.221 521.841L-120.943 525.667C-117.11 526.694 -115.492 531.24 -117.813 534.457L-142.912 569.249C-145.962 573.476 -152.62 571.692 -153.147 566.507L-155.256 545.767L-168.738 542.154ZM-36.9418 585H-53.7561L-65.1773 573.069C-67.1618 570.995 -66.4567 567.577 -63.8139 566.459L-53.9678 562.291L-54.5295 547.223C-54.6699 543.455 -50.0786 541.512 -47.4716 544.235L-26.0145 566.651C-24.0301 568.724 -24.7351 572.142 -27.378 573.261L-37.224 577.428L-36.9418 585ZM56.2882 585H-15.3583C-14.9457 584.283 -14.413 583.612 -13.7565 583.014L32.209 541.144C37.7938 536.056 46.7058 540.57 45.9089 548.083L42.7215 578.128L56.2882 585ZM91.2617 527.71V542.154L90.4659 541.941C86.6335 540.914 85.0152 536.369 87.3365 533.151L91.2617 527.71ZM91.2617 400.489V477.477L67.2456 495.077C61.4755 499.305 53.5381 494.158 55.0439 487.165L61.0667 459.195L44.0447 448.158C39.4757 445.196 39.2865 438.577 43.6787 435.358L91.1696 400.556C91.2003 400.533 91.231 400.511 91.2617 400.489ZM56.2883 325L61.8334 327.809C66.9634 330.407 67.9045 337.337 63.6534 341.209L17.6878 383.08C12.103 388.167 3.19101 383.653 3.98796 376.141L7.17537 346.095L-11.9366 336.415C-16.2743 334.218 -17.617 328.924 -15.3583 325H56.2883ZM-75.8762 336.299C-76.9186 334.385 -79.7741 334.774 -80.2658 336.897L-84.3128 354.372C-84.6871 355.988 -83.3277 357.479 -81.6839 357.255L-75.5602 356.419L-71.3912 364.074C-70.3488 365.988 -67.4933 365.598 -67.0016 363.475L-62.9547 346.001C-62.5804 344.384 -63.9398 342.894 -65.5835 343.118L-71.7072 343.953L-75.8762 336.299ZM71.4415 358.844C70.8663 356.186 67.3094 355.648 65.9737 358.017L54.9804 377.522C53.9637 379.326 55.0675 381.59 57.1149 381.899L64.7427 383.053L67.0432 393.687C67.6184 396.346 71.1753 396.883 72.511 394.514L83.5043 375.009C84.521 373.205 83.4172 370.941 81.3698 370.632L73.742 369.478L71.4415 358.844ZM-7.15912 479.181C-5.68597 475.079 0.0770264 474.973 1.69998 479.018L8.19098 495.198L20.5498 494.971C23.8671 494.91 26.2188 498.188 25.0974 501.311L12.9728 535.074C11.4996 539.177 5.73663 539.283 4.11369 535.237L-2.37732 519.058L-14.7361 519.285C-18.0535 519.346 -20.4051 516.067 -19.2838 512.945L-7.15912 479.181ZM-108.036 546.677C-107.422 544.027 -103.857 543.541 -102.556 545.93L-97.3525 555.485L-89.7087 554.442C-87.657 554.162 -85.9602 556.023 -86.4274 558.04L-91.4788 579.852C-92.0926 582.503 -95.6569 582.989 -96.958 580.6L-102.162 571.045L-109.806 572.088C-111.857 572.367 -113.554 570.507 -113.087 568.49L-108.036 546.677ZM-161.081 338.354C-162.272 337.533 -163.846 338.62 -163.501 340.024L-162.122 345.642L-165.498 347.971C-166.404 348.596 -166.404 349.935 -165.497 350.56L-155.698 357.318C-154.507 358.139 -152.933 357.053 -153.278 355.648L-154.657 350.03L-151.281 347.701C-150.375 347.076 -150.375 345.737 -151.282 345.112L-161.081 338.354ZM68.1057 547.867C67.3451 546.471 65.2616 546.755 64.9028 548.304L61.95 561.055C61.6769 562.234 62.6688 563.322 63.8681 563.158L68.3363 562.548L71.3782 568.134C72.1388 569.53 74.2223 569.246 74.581 567.697L77.5339 554.947C77.8069 553.767 76.8151 552.68 75.6158 552.843L71.1476 553.453L68.1057 547.867ZM78.6004 510.707C79.1459 508.555 76.7426 506.87 74.9059 508.117L67.56 513.101L62.406 509.488C61.0226 508.518 59.0963 509.233 58.6811 510.87L54.1911 528.578C53.6455 530.73 56.0489 532.415 57.8856 531.169L65.2315 526.184L70.3855 529.798C71.7689 530.768 73.6951 530.053 74.1104 528.415L78.6004 510.707ZM24.5746 393.621C23.1168 391.852 24.6186 389.219 26.8832 389.574L45.5219 392.49C47.2457 392.76 48.1659 394.672 47.3015 396.187L44.0808 401.833L49.9112 408.908C51.369 410.677 49.8672 413.31 47.6026 412.955L28.964 410.039C27.2402 409.769 26.3199 407.857 27.1844 406.342L30.405 400.695L24.5746 393.621ZM-36.3179 354.273C-32.6798 350.964 -26.8807 353.907 -27.4032 358.796L-29.4932 378.353L-17.0569 384.664C-13.7188 386.358 -13.1096 390.87 -15.8789 393.388L-45.8216 420.622C-49.4596 423.93 -55.2588 420.988 -54.7362 416.098L-52.6463 396.541L-65.0826 390.23C-68.4207 388.536 -69.0298 384.024 -66.2606 381.506L-36.3179 354.273ZM-2.75082 417.074C-4.87128 413.957 -9.72083 415.114 -10.2057 418.853L-14.1965 449.625C-14.5656 452.471 -11.9715 454.806 -9.17998 454.14L1.21992 451.659L9.70073 464.127C11.8212 467.244 16.6707 466.087 17.1556 462.348L21.1464 431.576C21.5155 428.73 18.9214 426.395 16.1299 427.061L5.73 429.542L-2.75082 417.074ZM-103.925 345.508C-105.415 340.567 -112.222 340.088 -114.389 344.771L-123.057 363.5L-137.654 362.473C-141.573 362.197 -144.554 365.928 -143.421 369.689L-131.16 410.352C-129.671 415.292 -122.864 415.771 -120.697 411.089L-112.028 392.359L-97.4309 393.387C-93.5127 393.663 -90.531 389.931 -91.6649 386.17L-103.925 345.508ZM-82.7246 414.059C-86.8042 406.007 -98.6742 407.267 -100.972 415.997L-119.88 487.844C-121.629 494.489 -116.185 500.828 -109.352 500.102L-83.8966 497.399L-67.5801 529.604C-63.5005 537.656 -51.6304 536.395 -49.3331 527.666L-30.4245 455.818C-28.6757 449.174 -34.12 442.835 -40.9527 443.56L-66.4081 446.264L-82.7246 414.059Z" fill="#FF9600"/><path fill-rule="evenodd" clip-rule="evenodd" d="M206.244 65H223.058L223.338 72.4969C223.478 76.2644 218.887 78.2078 216.28 75.4843L206.244 65ZM91.2617 217.476V140.488C97.0236 136.383 104.867 141.512 103.369 148.467L97.3467 176.437L114.369 187.474C118.938 190.436 119.127 197.056 114.735 200.274L91.2617 217.476ZM91.2617 282.154V267.71L112.435 238.359C115.485 234.132 122.143 235.916 122.67 241.101L124.779 261.841L139.057 265.667C142.89 266.694 144.508 271.24 142.187 274.457L117.088 309.249C114.038 313.476 107.38 311.692 106.853 306.507L104.744 285.767L91.2617 282.154ZM223.058 325H206.244L194.823 313.069C192.838 310.995 193.543 307.577 196.186 306.459L206.032 302.291L205.471 287.223C205.33 283.455 209.921 281.512 212.528 284.235L233.985 306.651C235.97 308.724 235.265 312.142 232.622 313.261L222.776 317.428L223.058 325ZM316.288 325H244.642C245.054 324.283 245.587 323.612 246.243 323.014L292.209 281.144C297.794 276.056 306.706 280.57 305.909 288.083L302.721 318.128L316.288 325ZM351.262 267.71V282.154L350.466 281.941C346.633 280.914 345.015 276.369 347.336 273.151L351.262 267.71ZM351.262 140.489V217.477L327.246 235.077C321.476 239.305 313.538 234.158 315.044 227.165L321.067 199.195L304.045 188.158C299.476 185.196 299.286 178.577 303.679 175.358L351.17 140.556C351.2 140.533 351.231 140.511 351.262 140.489ZM316.288 65L321.833 67.8086C326.963 70.407 327.904 77.3365 323.653 81.2089L277.688 123.08C272.103 128.167 263.191 123.653 263.988 116.141L267.175 86.0949L248.063 76.4146C243.726 74.2176 242.383 68.9238 244.642 65H316.288ZM184.124 76.2987C183.081 74.3848 180.226 74.7743 179.734 76.8974L175.687 94.3721C175.313 95.9883 176.672 97.4789 178.316 97.2547L184.44 96.4194L188.609 104.074C189.651 105.988 192.507 105.598 192.998 103.475L197.045 86.0006C197.42 84.3845 196.06 82.8938 194.417 83.1181L188.293 83.9534L184.124 76.2987ZM331.441 98.8443C330.866 96.1855 327.309 95.6476 325.974 98.0174L314.98 117.522C313.964 119.326 315.068 121.59 317.115 121.899L324.743 123.053L327.043 133.687C327.618 136.346 331.175 136.883 332.511 134.514L343.504 115.009C344.521 113.205 343.417 110.941 341.37 110.632L333.742 109.478L331.441 98.8443ZM252.841 219.181C254.314 215.079 260.077 214.973 261.7 219.018L268.191 235.198L280.55 234.971C283.867 234.91 286.219 238.188 285.097 241.311L272.973 275.074C271.5 279.177 265.737 279.283 264.114 275.237L257.623 259.058L245.264 259.285C241.947 259.346 239.595 256.067 240.716 252.945L252.841 219.181ZM151.964 286.677C152.578 284.027 156.143 283.541 157.444 285.93L162.648 295.485L170.291 294.442C172.343 294.162 174.04 296.023 173.573 298.04L168.521 319.852C167.907 322.503 164.343 322.989 163.042 320.6L157.838 311.045L150.194 312.088C148.143 312.367 146.446 310.507 146.913 308.49L151.964 286.677ZM98.9189 78.3545C97.7283 77.5334 96.1541 78.6195 96.4989 80.0241L97.8784 85.6416L94.5024 87.9708C93.5962 88.596 93.5964 89.9348 94.5027 90.5598L104.302 97.3176C105.493 98.1386 107.067 97.0525 106.722 95.6479L105.343 90.0304L108.719 87.7012C109.625 87.076 109.625 85.7372 108.718 85.1122L98.9189 78.3545ZM328.106 287.867C327.345 286.471 325.262 286.755 324.903 288.304L321.95 301.055C321.677 302.234 322.669 303.322 323.868 303.158L328.336 302.548L331.378 308.134C332.139 309.53 334.222 309.246 334.581 307.697L337.534 294.947C337.807 293.767 336.815 292.68 335.616 292.843L331.148 293.453L328.106 287.867ZM338.6 250.707C339.146 248.555 336.743 246.87 334.906 248.117L327.56 253.101L322.406 249.488C321.023 248.518 319.096 249.233 318.681 250.87L314.191 268.578C313.646 270.73 316.049 272.415 317.886 271.169L325.231 266.184L330.385 269.798C331.769 270.768 333.695 270.053 334.11 268.415L338.6 250.707ZM284.575 133.621C283.117 131.852 284.619 129.219 286.883 129.574L305.522 132.49C307.246 132.76 308.166 134.672 307.301 136.187L304.081 141.833L309.911 148.908C311.369 150.677 309.867 153.31 307.603 152.955L288.964 150.039C287.24 149.769 286.32 147.857 287.184 146.342L290.405 140.695L284.575 133.621ZM223.682 94.2725C227.32 90.9637 233.119 93.9066 232.597 98.7964L230.507 118.353L242.943 124.664C246.281 126.358 246.89 130.87 244.121 133.388L214.178 160.622C210.54 163.93 204.741 160.988 205.264 156.098L207.354 136.541L194.917 130.23C191.579 128.536 190.97 124.024 193.739 121.506L223.682 94.2725ZM257.249 157.074C255.129 153.957 250.279 155.114 249.794 158.853L245.803 189.625C245.434 192.471 248.029 194.806 250.82 194.14L261.22 191.659L269.701 204.127C271.821 207.244 276.671 206.087 277.156 202.348L281.146 171.576C281.516 168.73 278.921 166.395 276.13 167.061L265.73 169.542L257.249 157.074ZM156.075 85.5078C154.585 80.5673 147.778 80.0879 145.611 84.7709L136.943 103.5L122.346 102.473C118.427 102.197 115.446 105.928 116.579 109.689L128.84 150.352C130.329 155.292 137.136 155.771 139.303 151.089L147.972 132.359L162.569 133.387C166.487 133.663 169.469 129.931 168.335 126.17L156.075 85.5078ZM177.275 154.059C173.196 146.007 161.326 147.267 159.028 155.997L140.12 227.844C138.371 234.489 143.815 240.828 150.648 240.102L176.103 237.399L192.42 269.604C196.5 277.656 208.37 276.395 210.667 267.666L229.576 195.818C231.324 189.174 225.88 182.835 219.047 183.56L193.592 186.264L177.275 154.059Z" fill="#FF9600"/><path fill-rule="evenodd" clip-rule="evenodd" d="M466.244 65H483.058L483.338 72.4969C483.478 76.2644 478.887 78.2078 476.28 75.4843L466.244 65ZM351.262 217.476V140.488C357.024 136.383 364.867 141.512 363.369 148.467L357.347 176.437L374.369 187.474C378.938 190.436 379.127 197.056 374.735 200.274L351.262 217.476ZM351.262 282.154V267.71L372.435 238.359C375.485 234.132 382.143 235.916 382.67 241.101L384.779 261.841L399.057 265.667C402.89 266.694 404.508 271.24 402.187 274.457L377.088 309.249C374.038 313.476 367.38 311.692 366.853 306.507L364.744 285.767L351.262 282.154ZM483.058 325H466.244L454.823 313.069C452.838 310.995 453.543 307.577 456.186 306.459L466.032 302.291L465.471 287.223C465.33 283.455 469.921 281.512 472.528 284.235L493.985 306.651C495.97 308.724 495.265 312.142 492.622 313.261L482.776 317.428L483.058 325ZM576.288 325H504.642C505.054 324.283 505.587 323.612 506.243 323.014L552.209 281.144C557.794 276.056 566.706 280.57 565.909 288.083L562.721 318.128L576.288 325ZM611.262 267.71V282.154L610.466 281.941C606.633 280.914 605.015 276.369 607.336 273.151L611.262 267.71ZM611.262 140.489V217.477L587.246 235.077C581.476 239.305 573.538 234.158 575.044 227.165L581.067 199.195L564.045 188.158C559.476 185.196 559.286 178.577 563.679 175.358L611.17 140.556C611.2 140.533 611.231 140.511 611.262 140.489ZM576.288 65L581.833 67.8086C586.963 70.407 587.904 77.3365 583.653 81.2089L537.688 123.08C532.103 128.167 523.191 123.653 523.988 116.141L527.175 86.0949L508.063 76.4146C503.726 74.2176 502.383 68.9238 504.642 65H576.288ZM444.124 76.2987C443.081 74.3848 440.226 74.7743 439.734 76.8974L435.687 94.3721C435.313 95.9883 436.672 97.4789 438.316 97.2547L444.44 96.4194L448.609 104.074C449.651 105.988 452.507 105.598 452.998 103.475L457.045 86.0006C457.42 84.3845 456.06 82.8938 454.417 83.1181L448.293 83.9534L444.124 76.2987ZM591.441 98.8443C590.866 96.1855 587.309 95.6476 585.974 98.0174L574.98 117.522C573.964 119.326 575.068 121.59 577.115 121.899L584.743 123.053L587.043 133.687C587.618 136.346 591.175 136.883 592.511 134.514L603.504 115.009C604.521 113.205 603.417 110.941 601.37 110.632L593.742 109.478L591.441 98.8443ZM512.841 219.181C514.314 215.079 520.077 214.973 521.7 219.018L528.191 235.198L540.55 234.971C543.867 234.91 546.219 238.188 545.097 241.311L532.973 275.074C531.5 279.177 525.737 279.283 524.114 275.237L517.623 259.058L505.264 259.285C501.947 259.346 499.595 256.067 500.716 252.945L512.841 219.181ZM411.964 286.677C412.578 284.027 416.143 283.541 417.444 285.93L422.648 295.485L430.291 294.442C432.343 294.162 434.04 296.023 433.573 298.04L428.521 319.852C427.907 322.503 424.343 322.989 423.042 320.6L417.838 311.045L410.194 312.088C408.143 312.367 406.446 310.507 406.913 308.49L411.964 286.677ZM358.919 78.3545C357.728 77.5334 356.154 78.6195 356.499 80.0241L357.878 85.6416L354.502 87.9708C353.596 88.596 353.596 89.9348 354.503 90.5598L364.302 97.3176C365.493 98.1386 367.067 97.0525 366.722 95.6479L365.343 90.0304L368.719 87.7012C369.625 87.076 369.625 85.7372 368.718 85.1122L358.919 78.3545ZM588.106 287.867C587.345 286.471 585.262 286.755 584.903 288.304L581.95 301.055C581.677 302.234 582.669 303.322 583.868 303.158L588.336 302.548L591.378 308.134C592.139 309.53 594.222 309.246 594.581 307.697L597.534 294.947C597.807 293.767 596.815 292.68 595.616 292.843L591.148 293.453L588.106 287.867ZM598.6 250.707C599.146 248.555 596.743 246.87 594.906 248.117L587.56 253.101L582.406 249.488C581.023 248.518 579.096 249.233 578.681 250.87L574.191 268.578C573.646 270.73 576.049 272.415 577.886 271.169L585.231 266.184L590.385 269.798C591.769 270.768 593.695 270.053 594.11 268.415L598.6 250.707ZM544.575 133.621C543.117 131.852 544.619 129.219 546.883 129.574L565.522 132.49C567.246 132.76 568.166 134.672 567.301 136.187L564.081 141.833L569.911 148.908C571.369 150.677 569.867 153.31 567.603 152.955L548.964 150.039C547.24 149.769 546.32 147.857 547.184 146.342L550.405 140.695L544.575 133.621ZM483.682 94.2725C487.32 90.9637 493.119 93.9066 492.597 98.7964L490.507 118.353L502.943 124.664C506.281 126.358 506.89 130.87 504.121 133.388L474.178 160.622C470.54 163.93 464.741 160.988 465.264 156.098L467.354 136.541L454.917 130.23C451.579 128.536 450.97 124.024 453.739 121.506L483.682 94.2725ZM517.249 157.074C515.129 153.957 510.279 155.114 509.794 158.853L505.803 189.625C505.434 192.471 508.029 194.806 510.82 194.14L521.22 191.659L529.701 204.127C531.821 207.244 536.671 206.087 537.156 202.348L541.146 171.576C541.516 168.73 538.921 166.395 536.13 167.061L525.73 169.542L517.249 157.074ZM416.075 85.5078C414.585 80.5673 407.778 80.0879 405.611 84.7709L396.943 103.5L382.346 102.473C378.427 102.197 375.446 105.928 376.579 109.689L388.84 150.352C390.329 155.292 397.136 155.771 399.303 151.089L407.972 132.359L422.569 133.387C426.487 133.663 429.469 129.931 428.335 126.17L416.075 85.5078ZM437.275 154.059C433.196 146.007 421.326 147.267 419.028 155.997L400.12 227.844C398.371 234.489 403.815 240.828 410.648 240.102L436.103 237.399L452.42 269.604C456.5 277.656 468.37 276.395 470.667 267.666L489.576 195.818C491.324 189.174 485.88 182.835 479.047 183.56L453.592 186.264L437.275 154.059Z" fill="#FF9600"/><path fill-rule="evenodd" clip-rule="evenodd" d="M-53.7561 65H-36.9418L-36.6623 72.4969C-36.5219 76.2644 -41.1132 78.2078 -43.7202 75.4843L-53.7561 65ZM-168.738 217.476V140.488C-162.976 136.383 -155.133 141.512 -156.631 148.467L-162.653 176.437L-145.631 187.474C-141.062 190.436 -140.873 197.056 -145.265 200.274L-168.738 217.476ZM-168.738 282.154V267.71L-147.565 238.359C-144.515 234.132 -137.857 235.916 -137.33 241.101L-135.221 261.841L-120.943 265.667C-117.11 266.694 -115.492 271.24 -117.813 274.457L-142.912 309.249C-145.962 313.476 -152.62 311.692 -153.147 306.507L-155.256 285.767L-168.738 282.154ZM-36.9418 325H-53.7561L-65.1773 313.069C-67.1618 310.995 -66.4567 307.577 -63.8139 306.459L-53.9678 302.291L-54.5295 287.223C-54.6699 283.455 -50.0786 281.512 -47.4716 284.235L-26.0145 306.651C-24.0301 308.724 -24.7351 312.142 -27.378 313.261L-37.224 317.428L-36.9418 325ZM56.2882 325H-15.3583C-14.9457 324.283 -14.413 323.612 -13.7565 323.014L32.209 281.144C37.7938 276.056 46.7058 280.57 45.9089 288.083L42.7215 318.128L56.2882 325ZM91.2617 267.71V282.154L90.4659 281.941C86.6335 280.914 85.0152 276.369 87.3365 273.151L91.2617 267.71ZM91.2617 140.489V217.477L67.2456 235.077C61.4755 239.305 53.5381 234.158 55.0439 227.165L61.0667 199.195L44.0447 188.158C39.4757 185.196 39.2865 178.577 43.6787 175.358L91.1696 140.556C91.2003 140.533 91.231 140.511 91.2617 140.489ZM56.2883 65L61.8334 67.8086C66.9634 70.407 67.9045 77.3365 63.6534 81.2089L17.6878 123.08C12.103 128.167 3.19101 123.653 3.98796 116.141L7.17537 86.0949L-11.9366 76.4146C-16.2743 74.2176 -17.617 68.9238 -15.3583 65H56.2883ZM-75.8762 76.2987C-76.9186 74.3848 -79.7741 74.7743 -80.2658 76.8974L-84.3128 94.3721C-84.6871 95.9883 -83.3277 97.4789 -81.6839 97.2547L-75.5602 96.4194L-71.3912 104.074C-70.3488 105.988 -67.4933 105.598 -67.0016 103.475L-62.9547 86.0006C-62.5804 84.3845 -63.9398 82.8938 -65.5835 83.1181L-71.7072 83.9534L-75.8762 76.2987ZM71.4415 98.8443C70.8663 96.1855 67.3094 95.6476 65.9737 98.0174L54.9804 117.522C53.9637 119.326 55.0675 121.59 57.1149 121.899L64.7427 123.053L67.0432 133.687C67.6184 136.346 71.1753 136.883 72.511 134.514L83.5043 115.009C84.521 113.205 83.4172 110.941 81.3698 110.632L73.742 109.478L71.4415 98.8443ZM-7.15912 219.181C-5.68597 215.079 0.0770264 214.973 1.69998 219.018L8.19098 235.198L20.5498 234.971C23.8671 234.91 26.2188 238.188 25.0974 241.311L12.9728 275.074C11.4996 279.177 5.73663 279.283 4.11369 275.237L-2.37732 259.058L-14.7361 259.285C-18.0535 259.346 -20.4051 256.067 -19.2838 252.945L-7.15912 219.181ZM-108.036 286.677C-107.422 284.027 -103.857 283.541 -102.556 285.93L-97.3525 295.485L-89.7087 294.442C-87.657 294.162 -85.9602 296.023 -86.4274 298.04L-91.4788 319.852C-92.0926 322.503 -95.6569 322.989 -96.958 320.6L-102.162 311.045L-109.806 312.088C-111.857 312.367 -113.554 310.507 -113.087 308.49L-108.036 286.677ZM-161.081 78.3545C-162.272 77.5334 -163.846 78.6195 -163.501 80.0241L-162.122 85.6416L-165.498 87.9708C-166.404 88.596 -166.404 89.9348 -165.497 90.5598L-155.698 97.3176C-154.507 98.1386 -152.933 97.0525 -153.278 95.6479L-154.657 90.0304L-151.281 87.7012C-150.375 87.076 -150.375 85.7372 -151.282 85.1122L-161.081 78.3545ZM68.1057 287.867C67.3451 286.471 65.2616 286.755 64.9028 288.304L61.95 301.055C61.6769 302.234 62.6688 303.322 63.8681 303.158L68.3363 302.548L71.3782 308.134C72.1388 309.53 74.2223 309.246 74.581 307.697L77.5339 294.947C77.8069 293.767 76.8151 292.68 75.6158 292.843L71.1476 293.453L68.1057 287.867ZM78.6004 250.707C79.1459 248.555 76.7426 246.87 74.9059 248.117L67.56 253.101L62.406 249.488C61.0226 248.518 59.0963 249.233 58.6811 250.87L54.1911 268.578C53.6455 270.73 56.0489 272.415 57.8856 271.169L65.2315 266.184L70.3855 269.798C71.7689 270.768 73.6951 270.053 74.1104 268.415L78.6004 250.707ZM24.5746 133.621C23.1168 131.852 24.6186 129.219 26.8832 129.574L45.5219 132.49C47.2457 132.76 48.1659 134.672 47.3015 136.187L44.0808 141.833L49.9112 148.908C51.369 150.677 49.8672 153.31 47.6026 152.955L28.964 150.039C27.2402 149.769 26.3199 147.857 27.1844 146.342L30.405 140.695L24.5746 133.621ZM-36.3179 94.2725C-32.6798 90.9637 -26.8807 93.9066 -27.4032 98.7964L-29.4932 118.353L-17.0569 124.664C-13.7188 126.358 -13.1096 130.87 -15.8789 133.388L-45.8216 160.622C-49.4596 163.93 -55.2588 160.988 -54.7362 156.098L-52.6463 136.541L-65.0826 130.23C-68.4207 128.536 -69.0298 124.024 -66.2606 121.506L-36.3179 94.2725ZM-2.75082 157.074C-4.87128 153.957 -9.72083 155.114 -10.2057 158.853L-14.1965 189.625C-14.5656 192.471 -11.9715 194.806 -9.17998 194.14L1.21992 191.659L9.70073 204.127C11.8212 207.244 16.6707 206.087 17.1556 202.348L21.1464 171.576C21.5155 168.73 18.9214 166.395 16.1299 167.061L5.73 169.542L-2.75082 157.074ZM-103.925 85.5078C-105.415 80.5673 -112.222 80.0879 -114.389 84.7709L-123.057 103.5L-137.654 102.473C-141.573 102.197 -144.554 105.928 -143.421 109.689L-131.16 150.352C-129.671 155.292 -122.864 155.771 -120.697 151.089L-112.028 132.359L-97.4309 133.387C-93.5127 133.663 -90.531 129.931 -91.6649 126.17L-103.925 85.5078ZM-82.7246 154.059C-86.8042 146.007 -98.6742 147.267 -100.972 155.997L-119.88 227.844C-121.629 234.489 -116.185 240.828 -109.352 240.102L-83.8966 237.399L-67.5801 269.604C-63.5005 277.656 -51.6304 276.395 -49.3331 267.666L-30.4245 195.818C-28.6757 189.174 -34.12 182.835 -40.9527 183.56L-66.4081 186.264L-82.7246 154.059Z" fill="#FF9600"/><path fill-rule="evenodd" clip-rule="evenodd" d="M206.244 -195H223.058L223.338 -187.503C223.478 -183.736 218.887 -181.792 216.28 -184.516L206.244 -195ZM91.2617 -42.5243V-119.512C97.0236 -123.617 104.867 -118.488 103.369 -111.533L97.3467 -83.5629L114.369 -72.5261C118.938 -69.5637 119.127 -62.9443 114.735 -59.7256L91.2617 -42.5243ZM91.2617 22.1543V7.70975L112.435 -21.641C115.485 -25.8682 122.143 -24.0842 122.67 -18.8986L124.779 1.84137L139.057 5.66714C142.89 6.69405 144.508 11.2396 142.187 14.4574L117.088 49.2492C114.038 53.4764 107.38 51.6924 106.853 46.5068L104.744 25.7668L91.2617 22.1543ZM223.058 65H206.244L194.823 53.0685C192.838 50.9954 193.543 47.5773 196.186 46.4587L206.032 42.2912L205.471 27.2228C205.33 23.4553 209.921 21.5119 212.528 24.2354L233.985 46.6512C235.97 48.7243 235.265 52.1423 232.622 53.261L222.776 57.4285L223.058 65ZM316.288 65H244.642C245.054 64.2834 245.587 63.6124 246.243 63.0143L292.209 21.1436C297.794 16.0564 306.706 20.5703 305.909 28.0826L302.721 58.1284L316.288 65ZM351.262 7.70973V22.1543L350.466 21.941C346.633 20.9142 345.015 16.3686 347.336 13.1508L351.262 7.70973ZM351.262 -119.511V-42.5229L327.246 -24.9235C321.476 -20.695 313.538 -25.8415 315.044 -32.8349L321.067 -60.8048L304.045 -71.8415C299.476 -74.804 299.286 -81.4233 303.679 -84.642L351.17 -119.444C351.2 -119.467 351.231 -119.489 351.262 -119.511ZM316.288 -195L321.833 -192.191C326.963 -189.593 327.904 -182.663 323.653 -178.791L277.688 -136.92C272.103 -131.833 263.191 -136.347 263.988 -143.859L267.175 -173.905L248.063 -183.585C243.726 -185.782 242.383 -191.076 244.642 -195H316.288ZM184.124 -183.701C183.081 -185.615 180.226 -185.226 179.734 -183.103L175.687 -165.628C175.313 -164.012 176.672 -162.521 178.316 -162.745L184.44 -163.581L188.609 -155.926C189.651 -154.012 192.507 -154.402 192.998 -156.525L197.045 -173.999C197.42 -175.616 196.06 -177.106 194.417 -176.882L188.293 -176.047L184.124 -183.701ZM331.441 -161.156C330.866 -163.814 327.309 -164.352 325.974 -161.983L314.98 -142.478C313.964 -140.674 315.068 -138.41 317.115 -138.101L324.743 -136.947L327.043 -126.313C327.618 -123.654 331.175 -123.117 332.511 -125.486L343.504 -144.991C344.521 -146.795 343.417 -149.059 341.37 -149.368L333.742 -150.522L331.441 -161.156ZM252.841 -40.8188C254.314 -44.9211 260.077 -45.027 261.7 -40.9817L268.191 -24.8023L280.55 -25.0295C283.867 -25.0905 286.219 -21.8118 285.097 -18.6891L272.973 15.0745C271.5 19.1767 265.737 19.2827 264.114 15.2374L257.623 -0.942062L245.264 -0.714828C241.947 -0.653839 239.595 -3.93256 240.716 -7.05519L252.841 -40.8188ZM151.964 26.6773C152.578 24.0272 156.143 23.541 157.444 25.9299L162.648 35.4847L170.291 34.442C172.343 34.1622 174.04 36.0228 173.573 38.0401L168.521 59.8523C167.907 62.5025 164.343 62.9887 163.042 60.5997L157.838 51.045L150.194 52.0876C148.143 52.3675 146.446 50.5069 146.913 48.4895L151.964 26.6773ZM98.9189 -181.646C97.7283 -182.467 96.1541 -181.38 96.4989 -179.976L97.8784 -174.358L94.5024 -172.029C93.5962 -171.404 93.5964 -170.065 94.5027 -169.44L104.302 -162.682C105.493 -161.861 107.067 -162.947 106.722 -164.352L105.343 -169.97L108.719 -172.299C109.625 -172.924 109.625 -174.263 108.718 -174.888L98.9189 -181.646ZM328.106 27.8675C327.345 26.471 325.262 26.7552 324.903 28.3044L321.95 41.0547C321.677 42.2339 322.669 43.3215 323.868 43.158L328.336 42.5485L331.378 48.1337C332.139 49.5302 334.222 49.246 334.581 47.6968L337.534 34.9465C337.807 33.7673 336.815 32.6797 335.616 32.8432L331.148 33.4527L328.106 27.8675ZM338.6 -9.2932C339.146 -11.4447 336.743 -13.1297 334.906 -11.8835L327.56 -6.89897L322.406 -10.5125C321.023 -11.4824 319.096 -10.7673 318.681 -9.12955L314.191 8.57848C313.646 10.73 316.049 12.415 317.886 11.1687L325.231 6.18425L330.385 9.79778C331.769 10.7677 333.695 10.0526 334.11 8.41483L338.6 -9.2932ZM284.575 -126.379C283.117 -128.148 284.619 -130.781 286.883 -130.426L305.522 -127.51C307.246 -127.24 308.166 -125.328 307.301 -123.813L304.081 -118.167L309.911 -111.092C311.369 -109.323 309.867 -106.69 307.603 -107.045L288.964 -109.961C287.24 -110.231 286.32 -112.143 287.184 -113.658L290.405 -119.305L284.575 -126.379ZM223.682 -165.727C227.32 -169.036 233.119 -166.093 232.597 -161.204L230.507 -141.647L242.943 -135.336C246.281 -133.642 246.89 -129.13 244.121 -126.612L214.178 -99.3784C210.54 -96.0695 204.741 -99.0124 205.264 -103.902L207.354 -123.459L194.917 -129.77C191.579 -131.464 190.97 -135.976 193.739 -138.494L223.682 -165.727ZM257.249 -102.926C255.129 -106.043 250.279 -104.886 249.794 -101.147L245.803 -70.3747C245.434 -67.5287 248.029 -65.1941 250.82 -65.86L261.22 -68.341L269.701 -55.8731C271.821 -52.7558 276.671 -53.9127 277.156 -57.6515L281.146 -88.424C281.516 -91.27 278.921 -93.6046 276.13 -92.9387L265.73 -90.4578L257.249 -102.926ZM156.075 -174.492C154.585 -179.433 147.778 -179.912 145.611 -175.229L136.943 -156.5L122.346 -157.527C118.427 -157.803 115.446 -154.072 116.579 -150.311L128.84 -109.648C130.329 -104.708 137.136 -104.229 139.303 -108.911L147.972 -127.641L162.569 -126.613C166.487 -126.337 169.469 -130.069 168.335 -133.83L156.075 -174.492ZM177.275 -105.941C173.196 -113.993 161.326 -112.733 159.028 -104.003L140.12 -32.1559C138.371 -25.5111 143.815 -19.1723 150.648 -19.8979L176.103 -22.6013L192.42 9.60355C196.5 17.6557 208.37 16.3951 210.667 7.66565L229.576 -64.1816C231.324 -70.8264 225.88 -77.1653 219.047 -76.4396L193.592 -73.7362L177.275 -105.941Z" fill="#FF9600"/><path fill-rule="evenodd" clip-rule="evenodd" d="M466.244 -195H483.058L483.338 -187.503C483.478 -183.736 478.887 -181.792 476.28 -184.516L466.244 -195ZM351.262 -42.5243V-119.512C357.024 -123.617 364.867 -118.488 363.369 -111.533L357.347 -83.5629L374.369 -72.5261C378.938 -69.5637 379.127 -62.9443 374.735 -59.7256L351.262 -42.5243ZM351.262 22.1543V7.70975L372.435 -21.641C375.485 -25.8682 382.143 -24.0842 382.67 -18.8986L384.779 1.84137L399.057 5.66714C402.89 6.69405 404.508 11.2396 402.187 14.4574L377.088 49.2492C374.038 53.4764 367.38 51.6924 366.853 46.5068L364.744 25.7668L351.262 22.1543ZM483.058 65H466.244L454.823 53.0685C452.838 50.9954 453.543 47.5773 456.186 46.4587L466.032 42.2912L465.471 27.2228C465.33 23.4553 469.921 21.5119 472.528 24.2354L493.985 46.6512C495.97 48.7243 495.265 52.1423 492.622 53.261L482.776 57.4285L483.058 65ZM576.288 65H504.642C505.054 64.2834 505.587 63.6124 506.243 63.0143L552.209 21.1436C557.794 16.0564 566.706 20.5703 565.909 28.0826L562.721 58.1284L576.288 65ZM611.262 7.70973V22.1543L610.466 21.941C606.633 20.9142 605.015 16.3686 607.336 13.1508L611.262 7.70973ZM611.262 -119.511V-42.5229L587.246 -24.9235C581.476 -20.695 573.538 -25.8415 575.044 -32.8349L581.067 -60.8048L564.045 -71.8415C559.476 -74.804 559.286 -81.4233 563.679 -84.642L611.17 -119.444C611.2 -119.467 611.231 -119.489 611.262 -119.511ZM576.288 -195L581.833 -192.191C586.963 -189.593 587.904 -182.663 583.653 -178.791L537.688 -136.92C532.103 -131.833 523.191 -136.347 523.988 -143.859L527.175 -173.905L508.063 -183.585C503.726 -185.782 502.383 -191.076 504.642 -195H576.288ZM444.124 -183.701C443.081 -185.615 440.226 -185.226 439.734 -183.103L435.687 -165.628C435.313 -164.012 436.672 -162.521 438.316 -162.745L444.44 -163.581L448.609 -155.926C449.651 -154.012 452.507 -154.402 452.998 -156.525L457.045 -173.999C457.42 -175.616 456.06 -177.106 454.417 -176.882L448.293 -176.047L444.124 -183.701ZM591.441 -161.156C590.866 -163.814 587.309 -164.352 585.974 -161.983L574.98 -142.478C573.964 -140.674 575.068 -138.41 577.115 -138.101L584.743 -136.947L587.043 -126.313C587.618 -123.654 591.175 -123.117 592.511 -125.486L603.504 -144.991C604.521 -146.795 603.417 -149.059 601.37 -149.368L593.742 -150.522L591.441 -161.156ZM512.841 -40.8188C514.314 -44.9211 520.077 -45.027 521.7 -40.9817L528.191 -24.8023L540.55 -25.0295C543.867 -25.0905 546.219 -21.8118 545.097 -18.6891L532.973 15.0745C531.5 19.1767 525.737 19.2827 524.114 15.2374L517.623 -0.942062L505.264 -0.714828C501.947 -0.653839 499.595 -3.93256 500.716 -7.05519L512.841 -40.8188ZM411.964 26.6773C412.578 24.0272 416.143 23.541 417.444 25.9299L422.648 35.4847L430.291 34.442C432.343 34.1622 434.04 36.0228 433.573 38.0401L428.521 59.8523C427.907 62.5025 424.343 62.9887 423.042 60.5997L417.838 51.045L410.194 52.0876C408.143 52.3675 406.446 50.5069 406.913 48.4895L411.964 26.6773ZM358.919 -181.646C357.728 -182.467 356.154 -181.38 356.499 -179.976L357.878 -174.358L354.502 -172.029C353.596 -171.404 353.596 -170.065 354.503 -169.44L364.302 -162.682C365.493 -161.861 367.067 -162.947 366.722 -164.352L365.343 -169.97L368.719 -172.299C369.625 -172.924 369.625 -174.263 368.718 -174.888L358.919 -181.646ZM588.106 27.8675C587.345 26.471 585.262 26.7552 584.903 28.3044L581.95 41.0547C581.677 42.2339 582.669 43.3215 583.868 43.158L588.336 42.5485L591.378 48.1337C592.139 49.5302 594.222 49.246 594.581 47.6968L597.534 34.9465C597.807 33.7673 596.815 32.6797 595.616 32.8432L591.148 33.4527L588.106 27.8675ZM598.6 -9.2932C599.146 -11.4447 596.743 -13.1297 594.906 -11.8835L587.56 -6.89897L582.406 -10.5125C581.023 -11.4824 579.096 -10.7673 578.681 -9.12955L574.191 8.57848C573.646 10.73 576.049 12.415 577.886 11.1687L585.231 6.18425L590.385 9.79778C591.769 10.7677 593.695 10.0526 594.11 8.41483L598.6 -9.2932ZM544.575 -126.379C543.117 -128.148 544.619 -130.781 546.883 -130.426L565.522 -127.51C567.246 -127.24 568.166 -125.328 567.301 -123.813L564.081 -118.167L569.911 -111.092C571.369 -109.323 569.867 -106.69 567.603 -107.045L548.964 -109.961C547.24 -110.231 546.32 -112.143 547.184 -113.658L550.405 -119.305L544.575 -126.379ZM483.682 -165.727C487.32 -169.036 493.119 -166.093 492.597 -161.204L490.507 -141.647L502.943 -135.336C506.281 -133.642 506.89 -129.13 504.121 -126.612L474.178 -99.3784C470.54 -96.0695 464.741 -99.0124 465.264 -103.902L467.354 -123.459L454.917 -129.77C451.579 -131.464 450.97 -135.976 453.739 -138.494L483.682 -165.727ZM517.249 -102.926C515.129 -106.043 510.279 -104.886 509.794 -101.147L505.803 -70.3747C505.434 -67.5287 508.029 -65.1941 510.82 -65.86L521.22 -68.341L529.701 -55.8731C531.821 -52.7558 536.671 -53.9127 537.156 -57.6515L541.146 -88.424C541.516 -91.27 538.921 -93.6046 536.13 -92.9387L525.73 -90.4578L517.249 -102.926ZM416.075 -174.492C414.585 -179.433 407.778 -179.912 405.611 -175.229L396.943 -156.5L382.346 -157.527C378.427 -157.803 375.446 -154.072 376.579 -150.311L388.84 -109.648C390.329 -104.708 397.136 -104.229 399.303 -108.911L407.972 -127.641L422.569 -126.613C426.487 -126.337 429.469 -130.069 428.335 -133.83L416.075 -174.492ZM437.275 -105.941C433.196 -113.993 421.326 -112.733 419.028 -104.003L400.12 -32.1559C398.371 -25.5111 403.815 -19.1723 410.648 -19.8979L436.103 -22.6013L452.42 9.60355C456.5 17.6557 468.37 16.3951 470.667 7.66565L489.576 -64.1816C491.324 -70.8264 485.88 -77.1653 479.047 -76.4396L453.592 -73.7362L437.275 -105.941Z" fill="#FF9600"/><path fill-rule="evenodd" clip-rule="evenodd" d="M-53.7561 -195H-36.9418L-36.6623 -187.503C-36.5219 -183.736 -41.1132 -181.792 -43.7202 -184.516L-53.7561 -195ZM-168.738 -42.5243V-119.512C-162.976 -123.617 -155.133 -118.488 -156.631 -111.533L-162.653 -83.5629L-145.631 -72.5261C-141.062 -69.5637 -140.873 -62.9443 -145.265 -59.7256L-168.738 -42.5243ZM-168.738 22.1543V7.70975L-147.565 -21.641C-144.515 -25.8682 -137.857 -24.0842 -137.33 -18.8986L-135.221 1.84137L-120.943 5.66714C-117.11 6.69405 -115.492 11.2396 -117.813 14.4574L-142.912 49.2492C-145.962 53.4764 -152.62 51.6924 -153.147 46.5068L-155.256 25.7668L-168.738 22.1543ZM-36.9418 65H-53.7561L-65.1773 53.0685C-67.1618 50.9954 -66.4567 47.5773 -63.8139 46.4587L-53.9678 42.2912L-54.5295 27.2228C-54.6699 23.4553 -50.0786 21.5119 -47.4716 24.2354L-26.0145 46.6512C-24.0301 48.7243 -24.7351 52.1423 -27.378 53.261L-37.224 57.4285L-36.9418 65ZM56.2882 65H-15.3583C-14.9457 64.2834 -14.413 63.6124 -13.7565 63.0143L32.209 21.1436C37.7938 16.0564 46.7058 20.5703 45.9089 28.0826L42.7215 58.1284L56.2882 65ZM91.2617 7.70973V22.1543L90.4659 21.941C86.6335 20.9142 85.0152 16.3686 87.3365 13.1508L91.2617 7.70973ZM91.2617 -119.511V-42.5229L67.2456 -24.9235C61.4755 -20.695 53.5381 -25.8415 55.0439 -32.8349L61.0667 -60.8048L44.0447 -71.8415C39.4757 -74.804 39.2865 -81.4233 43.6787 -84.642L91.1696 -119.444C91.2003 -119.467 91.231 -119.489 91.2617 -119.511ZM56.2883 -195L61.8334 -192.191C66.9634 -189.593 67.9045 -182.663 63.6534 -178.791L17.6878 -136.92C12.103 -131.833 3.19101 -136.347 3.98796 -143.859L7.17537 -173.905L-11.9366 -183.585C-16.2743 -185.782 -17.617 -191.076 -15.3583 -195H56.2883ZM-75.8762 -183.701C-76.9186 -185.615 -79.7741 -185.226 -80.2658 -183.103L-84.3128 -165.628C-84.6871 -164.012 -83.3277 -162.521 -81.6839 -162.745L-75.5602 -163.581L-71.3912 -155.926C-70.3488 -154.012 -67.4933 -154.402 -67.0016 -156.525L-62.9547 -173.999C-62.5804 -175.616 -63.9398 -177.106 -65.5835 -176.882L-71.7072 -176.047L-75.8762 -183.701ZM71.4415 -161.156C70.8663 -163.814 67.3094 -164.352 65.9737 -161.983L54.9804 -142.478C53.9637 -140.674 55.0675 -138.41 57.1149 -138.101L64.7427 -136.947L67.0432 -126.313C67.6184 -123.654 71.1753 -123.117 72.511 -125.486L83.5043 -144.991C84.521 -146.795 83.4172 -149.059 81.3698 -149.368L73.742 -150.522L71.4415 -161.156ZM-7.15912 -40.8188C-5.68597 -44.9211 0.0770264 -45.027 1.69998 -40.9817L8.19098 -24.8023L20.5498 -25.0295C23.8671 -25.0905 26.2188 -21.8118 25.0974 -18.6891L12.9728 15.0745C11.4996 19.1767 5.73663 19.2827 4.11369 15.2374L-2.37732 -0.942062L-14.7361 -0.714828C-18.0535 -0.653839 -20.4051 -3.93256 -19.2838 -7.05519L-7.15912 -40.8188ZM-108.036 26.6773C-107.422 24.0272 -103.857 23.541 -102.556 25.9299L-97.3525 35.4847L-89.7087 34.442C-87.657 34.1622 -85.9602 36.0228 -86.4274 38.0401L-91.4788 59.8523C-92.0926 62.5025 -95.6569 62.9887 -96.958 60.5997L-102.162 51.045L-109.806 52.0876C-111.857 52.3675 -113.554 50.5069 -113.087 48.4895L-108.036 26.6773ZM-161.081 -181.646C-162.272 -182.467 -163.846 -181.38 -163.501 -179.976L-162.122 -174.358L-165.498 -172.029C-166.404 -171.404 -166.404 -170.065 -165.497 -169.44L-155.698 -162.682C-154.507 -161.861 -152.933 -162.947 -153.278 -164.352L-154.657 -169.97L-151.281 -172.299C-150.375 -172.924 -150.375 -174.263 -151.282 -174.888L-161.081 -181.646ZM68.1057 27.8675C67.3451 26.471 65.2616 26.7552 64.9028 28.3044L61.95 41.0547C61.6769 42.2339 62.6688 43.3215 63.8681 43.158L68.3363 42.5485L71.3782 48.1337C72.1388 49.5302 74.2223 49.246 74.581 47.6968L77.5339 34.9465C77.8069 33.7673 76.8151 32.6797 75.6158 32.8432L71.1476 33.4527L68.1057 27.8675ZM78.6004 -9.2932C79.1459 -11.4447 76.7426 -13.1297 74.9059 -11.8835L67.56 -6.89897L62.406 -10.5125C61.0226 -11.4824 59.0963 -10.7673 58.6811 -9.12955L54.1911 8.57848C53.6455 10.73 56.0489 12.415 57.8856 11.1687L65.2315 6.18425L70.3855 9.79778C71.7689 10.7677 73.6951 10.0526 74.1104 8.41483L78.6004 -9.2932ZM24.5746 -126.379C23.1168 -128.148 24.6186 -130.781 26.8832 -130.426L45.5219 -127.51C47.2457 -127.24 48.1659 -125.328 47.3015 -123.813L44.0808 -118.167L49.9112 -111.092C51.369 -109.323 49.8672 -106.69 47.6026 -107.045L28.964 -109.961C27.2402 -110.231 26.3199 -112.143 27.1844 -113.658L30.405 -119.305L24.5746 -126.379ZM-36.3179 -165.727C-32.6798 -169.036 -26.8807 -166.093 -27.4032 -161.204L-29.4932 -141.647L-17.0569 -135.336C-13.7188 -133.642 -13.1096 -129.13 -15.8789 -126.612L-45.8216 -99.3784C-49.4596 -96.0695 -55.2588 -99.0124 -54.7362 -103.902L-52.6463 -123.459L-65.0826 -129.77C-68.4207 -131.464 -69.0298 -135.976 -66.2606 -138.494L-36.3179 -165.727ZM-2.75082 -102.926C-4.87128 -106.043 -9.72083 -104.886 -10.2057 -101.147L-14.1965 -70.3747C-14.5656 -67.5287 -11.9715 -65.1941 -9.17998 -65.86L1.21992 -68.341L9.70073 -55.8731C11.8212 -52.7558 16.6707 -53.9127 17.1556 -57.6515L21.1464 -88.424C21.5155 -91.27 18.9214 -93.6046 16.1299 -92.9387L5.73 -90.4578L-2.75082 -102.926ZM-103.925 -174.492C-105.415 -179.433 -112.222 -179.912 -114.389 -175.229L-123.057 -156.5L-137.654 -157.527C-141.573 -157.803 -144.554 -154.072 -143.421 -150.311L-131.16 -109.648C-129.671 -104.708 -122.864 -104.229 -120.697 -108.911L-112.028 -127.641L-97.4309 -126.613C-93.5127 -126.337 -90.531 -130.069 -91.6649 -133.83L-103.925 -174.492ZM-82.7246 -105.941C-86.8042 -113.993 -98.6742 -112.733 -100.972 -104.003L-119.88 -32.1559C-121.629 -25.5111 -116.185 -19.1723 -109.352 -19.8979L-83.8966 -22.6013L-67.5801 9.60355C-63.5005 17.6557 -51.6304 16.3951 -49.3331 7.66565L-30.4245 -64.1816C-28.6757 -70.8264 -34.12 -77.1653 -40.9527 -76.4396L-66.4081 -73.7362L-82.7246 -105.941Z" fill="#FF9600"/></g><path fill-rule="evenodd" clip-rule="evenodd" d="M233.277 236.389C237.234 236.389 240.441 239.596 240.441 243.553C240.441 247.509 237.234 250.717 233.277 250.717L219.319 250.718H239.549C239.975 250.718 240.397 250.642 240.797 250.493L262.053 242.59C265.888 241.164 270.138 243.24 271.379 247.139C272.465 250.554 270.862 254.251 267.624 255.788L245.059 266.495C243.747 267.117 242.348 267.537 240.91 267.739L194.188 274.302L178.459 283.384L166.653 262.935L192.658 247.921C196.227 241.074 203.452 236.389 211.677 236.389L211.738 236.389L211.785 236.389H233.277Z" fill="white"/><path opacity="0.12" d="M272.624 256.049L250.059 266.756C248.747 267.378 247.348 267.798 245.91 268L199.188 274.563" stroke="#3C5D87" stroke-width="12.1541" stroke-linecap="round" stroke-linejoin="round"/><path fill-rule="evenodd" clip-rule="evenodd" d="M238.277 238.389C242.234 238.389 245.441 241.596 245.441 245.553C245.441 249.509 242.234 252.717 238.277 252.717L224.319 252.718H244.549C244.975 252.718 245.397 252.642 245.797 252.493L267.053 244.59C270.888 243.164 275.138 245.24 276.379 249.139C277.465 252.554 275.862 256.251 272.624 257.788L250.059 268.495C248.747 269.117 247.348 269.537 245.91 269.739L199.188 276.302L196.124 278.072L184.249 257.79L197.658 249.921C201.227 243.074 208.452 238.389 216.677 238.389L216.738 238.389L216.785 238.389H238.277Z" stroke="#3C5D87" stroke-width="2" stroke-linejoin="round"/><rect opacity="0.15" x="221.884" y="247.207" width="20.5604" height="8.81153" rx="3.47261" fill="#3C5D87"/><rect width="16.1546" height="38.1834" rx="5.20891" transform="matrix(0.866027 -0.499998 0.500002 0.866024 166.919 259.674)" stroke="#3C5D87" stroke-width="2"/><rect opacity="0.15" width="8.81157" height="32.309" rx="3.47261" transform="matrix(0.866027 -0.499997 0.500002 0.866024 165.261 266.396)" fill="#3C5D87"/><ellipse cx="2.93719" cy="2.93718" rx="2.93719" ry="2.93718" transform="matrix(0.866027 -0.499998 0.500002 0.866024 185.326 281.27)" stroke="#3C5D87" stroke-width="1.75"/><path d="M248.666 197.186C255.636 196.977 259.792 196.2 262.669 193.323C265.546 190.446 266.323 186.289 266.533 179.32C266.634 175.965 266.684 174.288 267.251 172.921C267.817 171.554 268.967 170.332 271.268 167.889C276.045 162.814 278.434 159.326 278.434 155.259C278.434 151.191 276.045 147.703 271.268 142.629C268.967 140.186 267.817 138.964 267.251 137.597C266.685 136.23 266.634 134.553 266.533 131.198C266.323 124.233 265.545 120.078 262.669 117.202C259.794 114.327 255.639 113.549 248.674 113.339C245.319 113.238 243.642 113.187 242.275 112.621C240.907 112.055 239.686 110.904 237.243 108.604C232.166 103.824 228.677 101.434 224.608 101.434C220.54 101.434 217.051 103.824 211.974 108.604C209.531 110.904 208.309 112.054 206.942 112.621C205.575 113.187 203.897 113.238 200.543 113.339C193.579 113.549 189.424 114.327 186.549 117.202C183.673 120.078 182.895 124.233 182.685 131.197C182.584 134.551 182.533 136.228 181.967 137.596C181.401 138.963 180.25 140.184 177.95 142.628C173.172 147.703 170.783 151.191 170.783 155.259C170.783 159.327 173.172 162.815 177.95 167.89C180.251 170.333 181.401 171.555 181.967 172.922C182.533 174.29 182.584 175.967 182.685 179.321C182.895 186.29 183.672 190.446 186.549 193.323C189.425 196.199 193.582 196.976 200.55 197.186" stroke="#3C5D87" stroke-width="2" stroke-linecap="round"/><path fill-rule="evenodd" clip-rule="evenodd" d="M227.552 192.686C229.226 187.519 233.064 183.431 237.071 179.763C243.376 173.993 247.448 165.793 247.77 156.577C248.406 138.368 234.16 123.092 215.952 122.456C197.743 121.82 182.466 136.066 181.83 154.274C181.509 163.49 184.999 171.955 190.886 178.15C194.627 182.088 198.171 186.434 199.481 191.706L200.192 194.57C200.752 196.827 202.741 198.439 205.065 198.52L221.505 199.094C223.83 199.176 225.926 197.706 226.643 195.494L227.552 192.686Z" fill="white"/><path opacity="0.05" d="M248.927 151.949C248.927 163.235 242.461 170.039 237.637 175.023C234.57 178.19 231.649 181.703 230.468 186.051L229.827 188.411H220.278" stroke="#3C5D87" stroke-width="22.5719" stroke-linecap="round"/><path opacity="0.12" d="M254.136 157.158C254.136 168.444 247.67 175.248 242.846 180.232C239.779 183.399 236.858 186.912 235.677 191.259V191.259C235.299 192.653 234.034 193.62 232.59 193.62H220.278" stroke="#3C5D87" stroke-width="13.8904" stroke-linecap="round"/><path d="M211.385 195.05L210.423 195.324L211.385 195.05ZM237.852 195.05L238.814 195.324L237.852 195.05ZM256.608 155.419C256.608 164.362 252.941 172.445 247.025 178.251L248.426 179.679C254.709 173.512 258.608 164.92 258.608 155.419H256.608ZM224.618 123.43C242.286 123.43 256.608 137.752 256.608 155.419H258.608C258.608 136.647 243.391 121.43 224.618 121.43V123.43ZM192.629 155.419C192.629 137.752 206.951 123.43 224.618 123.43V121.43C205.846 121.43 190.629 136.647 190.629 155.419H192.629ZM202.212 178.251C196.296 172.445 192.629 164.361 192.629 155.419H190.629C190.629 164.92 194.528 173.512 200.811 179.679L202.212 178.251ZM212.346 194.775L211.536 191.938L209.613 192.487L210.423 195.324L212.346 194.775ZM216.393 197.828C214.514 197.828 212.863 196.582 212.346 194.775L210.423 195.324C211.185 197.99 213.621 199.828 216.393 199.828V197.828ZM232.844 197.828H216.393V199.828H232.844V197.828ZM236.89 194.775C236.374 196.582 234.723 197.828 232.844 197.828V199.828C235.616 199.828 238.052 197.99 238.814 195.324L236.89 194.775ZM237.701 191.938L236.89 194.775L238.814 195.324L239.624 192.487L237.701 191.938ZM200.811 179.679C204.673 183.469 208.197 187.533 209.613 192.487L211.536 191.938C209.967 186.446 206.103 182.07 202.212 178.251L200.811 179.679ZM247.025 178.251C243.134 182.07 239.27 186.446 237.701 191.938L239.624 192.487C241.04 187.533 244.563 183.469 248.426 179.679L247.025 178.251Z" fill="#3C5D87"/><rect x="215.937" y="200.562" width="17.3631" height="20.8356" rx="8.68152" fill="white" stroke="#3C5D87" stroke-width="2"/><rect x="210.728" y="198.826" width="27.7809" height="5.20889" rx="2.60445" fill="white" stroke="#3C5D87" stroke-width="2"/><rect x="210.728" y="204.033" width="27.7809" height="5.20889" rx="2.60445" fill="white" stroke="#3C5D87" stroke-width="2"/><rect x="210.728" y="209.244" width="27.7809" height="5.20889" rx="2.60445" fill="white" stroke="#3C5D87" stroke-width="2"/><rect opacity="0.2" x="214.943" y="214.459" width="19.0994" height="3.47259" rx="1.7363" fill="#3C5D87"/><rect opacity="0.2" x="214.943" y="211.846" width="22.572" height="3.47259" rx="1.7363" fill="#3C5D87"/><rect opacity="0.2" x="214.943" y="206.639" width="22.572" height="3.47259" rx="1.7363" fill="#3C5D87"/><rect opacity="0.2" x="214.943" y="201.428" width="22.572" height="3.47259" rx="1.7363" fill="#3C5D87"/><path d="M229.827 192.753V190.149M219.409 185.808V158.027C219.409 155.15 217.077 152.818 214.201 152.818V152.818C211.324 152.818 208.992 155.15 208.992 158.027V158.027C208.992 160.904 211.324 163.236 214.2 163.236H224.618H235.036C237.913 163.236 240.245 160.904 240.245 158.027V158.027C240.245 155.15 237.913 152.818 235.036 152.818V152.818C232.159 152.818 229.827 155.15 229.827 158.027V184.94" stroke="#3C5D87" stroke-width="2" stroke-linecap="round"/></g><defs><clipPath id="clip0_728_18802"><rect y="0.00390625" width="442" height="389" rx="32" fill="white"/></clipPath></defs></svg>