<svg width="819" height="744" viewBox="0 0 819 744" fill="none" xmlns="http://www.w3.org/2000/svg"><path opacity="0.1" d="M720.419 426.798C708.275 436.421 693.184 441.688 677.909 444.355C663.399 446.888 648.989 442.258 634.261 441.84C618.166 441.383 601.094 448.542 586.486 441.759C571.924 434.998 563.122 419.632 555.746 405.382C548.759 391.884 546.994 376.66 544.994 361.601C543.074 347.143 541.69 332.703 544.188 318.339C546.753 303.593 551.748 289.394 559.751 276.749C568.059 263.621 578.48 251.745 591.603 243.419C605.024 234.904 620.355 228.309 636.262 228.208C651.919 228.109 665.484 237.976 680.365 242.858C695.435 247.802 714.027 246.046 725.133 257.366C736.3 268.749 732.728 287.914 738.959 302.583C745.182 317.23 760.28 328.049 761.883 343.874C763.492 359.751 754.853 374.769 747.719 389.035C740.696 403.081 732.73 417.042 720.419 426.798Z" fill="#FF9600"/><path opacity="0.1" d="M243.436 114.997C261.534 118.241 278.074 127.528 292.444 139.021C306.095 149.939 313.295 166.395 324.491 179.824C336.727 194.501 356.506 204.064 361.947 222.387C367.37 240.651 360.615 260.551 353.733 278.306C347.213 295.123 335.057 308.652 323.232 322.259C311.878 335.323 300.12 347.898 285.38 356.958C270.248 366.259 253.694 372.968 236.158 375.782C217.955 378.703 199.204 378.761 181.49 373.627C163.374 368.376 145.465 359.92 132.881 345.848C120.494 331.998 118.616 312.181 111.27 295.108C103.831 277.819 87.6651 262.659 89.0117 243.888C90.3658 225.013 110.22 213.138 118.375 196.072C126.517 179.032 124.282 157.103 137.1 143.246C149.96 129.345 170.105 125.233 188.399 120.373C206.41 115.588 225.087 111.708 243.436 114.997Z" fill="#FF9600"/><path opacity="0.08" d="M420.479 718.226C398.84 720.205 377.083 714.81 357.106 706.221C338.129 698.063 324.766 681.572 307.798 669.781C289.255 656.896 263.721 652.203 251.776 633.032C239.871 613.923 241.326 589.132 243.6 566.745C245.755 545.539 255.363 526.313 264.569 507.101C273.408 488.656 282.862 470.642 296.815 455.697C311.139 440.354 327.896 427.52 346.994 418.815C366.818 409.779 388.163 403.832 409.957 404.127C432.244 404.429 455.3 408.449 474.051 420.535C492.506 432.431 500.861 454.421 514.584 471.57C528.481 488.936 551.654 501.139 556.006 522.948C560.382 544.878 541.484 564.634 537.545 586.635C533.611 608.603 543.034 632.887 532.775 652.695C522.482 672.567 500.818 683.568 481.499 694.842C462.478 705.942 442.415 716.219 420.479 718.226Z" fill="#FF9600"/><rect opacity="0.1" x="482.57" y="-2.22949" width="49.9251" height="49.9251" rx="14.2753" transform="rotate(64.3822 482.57 -2.22949)" fill="#FF9600"/><rect opacity="0.1" x="598.051" y="650.351" width="56.6767" height="56.6767" rx="16.2058" transform="rotate(46.3973 598.051 650.351)" fill="#FF9600"/><rect opacity="0.1" x="-0.046875" y="731.979" width="12.9464" height="12.9464" rx="3.09614" transform="rotate(-12.6519 -0.046875 731.979)" fill="#FF9600"/><rect opacity="0.1" x="798" y="655.347" width="16.2717" height="16.2717" rx="3.89139" transform="rotate(-26.8493 798 655.347)" fill="#FF9600"/><rect opacity="0.1" x="766.598" y="512.065" width="16.2717" height="16.2717" rx="3.89139" transform="rotate(5.39677 766.598 512.065)" fill="#FF9600"/><rect opacity="0.15" x="619.918" y="15.9385" width="24.692" height="24.692" rx="7.06031" transform="rotate(104.114 619.918 15.9385)" fill="#FF9600"/><rect opacity="0.15" x="789.184" y="167.147" width="24.692" height="24.692" rx="7.06031" transform="rotate(76.7925 789.184 167.147)" fill="#FF9600"/><rect opacity="0.1" x="247.039" y="670.999" width="24.692" height="24.692" rx="7.06031" transform="rotate(76.7925 247.039 670.999)" fill="#FF9600"/><rect opacity="0.2" x="660.301" y="15.54" width="16.2192" height="16.2192" rx="4.63763" transform="rotate(137.394 660.301 15.54)" fill="#FF9600"/><rect opacity="0.2" x="800.684" y="149.14" width="16.2192" height="16.2192" rx="4.63763" transform="rotate(137.394 800.684 149.14)" fill="#FF9600"/><path opacity="0.5" d="M624.996 327.5C486.495 448.502 744.994 390.003 730.495 491.002C724.336 525.487 694.476 557.697 660.999 579.458" stroke="#FF9600" stroke-width="1.78712" stroke-linecap="round" stroke-dasharray="4.47 8.04"/><path opacity="0.5" d="M234.317 532.649C189 571.5 150 685.003 275.502 603.503C298.051 589.409 311.196 604.503 297.697 630.503" stroke="#FF9600" stroke-width="1.78712" stroke-linecap="round" stroke-dasharray="4.47 8.04"/><path d="M608.478 50.6874L613.104 52.0672C625.575 55.7866 639.076 53.1935 649.282 45.1188C665.734 32.1015 689.456 34.0412 703.575 49.5584L760.194 111.784C770.733 123.366 769.533 141.388 757.551 151.47L755.087 153.544C745.663 161.473 743.762 175.244 750.683 185.431C758.451 196.863 754.996 212.476 743.13 219.562L727.345 228.989C708.193 240.427 701.56 264.99 712.349 284.514L713.035 285.754C724.952 307.32 716.263 334.469 694.038 345.107L670.522 356.362C640.354 370.802 625.331 405.174 635.225 437.123L635.973 439.538C650.502 486.456 613.699 533.444 564.667 530.579L561.877 530.416C532.015 528.671 504.321 546.021 492.864 573.653C476.201 613.84 427.397 629.385 390.561 606.239L337.582 572.948C322.294 563.341 303.131 562.307 286.899 570.213L253.715 586.374C208.008 608.633 154.174 578.204 149.672 527.564C148.065 509.482 135.406 494.296 117.909 489.458L92.7229 482.495C47.4614 469.981 37.8922 410.048 77.0068 384.063L95.295 371.913C109.92 362.197 116.338 343.967 111.026 327.231C105.214 308.926 117.008 289.728 135.964 286.637L156.525 283.285C177.679 279.836 194.206 263.159 197.465 241.976L198.695 233.984C202.974 206.168 225.839 184.958 253.898 182.776L259.706 182.324C282.378 180.56 302.665 167.574 313.759 147.722L325.319 127.036C341.899 97.3654 375.417 81.411 408.9 87.251L486.371 100.763C510.116 104.905 534.195 95.5118 548.863 76.3859L555.375 67.8943C567.794 51.7005 588.921 44.8547 608.478 50.6874Z" fill="#083156"/><path d="M539.446 554.221L541.342 553.108C560.984 541.583 583.049 559.906 566.709 575.769C562.751 579.613 558.307 583.103 553.298 586.274C539.709 594.877 525.475 580.323 530.614 565.082C532.154 560.516 535.29 556.659 539.446 554.221Z" fill="#083156"/><path opacity="0.12" d="M530.613 565.082C532.153 560.516 535.289 556.659 539.445 554.221L541.342 553.108C549.66 548.227 558.413 548.7 564.499 552.071" stroke="#001836" stroke-width="12" stroke-linecap="round"/><path d="M315.353 588.396L318.292 589.335C348.735 599.055 350.267 639.273 318.387 637.066C310.663 636.532 302.853 635.16 294.847 632.898C273.129 626.763 274.996 598.257 295.732 589.347C301.944 586.677 308.911 586.34 315.353 588.396Z" fill="#083156"/><path opacity="0.12" d="M332.297 597.502C328.658 594.033 323.98 591.153 318.293 589.338L315.354 588.399C308.913 586.342 301.945 586.68 295.733 589.35C292.394 590.784 289.545 592.727 287.205 595.002" stroke="#001836" stroke-width="13" stroke-linecap="round"/><path d="M199.865 149.47L229.947 140.521C252.85 133.708 270.328 115.117 275.715 91.8367L278.072 81.6537C279.893 73.7821 277.528 65.5275 271.815 59.8144C264.847 52.8461 254.613 50.2708 245.177 53.1109L220.422 60.5614C212.974 62.8029 205.03 62.7886 197.591 60.5205L163.229 50.0445C144.152 44.2282 124.366 56.7356 121.436 76.4635L120.984 79.5089C120.032 85.9175 116.63 91.7066 111.495 95.6569L102.914 102.258C89.1651 112.834 94.3367 134.686 111.367 137.978C120.529 139.748 127.273 147.584 127.66 156.907L127.866 161.874C128.99 188.956 165.3 196.98 177.732 172.894L182.323 163.999C185.95 156.971 192.284 151.725 199.865 149.47Z" fill="#083156"/><path opacity="0.12" d="M121.133 78.499L121.43 76.499V76.499C124.363 56.7524 144.167 44.2332 163.263 50.0549L197.59 60.5205C205.029 62.7886 212.974 62.8029 220.421 60.5614L244.926 53.1862C254.516 50.2997 264.917 52.917 271.999 59.999V59.999L273.999 61.999" stroke="#001836" stroke-width="14" stroke-linecap="round"/><path opacity="0.14" d="M549.5 76.499L547.919 78.499V78.499C533.798 96.3668 511.022 105.061 488.586 101.148L408.9 87.2491C375.417 81.409 341.899 97.3635 325.319 127.034L313.759 147.721C302.665 167.572 282.378 180.559 259.706 182.322L253.898 182.774C225.839 184.956 202.974 206.166 198.695 233.983V233.983C194.703 259.931 174.457 280.359 148.545 284.584L146 284.999" stroke="#001836" stroke-width="20" stroke-linecap="round"/><path d="M699.729 379.475L713.202 372.346C725.03 366.087 736.707 380.913 727.851 390.945C716.497 403.807 717.37 423.349 729.824 435.148L736.24 441.226C747.703 452.086 751.913 468.564 747.062 483.592L738.778 509.256C733.252 526.377 739.432 545.106 754.063 555.574C772.559 568.809 776.891 594.498 763.758 613.066L756.641 623.127C739.743 647.018 711.786 660.591 682.561 659.092L677.344 658.824C655.01 657.679 640.339 635.02 648.432 614.173L657.835 589.953C661.352 580.895 654.93 571.061 645.223 570.639C632.133 570.07 626.74 553.581 636.965 545.387L661.894 525.409C673.49 516.117 679.564 501.565 678.015 486.785L672.183 431.138C669.958 409.909 680.862 389.458 699.729 379.475Z" fill="#083156"/><path opacity="0.12" d="M638.5 542.499L644 539.999L654.26 533.635C672.062 522.594 681.752 502.153 679.032 481.382L672.305 430.011C669.213 406.396 683.074 383.84 705.539 375.932V375.932C707.301 375.312 709.015 374.562 710.666 373.688L712.5 372.718" stroke="#001836" stroke-width="14" stroke-linecap="round"/><path d="M711.362 470.522V489.191" stroke="white" stroke-width="0.839305" stroke-linecap="round"/><path d="M703.401 479.858L717.254 479.858" stroke="white" stroke-width="0.839305" stroke-linecap="round"/><path d="M708.73 484.385L714.63 475.059" stroke="white" stroke-width="1.67861" stroke-linecap="round"/><circle r="2.43281" transform="matrix(-1 0 0 1 692.429 518.432)" fill="white"/><circle r="2.43281" transform="matrix(-1 0 0 1 732.433 590.432)" fill="white"/><circle r="2.43281" transform="matrix(-1 0 0 1 182.382 140.432)" fill="white"/><circle r="2.43281" transform="matrix(-1 0 0 1 132.386 90.4318)" fill="white"/><circle r="1.07839" transform="matrix(-1 0 0 1 707.072 525.077)" fill="white"/><circle opacity="0.5" r="1.07839" transform="matrix(-1 0 0 1 697.072 605.077)" fill="white"/><circle r="1.07839" transform="matrix(-1 0 0 1 706.068 615.077)" fill="white"/><circle opacity="0.5" r="1.07839" transform="matrix(-1 0 0 1 156.018 165.077)" fill="white"/><circle opacity="0.5" r="1.07839" transform="matrix(-1 0 0 1 144.018 97.0774)" fill="white"/><circle r="1.07839" transform="matrix(-1 0 0 1 243.018 99.0774)" fill="white"/><circle opacity="0.5" r="1.07839" transform="matrix(-1 0 0 1 213.018 79.0774)" fill="white"/><circle r="1.07839" transform="matrix(-1 0 0 1 665.061 565.077)" fill="white"/><circle r="1.07839" transform="matrix(-1 0 0 1 694.049 422.077)" fill="white"/><circle opacity="0.5" r="1.07839" transform="matrix(-1 0 0 1 733.037 459.077)" fill="white"/><path d="M667.002 29.501C662.452 33.001 652.502 31.001 647.502 36.501C642.502 42.001 637.503 53.7529 625.502 53.7529C617.259 53.7529 627.888 72.0335 635.353 83.4822C639.313 89.5565 644.297 94.8725 649.826 99.5641L691.002 134.501L754.002 192.501L752.346 186.629C749.991 178.281 752.57 169.32 759.002 163.501C772.502 154.001 769.484 142.65 775.002 137.501C782.502 130.501 789.978 130.708 793.002 122.501C796.502 113.001 791.002 108.001 793.002 101.501C795.002 95.0009 802.502 90.5009 802.502 82.0009C802.502 73.5009 792.075 67.9041 791.002 62.0009C790.002 56.5009 795.002 49.0001 791.002 41.0009C786.751 32.5009 777.002 34.5009 773.502 30.5016C769.482 25.9087 768.002 15.5018 762.002 11.5009C756.002 7.4999 744.002 12.0016 739.502 10.5006C735.002 8.99967 728.002 1.0007 720.002 0.500699C712.002 0.000698686 706.002 10.5008 701.002 11.0008C693.502 11.7509 686.502 6.00098 678.002 9.50098C669.502 13.001 671.552 26.001 667.002 29.501Z" fill="#083156"/><path opacity="0.8" d="M691.684 142.856L701.992 141.206C702.659 141.101 703.34 141.137 703.991 141.311C704.643 141.486 705.251 141.795 705.776 142.219L713.873 148.802C715.58 150.192 717.714 150.952 719.915 150.952C722.117 150.952 724.251 150.192 725.957 148.802L734.055 142.219C734.581 141.794 735.19 141.484 735.844 141.309C736.497 141.135 737.18 141.1 737.848 141.206L748.156 142.856C750.33 143.207 752.559 142.798 754.466 141.697C756.374 140.597 757.844 138.872 758.628 136.814L762.344 127.057C762.585 126.428 762.955 125.856 763.431 125.379C763.906 124.902 764.476 124.53 765.104 124.287L774.862 120.571C776.921 119.788 778.646 118.318 779.747 116.41C780.848 114.502 781.257 112.273 780.904 110.099" stroke="#001836" stroke-width="18" stroke-linecap="round"/><path d="M677.665 127.226L681.381 136.984C682.165 139.041 683.635 140.766 685.543 141.866C687.45 142.967 689.679 143.376 691.853 143.025L702.161 141.375C702.827 141.27 703.508 141.306 704.16 141.481C704.812 141.655 705.42 141.964 705.944 142.388L714.042 148.971C715.749 150.361 717.883 151.121 720.084 151.121C722.285 151.121 724.419 150.361 726.126 148.971L734.224 142.388C734.75 141.963 735.359 141.653 736.012 141.479C736.666 141.304 737.349 141.269 738.017 141.375L748.325 143.025C750.499 143.376 752.727 142.967 754.635 141.866C756.542 140.766 758.012 139.041 758.797 136.984L762.513 127.226C762.754 126.597 763.124 126.026 763.6 125.549C764.075 125.072 764.645 124.699 765.273 124.456L775.031 120.74C777.09 119.957 778.815 118.487 779.916 116.579C781.017 114.672 781.425 112.442 781.073 110.268L779.422 99.9599C779.311 99.2968 779.339 98.6177 779.505 97.9662C779.671 97.3146 779.972 96.705 780.387 96.1764L787.018 88.0787C788.409 86.3721 789.168 84.2381 789.168 82.0368C789.168 79.8354 788.409 77.7014 787.018 75.9948L780.436 67.8971C780.02 67.3685 779.72 66.7589 779.553 66.1074C779.387 65.4558 779.359 64.7767 779.47 64.1137L781.073 53.8057C781.425 51.6314 781.017 49.402 779.916 47.494C778.815 45.5861 777.09 44.1166 775.031 43.3337L765.273 39.6082C764.643 39.3699 764.072 39.0006 763.596 38.5247C763.12 38.0488 762.751 37.4772 762.513 36.8478L758.787 27.09C758.004 25.0311 756.535 23.3054 754.627 22.2046C752.719 21.1038 750.489 20.6953 748.315 21.0481L738.017 22.6985C737.354 22.8101 736.675 22.7818 736.023 22.6156C735.371 22.4494 734.762 22.1489 734.233 21.7333L726.136 15.1509C724.429 13.7603 722.295 13.001 720.094 13.001C717.892 13.001 715.758 13.7603 714.052 15.1509L705.954 21.7333C705.425 22.1489 704.816 22.4494 704.164 22.6156C703.513 22.7818 702.834 22.8101 702.17 22.6985L691.863 21.0481C689.688 20.6953 687.459 21.1038 685.551 22.2046C683.643 23.3054 682.173 25.0311 681.391 27.09L677.675 36.8478C677.431 37.4757 677.059 38.0457 676.582 38.5211C676.105 38.9965 675.533 39.3668 674.905 39.6082L665.147 43.3337C663.089 44.1181 661.364 45.5879 660.264 47.4954C659.163 49.403 658.754 51.6316 659.105 53.8057L660.746 64.104C660.851 64.7705 660.815 65.4515 660.64 66.1032C660.465 66.7549 660.156 67.3627 659.732 67.8875L653.15 75.9852C651.759 77.6917 651 79.8257 651 82.0271C651 84.2285 651.759 86.3625 653.15 88.069L659.732 96.1668C660.156 96.6915 660.465 97.2994 660.64 97.951C660.815 98.6027 660.851 99.2838 660.746 99.9502L659.095 110.258C658.744 112.432 659.154 114.661 660.254 116.568C661.355 118.476 663.079 119.946 665.137 120.73L674.895 124.446C675.526 124.69 676.098 125.063 676.575 125.542C677.052 126.02 677.424 126.594 677.665 127.226V127.226Z" fill="#FFC100"/><path d="M677.665 127.226L681.381 136.984C682.165 139.041 683.635 140.766 685.543 141.866C687.45 142.967 689.679 143.376 691.853 143.025L702.161 141.375C702.827 141.27 703.508 141.306 704.16 141.481C704.812 141.655 705.42 141.964 705.944 142.388L714.042 148.971C715.749 150.361 717.883 151.121 720.084 151.121C722.285 151.121 724.419 150.361 726.126 148.971L734.224 142.388C734.75 141.963 735.359 141.653 736.012 141.479C736.666 141.304 737.349 141.269 738.017 141.375L748.325 143.025C750.499 143.376 752.727 142.967 754.635 141.866C756.542 140.766 758.012 139.041 758.797 136.984L762.513 127.226C762.754 126.597 763.124 126.026 763.6 125.549C764.075 125.072 764.645 124.699 765.273 124.456L775.031 120.74C777.09 119.957 778.815 118.487 779.916 116.579C781.017 114.672 781.425 112.442 781.073 110.268L779.422 99.9599C779.311 99.2968 779.339 98.6177 779.505 97.9662C779.671 97.3146 779.972 96.705 780.387 96.1764L787.018 88.0787C788.409 86.3721 789.168 84.2381 789.168 82.0368C789.168 79.8354 788.409 77.7014 787.018 75.9948L780.436 67.8971C780.02 67.3685 779.72 66.7589 779.553 66.1074C779.387 65.4558 779.359 64.7767 779.47 64.1137L781.073 53.8057C781.425 51.6314 781.017 49.402 779.916 47.494C778.815 45.5861 777.09 44.1166 775.031 43.3337L765.273 39.6082C764.643 39.3699 764.072 39.0006 763.596 38.5247C763.12 38.0488 762.751 37.4772 762.513 36.8478L758.787 27.09C758.004 25.0311 756.535 23.3054 754.627 22.2046C752.719 21.1038 750.489 20.6953 748.315 21.0481L738.017 22.6985C737.354 22.8101 736.675 22.7818 736.023 22.6156C735.371 22.4494 734.762 22.1489 734.233 21.7333L726.136 15.1509C724.429 13.7603 722.295 13.001 720.094 13.001C717.892 13.001 715.758 13.7603 714.052 15.1509L705.954 21.7333C705.425 22.1489 704.816 22.4494 704.164 22.6156C703.513 22.7818 702.834 22.8101 702.17 22.6985L691.863 21.0481C689.688 20.6953 687.459 21.1038 685.551 22.2046C683.643 23.3054 682.173 25.0311 681.391 27.09L677.675 36.8478C677.431 37.4757 677.059 38.0457 676.582 38.5211C676.105 38.9965 675.533 39.3668 674.905 39.6082L665.147 43.3337C663.089 44.1181 661.364 45.5879 660.264 47.4954C659.163 49.403 658.754 51.6316 659.105 53.8057L660.746 64.104C660.851 64.7705 660.815 65.4515 660.64 66.1032C660.465 66.7549 660.156 67.3627 659.732 67.8875L653.15 75.9852C651.759 77.6917 651 79.8257 651 82.0271C651 84.2285 651.759 86.3625 653.15 88.069L659.732 96.1668C660.156 96.6915 660.465 97.2994 660.64 97.951C660.815 98.6027 660.851 99.2838 660.746 99.9502L659.095 110.258C658.744 112.432 659.154 114.661 660.254 116.568C661.355 118.476 663.079 119.946 665.137 120.73L674.895 124.446C675.526 124.69 676.098 125.063 676.575 125.542C677.052 126.02 677.424 126.594 677.665 127.226V127.226Z" fill="#FFDFB8"/><path d="M677.665 127.226L681.381 136.984C682.165 139.041 683.635 140.766 685.543 141.866C687.45 142.967 689.679 143.376 691.853 143.025L702.161 141.375C702.827 141.27 703.508 141.306 704.16 141.481C704.812 141.655 705.42 141.964 705.944 142.388L714.042 148.971C715.749 150.361 717.883 151.121 720.084 151.121C722.285 151.121 724.419 150.361 726.126 148.971L734.224 142.388C734.75 141.963 735.359 141.653 736.012 141.479C736.666 141.304 737.349 141.269 738.017 141.375L748.325 143.025C750.499 143.376 752.727 142.967 754.635 141.866C756.542 140.766 758.012 139.041 758.797 136.984L762.513 127.226C762.754 126.597 763.124 126.026 763.6 125.549C764.075 125.072 764.645 124.699 765.273 124.456L775.031 120.74C777.09 119.957 778.815 118.487 779.916 116.579C781.017 114.672 781.425 112.442 781.073 110.268L779.422 99.9599C779.311 99.2968 779.339 98.6177 779.505 97.9662C779.671 97.3146 779.972 96.705 780.387 96.1764L787.018 88.0787C788.409 86.3721 789.168 84.2381 789.168 82.0368C789.168 79.8354 788.409 77.7014 787.018 75.9948L780.436 67.8971C780.02 67.3685 779.72 66.7589 779.553 66.1074C779.387 65.4558 779.359 64.7767 779.47 64.1137L781.073 53.8057C781.425 51.6314 781.017 49.402 779.916 47.494C778.815 45.5861 777.09 44.1166 775.031 43.3337L765.273 39.6082C764.643 39.3699 764.072 39.0006 763.596 38.5247C763.12 38.0488 762.751 37.4772 762.513 36.8478L758.787 27.09C758.004 25.0311 756.535 23.3054 754.627 22.2046C752.719 21.1038 750.489 20.6953 748.315 21.0481L738.017 22.6985C737.354 22.8101 736.675 22.7818 736.023 22.6156C735.371 22.4494 734.762 22.1489 734.233 21.7333L726.136 15.1509C724.429 13.7603 722.295 13.001 720.094 13.001C717.892 13.001 715.758 13.7603 714.052 15.1509L705.954 21.7333C705.425 22.1489 704.816 22.4494 704.164 22.6156C703.513 22.7818 702.834 22.8101 702.17 22.6985L691.863 21.0481C689.688 20.6953 687.459 21.1038 685.551 22.2046C683.643 23.3054 682.173 25.0311 681.391 27.09L677.675 36.8478C677.431 37.4757 677.059 38.0457 676.582 38.5211C676.105 38.9965 675.533 39.3668 674.905 39.6082L665.147 43.3337C663.089 44.1181 661.364 45.5879 660.264 47.4954C659.163 49.403 658.754 51.6316 659.105 53.8057L660.746 64.104C660.851 64.7705 660.815 65.4515 660.64 66.1032C660.465 66.7549 660.156 67.3627 659.732 67.8875L653.15 75.9852C651.759 77.6917 651 79.8257 651 82.0271C651 84.2285 651.759 86.3625 653.15 88.069L659.732 96.1668C660.156 96.6915 660.465 97.2994 660.64 97.951C660.815 98.6027 660.851 99.2838 660.746 99.9502L659.095 110.258C658.744 112.432 659.154 114.661 660.254 116.568C661.355 118.476 663.079 119.946 665.137 120.73L674.895 124.446C675.526 124.69 676.098 125.063 676.575 125.542C677.052 126.02 677.424 126.594 677.665 127.226V127.226Z" fill="#FDDF8C"/><path d="M695.325 71.2905C692.796 76.911 692.304 83.2374 693.935 89.1812C695.566 95.125 699.217 100.315 704.261 103.857C709.305 107.399 715.426 109.073 721.57 108.59C727.715 108.107 733.499 105.497 737.927 101.211C742.605 102.92 747.698 103.132 752.501 101.816C757.304 100.5 761.578 97.721 764.73 93.8657C765.042 93.481 765.258 93.0281 765.361 92.5439C765.464 92.0597 765.451 91.5579 765.323 91.0797C765.195 90.6015 764.956 90.1604 764.624 89.7924C764.293 89.4245 763.88 89.1401 763.417 88.9626L750.59 84.0017L757.105 74.7072C757.95 73.4978 758.482 72.0983 758.655 70.6334C758.828 69.1685 758.636 67.6835 758.096 66.3107C757.557 64.9379 756.686 63.7199 755.561 62.765C754.437 61.8102 753.094 61.1481 751.652 60.8377C744.317 59.2742 739.6 57.7589 737.503 56.2918C735.405 54.8248 732.42 50.9641 728.546 44.7099C727.765 43.4552 726.684 42.4138 725.402 41.6792C724.119 40.9445 722.674 40.5394 721.197 40.5002C719.719 40.461 718.255 40.7889 716.935 41.4545C715.615 42.1201 714.481 43.1026 713.634 44.3141L707.158 53.5411L698.259 43.3007C697.935 42.9265 697.527 42.6343 697.068 42.448C696.609 42.2618 696.113 42.1868 695.62 42.2291C695.127 42.2715 694.65 42.43 694.23 42.6918C693.81 42.9535 693.457 43.311 693.202 43.735C690.669 47.9857 689.513 52.916 689.893 57.8495C690.274 62.783 692.171 67.478 695.325 71.2905ZM718.315 115.225L725.197 114.26C726.355 114.092 727.533 114.391 728.47 115.092C729.408 115.792 730.029 116.836 730.196 117.995C730.364 119.153 730.065 120.331 729.364 121.268C728.664 122.206 727.62 122.827 726.461 122.994L719.58 123.959C718.42 124.121 717.244 123.815 716.31 123.109C715.376 122.403 714.761 121.355 714.599 120.195C714.438 119.036 714.744 117.86 715.45 116.926C716.156 115.992 717.204 115.376 718.364 115.215L718.315 115.225ZM685.467 84.9513C686.448 85.5864 687.136 86.5848 687.382 87.7272L688.82 94.5702C688.96 95.1443 688.982 95.7407 688.887 96.3238C688.792 96.9069 688.58 97.4649 688.265 97.9647C687.95 98.4645 687.538 98.8959 687.053 99.2333C686.568 99.5707 686.02 99.8072 685.442 99.9288C684.864 100.05 684.267 100.055 683.687 99.9411C683.107 99.8276 682.556 99.5988 682.066 99.2683C681.577 98.9377 681.158 98.5121 680.836 98.0168C680.514 97.5215 680.295 96.9665 680.191 96.3847L678.753 89.6286C678.507 88.4806 678.726 87.2817 679.363 86.2954C680.694 84.2355 683.363 83.5886 685.467 84.9513Z" fill="white" stroke="#F1D081" stroke-width="3"/><path opacity="0.7" d="M756 29.2389C755.263 27.3044 753.879 25.683 752.082 24.6487C750.285 23.6144 748.185 23.2305 746.137 23.562L736.439 25.1127C735.814 25.2176 735.175 25.191 734.561 25.0349C733.947 24.8787 733.373 24.5963 732.875 24.2058L725.249 18.021C723.642 16.7145 721.632 16.001 719.559 16.001C717.486 16.001 715.476 16.7145 713.868 18.021L706.242 24.2058C705.744 24.5963 705.17 24.8787 704.557 25.0349C703.943 25.191 703.303 25.2176 702.679 25.1127L692.971 23.562C690.923 23.2305 688.823 23.6144 687.027 24.6487C685.23 25.683 683.846 27.3044 683.108 29.2389L679.609 38.4073C679.379 38.9973 679.029 39.5329 678.58 39.9796C678.13 40.4263 677.592 40.7742 677 41.001" stroke="#FFFAED" stroke-width="8" stroke-linecap="round"/><path d="M677.497 127.058L681.213 136.816C681.997 138.873 683.467 140.598 685.375 141.698C687.282 142.799 689.511 143.208 691.685 142.858L701.993 141.207C702.659 141.102 703.34 141.138 703.992 141.313C704.644 141.487 705.252 141.796 705.776 142.22L713.874 148.803C715.581 150.193 717.715 150.953 719.916 150.953C722.117 150.953 724.251 150.193 725.958 148.803L734.056 142.22C734.582 141.795 735.191 141.485 735.844 141.311C736.498 141.136 737.181 141.101 737.849 141.207L748.157 142.858C750.331 143.208 752.559 142.799 754.467 141.698C756.374 140.598 757.844 138.873 758.629 136.816L762.345 127.058C762.586 126.429 762.956 125.858 763.432 125.381C763.907 124.904 764.477 124.531 765.105 124.288L774.863 120.572C776.922 119.789 778.647 118.319 779.748 116.412C780.849 114.504 781.257 112.274 780.905 110.1L779.254 99.7919C779.143 99.1288 779.171 98.4497 779.337 97.7982C779.503 97.1466 779.804 96.537 780.219 96.0084L786.85 87.9107C788.241 86.2042 789 84.0702 789 81.8688C789 79.6674 788.241 77.5334 786.85 75.8269L780.268 67.7291C779.852 67.2005 779.552 66.5909 779.385 65.9394C779.219 65.2879 779.191 64.6088 779.302 63.9457L780.905 53.6377C781.257 51.4634 780.849 49.234 779.748 47.3261C778.647 45.4181 776.922 43.9486 774.863 43.1657L765.105 39.4402C764.475 39.202 763.904 38.8327 763.428 38.3568C762.952 37.8809 762.583 37.3093 762.345 36.6798L758.619 26.922C757.836 24.8631 756.367 23.1375 754.459 22.0367C752.551 20.9359 750.321 20.5273 748.147 20.8801L737.849 22.5305C737.186 22.6421 736.507 22.6139 735.855 22.4477C735.203 22.2815 734.594 21.9809 734.065 21.5653L725.968 14.9829C724.261 13.5924 722.127 12.833 719.926 12.833C717.724 12.833 715.59 13.5924 713.884 14.9829L705.786 21.5653C705.257 21.9809 704.648 22.2815 703.996 22.4477C703.345 22.6139 702.666 22.6421 702.003 22.5305L691.695 20.8801C689.52 20.5273 687.291 20.9359 685.383 22.0367C683.475 23.1375 682.005 24.8631 681.223 26.922L677.507 36.6798C677.263 37.3077 676.891 37.8777 676.414 38.3532C675.937 38.8286 675.365 39.1988 674.737 39.4402L664.979 43.1657C662.921 43.9501 661.196 45.4199 660.096 47.3275C658.995 49.235 658.586 51.4636 658.937 53.6377L660.578 63.936C660.683 64.6025 660.647 65.2835 660.472 65.9352C660.298 66.5869 659.988 67.1947 659.564 67.7195L652.982 75.8172C651.591 77.5238 650.832 79.6578 650.832 81.8591C650.832 84.0605 651.591 86.1945 652.982 87.9011L659.564 95.9988C659.988 96.5236 660.298 97.1314 660.472 97.7831C660.647 98.4347 660.683 99.1158 660.578 99.7822L658.927 110.09C658.576 112.264 658.986 114.493 660.086 116.4C661.187 118.308 662.911 119.778 664.969 120.562L674.727 124.278C675.358 124.522 675.93 124.895 676.407 125.374C676.884 125.853 677.256 126.426 677.497 127.058V127.058Z" stroke="#FFC100" stroke-width="3"/><path d="M677.497 127.058L681.213 136.816C681.997 138.873 683.467 140.598 685.375 141.698C687.282 142.799 689.511 143.208 691.685 142.858L701.993 141.207C702.659 141.102 703.34 141.138 703.992 141.313C704.644 141.487 705.252 141.796 705.776 142.22L713.874 148.803C715.581 150.193 717.715 150.953 719.916 150.953C722.117 150.953 724.251 150.193 725.958 148.803L734.056 142.22C734.582 141.795 735.191 141.485 735.844 141.311C736.498 141.136 737.181 141.101 737.849 141.207L748.157 142.858C750.331 143.208 752.559 142.799 754.467 141.698C756.374 140.598 757.844 138.873 758.629 136.816L762.345 127.058C762.586 126.429 762.956 125.858 763.432 125.381C763.907 124.904 764.477 124.531 765.105 124.288L774.863 120.572C776.922 119.789 778.647 118.319 779.748 116.412C780.849 114.504 781.257 112.274 780.905 110.1L779.254 99.7919C779.143 99.1288 779.171 98.4497 779.337 97.7982C779.503 97.1466 779.804 96.537 780.219 96.0084L786.85 87.9107C788.241 86.2042 789 84.0702 789 81.8688C789 79.6674 788.241 77.5334 786.85 75.8269L780.268 67.7291C779.852 67.2005 779.552 66.5909 779.385 65.9394C779.219 65.2879 779.191 64.6088 779.302 63.9457L780.905 53.6377C781.257 51.4634 780.849 49.234 779.748 47.3261C778.647 45.4181 776.922 43.9486 774.863 43.1657L765.105 39.4402C764.475 39.202 763.904 38.8327 763.428 38.3568C762.952 37.8809 762.583 37.3093 762.345 36.6798L758.619 26.922C757.836 24.8631 756.367 23.1375 754.459 22.0367C752.551 20.9359 750.321 20.5273 748.147 20.8801L737.849 22.5305C737.186 22.6421 736.507 22.6139 735.855 22.4477C735.203 22.2815 734.594 21.9809 734.065 21.5653L725.968 14.9829C724.261 13.5924 722.127 12.833 719.926 12.833C717.724 12.833 715.59 13.5924 713.884 14.9829L705.786 21.5653C705.257 21.9809 704.648 22.2815 703.996 22.4477C703.345 22.6139 702.666 22.6421 702.003 22.5305L691.695 20.8801C689.52 20.5273 687.291 20.9359 685.383 22.0367C683.475 23.1375 682.005 24.8631 681.223 26.922L677.507 36.6798C677.263 37.3077 676.891 37.8777 676.414 38.3532C675.937 38.8286 675.365 39.1988 674.737 39.4402L664.979 43.1657C662.921 43.9501 661.196 45.4199 660.096 47.3275C658.995 49.235 658.586 51.4636 658.937 53.6377L660.578 63.936C660.683 64.6025 660.647 65.2835 660.472 65.9352C660.298 66.5869 659.988 67.1947 659.564 67.7195L652.982 75.8172C651.591 77.5238 650.832 79.6578 650.832 81.8591C650.832 84.0605 651.591 86.1945 652.982 87.9011L659.564 95.9988C659.988 96.5236 660.298 97.1314 660.472 97.7831C660.647 98.4347 660.683 99.1158 660.578 99.7822L658.927 110.09C658.576 112.264 658.986 114.493 660.086 116.4C661.187 118.308 662.911 119.778 664.969 120.562L674.727 124.278C675.358 124.522 675.93 124.895 676.407 125.374C676.884 125.853 677.256 126.426 677.497 127.058V127.058Z" stroke="#C7790B" stroke-opacity="0.4" stroke-width="3"/><path opacity="0.14" d="M691.684 142.856L701.992 141.206C702.659 141.101 703.34 141.137 703.991 141.311C704.643 141.486 705.251 141.795 705.776 142.219L713.873 148.802C715.58 150.192 717.714 150.952 719.915 150.952C722.117 150.952 724.251 150.192 725.957 148.802L734.055 142.219C734.581 141.794 735.19 141.484 735.844 141.309C736.497 141.135 737.18 141.1 737.848 141.206L748.156 142.856C750.33 143.207 752.559 142.798 754.466 141.697C756.374 140.597 757.844 138.872 758.628 136.814L762.344 127.057C762.585 126.428 762.955 125.856 763.431 125.379C763.906 124.902 764.476 124.53 765.104 124.287L774.862 120.571C776.921 119.788 778.646 118.318 779.747 116.41C780.848 114.502 781.257 112.273 780.904 110.099" stroke="#001836" stroke-width="18" stroke-linecap="round"/><path d="M120.172 507.894L86.4566 467.575C83.5224 464.066 85.4361 458.696 89.928 457.834L194.075 437.838C197.877 437.108 200.395 441.664 197.754 444.494L138.152 508.382C133.23 513.658 124.8 513.429 120.172 507.894Z" fill="white"/><path opacity="0.2" d="M137.062 500.17C135.892 501.343 135.894 503.243 137.067 504.413C138.239 505.583 140.139 505.581 141.309 504.409L137.062 500.17ZM194.776 450.834C195.947 449.661 195.945 447.762 194.772 446.591C193.599 445.421 191.7 445.423 190.529 446.595L194.776 450.834ZM141.309 504.409L194.776 450.834L190.529 446.595L137.062 500.17L141.309 504.409Z" fill="#083156"/><path d="M120.172 507.894L86.4566 467.575C83.5224 464.066 85.4361 458.696 89.928 457.834L194.075 437.838C197.877 437.108 200.395 441.664 197.754 444.494L138.152 508.382C133.23 513.658 124.8 513.429 120.172 507.894Z" stroke="#083156" stroke-width="2" stroke-linecap="round" stroke-linejoin="round"/><path d="M97.2812 497.907L95.418 478.501L195.898 438.707C196.221 438.579 196.588 438.628 196.866 438.837L198.08 439.748C198.232 439.862 198.207 440.097 198.034 440.175L100.418 484.501L97.2812 497.907Z" fill="white"/><path d="M97.2812 497.907L95.418 478.501L195.898 438.707C196.221 438.579 196.588 438.628 196.866 438.837L198.08 439.748C198.232 439.862 198.207 440.097 198.034 440.175L100.418 484.501L97.2812 497.907Z" fill="#3C5D87" fill-opacity="0.2"/><path d="M97.2812 497.907L95.418 478.501L195.898 438.707C196.221 438.579 196.588 438.628 196.866 438.837L198.08 439.748C198.232 439.862 198.207 440.097 198.034 440.175L100.418 484.501L97.2812 497.907Z" stroke="#083156" stroke-width="2" stroke-linecap="round" stroke-linejoin="round"/><path d="M109.699 495.595L100.036 499.528C98.5258 500.143 96.9541 498.789 97.3383 497.205L100.418 484.501L109.699 495.595Z" fill="white"/><path d="M109.699 495.595L100.036 499.528C98.5258 500.143 96.9541 498.789 97.3383 497.205L100.418 484.501L109.699 495.595Z" fill="#3C5D87" fill-opacity="0.15"/><path d="M109.699 495.595L100.036 499.528C98.5258 500.143 96.9541 498.789 97.3383 497.205L100.418 484.501L109.699 495.595Z" stroke="#083156" stroke-width="2" stroke-linecap="round" stroke-linejoin="round"/><path opacity="0.2" d="M103.629 487.974C102.51 486.752 100.612 486.67 99.3908 487.79C98.1694 488.909 98.0869 490.807 99.2065 492.028L103.629 487.974ZM104.707 498.028C105.826 499.25 107.724 499.332 108.945 498.212C110.166 497.093 110.249 495.195 109.129 493.974L104.707 498.028ZM99.2065 492.028L104.707 498.028L109.129 493.974L103.629 487.974L99.2065 492.028Z" fill="#083156"/><path opacity="0.2" d="M99.1041 481.671C98.0948 482.12 97.6402 483.302 98.0887 484.311C98.5373 485.32 99.7192 485.775 100.729 485.326L99.1041 481.671ZM190.73 445.328C191.74 444.88 192.194 443.698 191.746 442.688C191.297 441.679 190.115 441.224 189.106 441.673L190.73 445.328ZM100.729 485.326L190.73 445.328L189.106 441.673L99.1041 481.671L100.729 485.326Z" fill="#083156"/><path opacity="0.3" d="M361.639 524.472L356.432 520.564C355.927 520.185 356.015 519.402 356.592 519.144L366.599 514.674C367.331 514.347 368.055 515.147 367.656 515.843L362.856 524.222C362.608 524.654 362.038 524.772 361.639 524.472Z" fill="white"/><g opacity="0.3"><path opacity="0.6" d="M389.852 201.367L385.001 195.566C384.18 194.585 384.716 193.082 385.972 192.841L398.475 190.44C400.07 190.134 401.127 192.046 400.019 193.234L392.367 201.436C391.679 202.174 390.5 202.142 389.852 201.367Z" fill="white"/></g><g opacity="0.7"><path opacity="0.3" d="M230.395 246.469L225.544 240.668C224.723 239.686 225.259 238.184 226.515 237.942L239.018 235.542C240.613 235.236 241.67 237.148 240.562 238.336L232.91 246.537C232.222 247.275 231.043 247.243 230.395 246.469Z" fill="white"/><path opacity="0.3" d="M727.226 566.579L719.948 568.633C718.717 568.981 717.565 567.878 717.858 566.633L720.781 554.242C721.154 552.661 723.331 552.478 723.962 553.975L728.317 564.312C728.709 565.242 728.197 566.305 727.226 566.579Z" fill="white"/><path opacity="0.3" d="M672.934 626.854L667.871 627.193C666.594 627.279 665.695 625.962 666.239 624.804L669.877 617.073C670.568 615.603 672.736 615.875 673.044 617.469L674.47 624.861C674.661 625.852 673.941 626.786 672.934 626.854Z" fill="white"/></g><g opacity="0.6"><path opacity="0.3" d="M309.946 329.07L305.095 323.269C304.274 322.288 304.809 320.785 306.066 320.544L318.569 318.144C320.164 317.837 321.221 319.749 320.113 320.937L312.461 329.139C311.773 329.877 310.593 329.845 309.946 329.07Z" fill="white"/></g><g opacity="0.5"><path opacity="0.6" d="M186.602 425.086L181.751 419.285C180.93 418.303 181.466 416.801 182.722 416.56L195.225 414.159C196.82 413.853 197.877 415.765 196.769 416.953L189.117 425.154C188.429 425.892 187.25 425.86 186.602 425.086Z" fill="white"/><path opacity="0.6" d="M357.666 456.115L351.871 451.256C350.891 450.433 351.154 448.86 352.349 448.402L364.236 443.844C365.752 443.262 367.128 444.959 366.246 446.323L360.154 455.741C359.605 456.588 358.439 456.763 357.666 456.115Z" fill="white"/></g><path opacity="0.3" d="M597.816 105.279L595.904 101.278C595.353 100.123 596.244 98.8007 597.521 98.8787L604.973 99.3341C606.594 99.4332 607.144 101.548 605.775 102.423L600.235 105.969C599.385 106.513 598.251 106.19 597.816 105.279Z" fill="white"/><g opacity="0.8"><path opacity="0.3" d="M571.731 337.747L566.407 334.351C565.506 333.776 565.554 332.445 566.493 331.936L575.843 326.874C577.036 326.228 578.359 327.485 577.776 328.709L573.751 337.168C573.389 337.929 572.442 338.2 571.731 337.747Z" fill="white"/></g><g opacity="0.7"><path opacity="0.4" d="M656.662 215.368L651.765 212.28C650.936 211.757 650.973 210.537 651.832 210.066L660.379 205.38C661.47 204.783 662.689 205.928 662.161 207.054L658.511 214.827C658.182 215.526 657.315 215.78 656.662 215.368Z" fill="white"/></g><path d="M350.66 166.478V197.537" stroke="white" stroke-width="0.839305" stroke-linecap="round"/><path d="M337.418 182.009L360.467 182.009" stroke="white" stroke-width="0.839305" stroke-linecap="round"/><path d="M342.512 174.431L358.81 190.729" stroke="white" stroke-width="2.51792" stroke-linecap="round"/><path d="M345.422 190.614L355.238 175.1" stroke="white" stroke-width="1.67861" stroke-linecap="round"/><path d="M287.363 266.524V285.193" stroke="white" stroke-width="0.839305" stroke-linecap="round"/><path d="M279.402 275.86L293.256 275.86" stroke="white" stroke-width="0.839305" stroke-linecap="round"/><path d="M284.732 280.387L290.632 271.061" stroke="white" stroke-width="1.67861" stroke-linecap="round"/><path d="M693.285 192.329V210.997" stroke="white" stroke-width="0.839305" stroke-linecap="round"/><path d="M685.324 201.657L699.178 201.657" stroke="white" stroke-width="1.67861" stroke-linecap="round"/><path d="M690.654 206.191L696.554 196.866" stroke="white" stroke-width="1.67861" stroke-linecap="round"/><path d="M392.348 418.915V437.583" stroke="white" stroke-width="0.839305" stroke-linecap="round"/><path d="M400.301 428.251L386.447 428.251" stroke="white" stroke-width="2.51792" stroke-linecap="round"/><path d="M394.979 432.777L389.079 423.452" stroke="white" stroke-width="1.67861" stroke-linecap="round"/><path d="M395.957 424.241L388.096 431.985" stroke="white" stroke-width="0.839305" stroke-linecap="round"/><path d="M162.348 108.915V127.583" stroke="white" stroke-width="0.839305" stroke-linecap="round"/><path d="M170.301 118.251L156.447 118.251" stroke="white" stroke-width="2.51792" stroke-linecap="round"/><path d="M164.979 122.777L159.079 113.452" stroke="white" stroke-width="1.67861" stroke-linecap="round"/><path d="M165.957 114.241L158.096 121.985" stroke="white" stroke-width="0.839305" stroke-linecap="round"/><circle r="2.43281" transform="matrix(-1 0 0 1 358.477 120.403)" fill="white"/><circle r="2.43281" transform="matrix(-1 0 0 1 394.356 100.137)" fill="white"/><circle r="2.43281" transform="matrix(-1 0 0 1 621.805 127.473)" fill="white"/><circle r="2.43281" transform="matrix(-1 0 0 1 355.434 330.434)" fill="white"/><circle r="2.43281" transform="matrix(-1 0 0 1 536.688 406.856)" fill="white"/><circle r="2.43281" transform="matrix(-1 0 0 1 237.434 461.434)" fill="white"/><circle r="2.43281" transform="matrix(-1 0 0 1 423.434 529.434)" fill="white"/><circle r="2.43281" transform="matrix(-1 0 0 1 192.434 301.434)" fill="white"/><circle r="2.43281" transform="matrix(-1 0 0 1 636.423 70.9338)" fill="white"/><circle r="1.07839" transform="matrix(-1 0 0 1 605.73 70.9153)" fill="white"/><circle opacity="0.4" r="1.07839" transform="matrix(-1 0 0 1 634.492 138.017)" fill="white"/><circle r="1.07839" transform="matrix(-1 0 0 1 624.195 142.282)" fill="white"/><circle r="1.07839" transform="matrix(-1 0 0 1 625.261 138.017)" fill="white"/><circle r="1.07839" transform="matrix(-1 0 0 1 646.918 135.532)" fill="white"/><circle r="1.07839" transform="matrix(-1 0 0 1 646.918 152.579)" fill="white"/><circle opacity="0.4" r="1.07839" transform="matrix(-1 0 0 1 641.711 265.493)" fill="white"/><circle opacity="0.4" r="1.07839" transform="matrix(-1 0 0 1 688.465 278.626)" fill="white"/><circle r="1.07839" transform="matrix(-1 0 0 1 627.922 205.314)" fill="white"/><circle r="1.07839" transform="matrix(-1 0 0 1 688.754 331.954)" fill="white"/><circle opacity="0.4" r="1.07839" transform="matrix(-1 0 0 1 418.078 536.079)" fill="white"/><circle opacity="0.4" r="1.07839" transform="matrix(-1 0 0 1 345.078 490.079)" fill="white"/><circle opacity="0.4" r="1.07839" transform="matrix(-1 0 0 1 315.078 610.079)" fill="white"/><circle r="1.07839" transform="matrix(-1 0 0 1 335.078 501.079)" fill="white"/><circle r="1.07839" transform="matrix(-1 0 0 1 305.078 621.079)" fill="white"/><circle r="1.07839" transform="matrix(-1 0 0 1 395.078 472.079)" fill="white"/><circle r="1.07839" transform="matrix(-1 0 0 1 600.047 398.282)" fill="white"/><circle r="1.07839" transform="matrix(-1 0 0 1 346.652 347.212)" fill="white"/><circle r="1.07839" transform="matrix(-1 0 0 1 320.25 425.986)" fill="white"/><circle r="1.07839" transform="matrix(-1 0 0 1 267.347 244.189)" fill="white"/><circle r="1.07839" transform="matrix(-1 0 0 1 260.597 197.673)" fill="white"/><circle r="1.07839" transform="matrix(-1 0 0 1 312.793 187.368)" fill="white"/><circle r="1.07839" transform="matrix(-1 0 0 1 331.261 155.407)" fill="white"/><circle opacity="0.4" r="1.07839" transform="matrix(-1 0 0 1 387.004 103.228)" fill="white"/><circle r="1.07839" transform="matrix(-1 0 0 1 384.164 109.259)" fill="white"/><circle r="2.43281" transform="matrix(-1 0 0 1 551.239 105.52)" fill="white"/><circle r="1.07839" transform="matrix(-1 0 0 1 556.933 124.384)" fill="white"/><circle opacity="0.4" r="1.07839" transform="matrix(-1 0 0 1 608.703 78.4231)" fill="white"/><circle opacity="0.4" r="1.07839" transform="matrix(-1 0 0 1 528.429 117.986)" fill="white"/><circle opacity="0.4" r="1.07839" transform="matrix(-1 0 0 1 737.949 196.181)" fill="white"/><circle r="1.07839" transform="matrix(-1 0 0 1 700.394 232.001)" fill="white"/><circle opacity="0.4" r="1.07839" transform="matrix(-1 0 0 1 722.082 223.079)" fill="white"/><circle r="1.07839" transform="matrix(-1 0 0 1 732.605 166.267)" fill="white"/><circle r="1.07839" transform="matrix(-1 0 0 1 587.402 317.15)" fill="white"/><circle opacity="0.4" r="1.07839" transform="matrix(-1 0 0 1 445.242 473.017)" fill="white"/><circle r="1.07839" transform="matrix(-1 0 0 1 228.511 345.9)" fill="white"/><circle opacity="0.4" r="1.07839" transform="matrix(-1 0 0 1 203.511 296.9)" fill="white"/><circle opacity="0.4" r="1.07839" transform="matrix(-1 0 0 1 178.511 327.9)" fill="white"/><circle r="1.07839" transform="matrix(-1 0 0 1 174.511 334.9)" fill="white"/><circle r="1.07839" transform="matrix(-1 0 0 1 150.511 331.9)" fill="white"/><circle opacity="0.4" r="1.07839" transform="matrix(-1 0 0 1 126.511 408.9)" fill="white"/><circle r="1.07839" transform="matrix(-1 0 0 1 102.511 425.9)" fill="white"/><circle r="1.07839" transform="matrix(-1 0 0 1 158.511 422.9)" fill="white"/><circle opacity="0.4" r="1.07839" transform="matrix(-1 0 0 1 194.511 369.9)" fill="white"/><circle r="1.07839" transform="matrix(-1 0 0 1 190.511 506.9)" fill="white"/><circle opacity="0.4" r="1.07839" transform="matrix(-1 0 0 1 198.511 526.9)" fill="white"/><circle opacity="0.4" r="1.07839" transform="matrix(-1 0 0 1 263.75 354.743)" fill="white"/><circle r="1.07839" transform="matrix(-1 0 0 1 264.332 375.103)" fill="white"/><circle r="1.07839" transform="matrix(-1 0 0 1 424.191 439.087)" fill="white"/><circle r="1.07839" transform="matrix(-1 0 0 1 571.078 507.079)" fill="white"/><circle r="1.07839" transform="matrix(-1 0 0 1 468.078 541.079)" fill="white"/><circle r="1.07839" transform="matrix(-1 0 0 1 261.078 550.079)" fill="white"/><circle r="1.07839" transform="matrix(-1 0 0 1 269.078 432.079)" fill="white"/><circle r="1.07839" transform="matrix(-1 0 0 1 611.972 420.47)" fill="white"/><circle r="1.07839" transform="matrix(-1 0 0 1 583.687 444.9)" fill="white"/><circle r="1.07839" transform="matrix(-1 0 0 1 548.785 365.204)" fill="white"/><circle r="1.07839" transform="matrix(-1 0 0 1 482.394 111.509)" fill="white"/><circle r="1.07839" transform="matrix(-1 0 0 1 340.136 124.532)" fill="white"/><circle opacity="0.4" r="1.07839" transform="matrix(-1 0 0 1 363.109 244.837)" fill="white"/><circle r="1.07839" transform="matrix(-1 0 0 1 411.746 178.15)" fill="white"/><path d="M466.649 258.049C467.162 258.251 467.666 258.497 468.156 258.789L488.63 270.988C493.501 273.891 495.097 280.192 492.195 285.064C489.293 289.935 482.991 291.531 478.12 288.628L457.901 276.581C457.387 276.379 456.883 276.133 456.394 275.841L435.919 263.641C435.692 263.506 435.473 263.364 435.261 263.215L426.394 265.477C424.391 265.987 422.353 264.778 421.842 262.775C421.331 260.772 422.541 258.734 424.544 258.223L428.009 257.339L420.655 257.161C418.589 257.111 416.954 255.396 417.004 253.329C417.054 251.263 418.77 249.628 420.837 249.678L428.628 249.867L422.937 248.221C420.952 247.647 419.808 245.571 420.382 243.586C420.956 241.6 423.032 240.456 425.017 241.03L433.76 243.559L432.801 241.941C431.602 239.92 432.269 237.309 434.29 236.11C436.311 234.911 438.922 235.578 440.121 237.599L444.593 245.138C445.221 245.361 445.836 245.648 446.429 246.002L466.649 258.049Z" fill="#9A755E"/><path d="M433.023 244.42L424.862 241.76C421.974 240.743 419.5 244.295 422.117 247.101" stroke="#9A755E" stroke-width="2.51792" stroke-linecap="round"/><path d="M429.217 250.958L420.643 250.559C417.588 250.344 416.145 254.426 419.412 256.437" stroke="#9A755E" stroke-width="2.51792" stroke-linecap="round"/><path d="M429.123 258.26L424.957 259.134C421.938 259.645 421.497 263.952 425.147 265.136" stroke="#9A755E" stroke-width="2.51792" stroke-linecap="round"/><path d="M468.667 257.93C468.156 257.625 467.629 257.365 467.092 257.149L446.941 245.142C446.4 244.82 445.842 244.548 445.273 244.325L440.981 237.089C439.5 234.593 436.276 233.77 433.78 235.25C431.46 236.626 430.585 239.507 431.66 241.91L425.295 240.069C422.779 239.342 420.149 240.791 419.421 243.308C418.81 245.422 419.736 247.616 421.539 248.695L420.861 248.678C418.242 248.615 416.068 250.686 416.005 253.305C415.941 255.923 418.013 258.098 420.631 258.161L422.433 258.205C421.073 259.339 420.406 261.192 420.873 263.022C421.521 265.56 424.103 267.093 426.641 266.446L435.074 264.294C435.184 264.365 435.295 264.433 435.407 264.5L455.882 276.7C456.394 277.005 456.92 277.265 457.457 277.481L477.608 289.487C482.954 292.672 489.869 290.921 493.054 285.575C496.239 280.23 494.488 273.314 489.142 270.129L468.667 257.93Z" stroke="#083156" stroke-width="2"/><path d="M435.335 254.259C439.505 250.639 443.071 253.075 443.071 253.075" stroke="#083156" stroke-width="2" stroke-linecap="round"/><path d="M482.855 299.017L518.991 311.815L515.633 321.295L479.498 308.496L482.855 299.017Z" fill="white"/><path d="M487.012 300.919L491.041 302.346L487.757 311.617L483.728 310.19L487.012 300.919Z" fill="#083156"/><path d="M505.023 307.286L509.052 308.713L505.675 318.248L501.646 316.821L505.023 307.286Z" fill="#083156"/><path fill-rule="evenodd" clip-rule="evenodd" d="M519.622 311.664L516.136 321.507L513.436 320.55L516.922 310.708L519.622 311.664Z" fill="#083156"/><path fill-rule="evenodd" clip-rule="evenodd" d="M484.47 300.004L481.187 309.273L478.487 308.317L481.77 299.048L484.47 300.004Z" fill="#083156"/><path d="M524.581 272.596L492.588 266.13L490.097 278.453C483.825 281.074 478.923 286.659 477.475 293.824C476.564 298.333 478.155 302.459 482.664 303.37L519.84 310.884C524.349 311.795 528.743 308.878 529.654 304.369C531.262 296.411 528.186 288.593 522.322 283.774L524.581 272.596Z" fill="#FFE999"/><rect opacity="0.3" x="497.445" y="297.681" width="31.8193" height="8" rx="3" transform="rotate(11.082 497.445 297.681)" fill="#FFAA00"/><path d="M495.316 267.491L492.739 280.242C492.666 280.602 492.368 280.867 492.01 280.945C485.024 282.466 474.056 297.428 483.539 300.576" stroke="white" stroke-width="4" stroke-linecap="round"/><path d="M524.585 272.596L492.592 266.13L490.101 278.453C483.829 281.074 478.927 286.659 477.479 293.824C476.567 298.333 478.159 302.459 482.668 303.37L519.844 310.884C524.353 311.795 528.747 308.878 529.658 304.369C531.266 296.411 528.19 288.593 522.326 283.774L524.585 272.596Z" stroke="#083156" stroke-width="2"/><path d="M546.363 262.709C545.85 262.911 545.346 263.157 544.856 263.449L524.381 275.649C519.51 278.551 517.914 284.853 520.817 289.724C523.719 294.595 530.021 296.191 534.892 293.288L555.111 281.241C555.624 281.039 556.128 280.793 556.618 280.501L577.093 268.302C577.319 268.167 577.539 268.024 577.751 267.875L586.618 270.137C588.621 270.648 590.658 269.438 591.169 267.435C591.68 265.432 590.471 263.394 588.468 262.883L585.003 262L592.356 261.822C594.423 261.772 596.057 260.056 596.007 257.989C595.957 255.923 594.241 254.288 592.175 254.338L584.383 254.527L590.074 252.881C592.06 252.307 593.204 250.231 592.63 248.246C592.055 246.26 589.98 245.116 587.994 245.69L579.251 248.219L580.211 246.602C581.41 244.58 580.743 241.97 578.722 240.771C576.701 239.572 574.09 240.238 572.891 242.259L568.419 249.799C567.791 250.021 567.176 250.308 566.582 250.662L546.363 262.709Z" fill="#9A755E"/><path d="M579.988 249.08L588.149 246.421C591.037 245.403 593.512 248.955 590.895 251.761" stroke="#9A755E" stroke-width="2.51792" stroke-linecap="round"/><path d="M583.795 255.618L592.369 255.22C595.424 255.005 596.867 259.086 593.599 261.097" stroke="#9A755E" stroke-width="2.51792" stroke-linecap="round"/><path d="M583.897 262.92L588.063 263.794C591.082 264.305 591.522 268.612 587.872 269.796" stroke="#9A755E" stroke-width="2.51792" stroke-linecap="round"/><path d="M544.344 262.59C544.856 262.285 545.383 262.025 545.92 261.809L566.07 249.803C566.612 249.48 567.17 249.208 567.739 248.985L572.031 241.749C573.512 239.253 576.736 238.43 579.232 239.91C581.551 241.286 582.426 244.167 581.351 246.571L587.717 244.73C590.233 244.002 592.863 245.452 593.59 247.968C594.202 250.082 593.276 252.276 591.473 253.355L592.151 253.339C594.769 253.275 596.944 255.346 597.007 257.965C597.07 260.584 594.999 262.758 592.38 262.821L590.579 262.865C591.938 263.999 592.605 265.852 592.138 267.682C591.491 270.22 588.909 271.753 586.37 271.106L577.937 268.954C577.828 269.025 577.717 269.094 577.605 269.161L557.13 281.36C556.618 281.665 556.091 281.925 555.555 282.141L535.404 294.147C530.058 297.333 523.143 295.581 519.958 290.236C516.773 284.89 518.524 277.975 523.87 274.79L544.344 262.59Z" stroke="#083156" stroke-width="2"/><path d="M577.677 258.92C573.507 255.299 569.94 257.735 569.94 257.735" stroke="#083156" stroke-width="2" stroke-linecap="round"/><path d="M529.094 206.323C537.274 205.231 537.588 212.712 538.647 220.644L543.441 256.551C544.686 265.872 540.193 271.623 530.581 272.907L492.517 279.55C482.905 280.834 474.105 274.318 472.861 264.998L468.066 229.09C467.007 221.158 472.779 213.842 480.959 212.75L529.094 206.323Z" fill="#9A755E"/><path d="M529.094 206.323C537.274 205.231 537.588 212.712 538.647 220.644L543.441 256.551C544.686 265.872 540.193 271.623 530.581 272.907L492.517 279.55C482.905 280.834 474.105 274.318 472.861 264.998L468.066 229.09C467.007 221.158 472.779 213.842 480.959 212.75L529.094 206.323Z" stroke="#083156" stroke-width="2"/><path d="M518.393 235.451C519.84 240.713 517.142 247.558 512.869 248.139C508.206 248.421 503.779 246.095 502.332 240.833C500.884 235.571 503.367 230.3 507.878 229.059C512.388 227.818 516.945 230.189 518.393 235.451Z" fill="white"/><path fill-rule="evenodd" clip-rule="evenodd" d="M515.756 250.929C519.85 250.346 524.006 250.559 526.843 251.267C529.932 252.038 533.06 250.158 533.831 247.069C534.602 243.98 532.722 240.852 529.634 240.081C525.128 238.957 519.449 238.758 514.129 239.516C508.936 240.256 503.09 242.05 499.017 245.783C496.671 247.934 496.512 251.581 498.663 253.928C500.815 256.275 504.461 256.433 506.808 254.282C508.39 252.832 511.535 251.531 515.756 250.929Z" fill="#9A755E"/><path d="M517.571 232.891C519.733 235.677 519.695 239.324 517.486 241.038C515.277 242.752 511.692 241.895 511.059 236.782C506.579 233.112 507.751 231.309 509.96 229.595C512.168 227.881 515.41 230.106 517.571 232.891Z" fill="#083156"/><path fill-rule="evenodd" clip-rule="evenodd" d="M507.862 230.447C504.522 231.854 502.084 236.228 503.662 240.773C503.922 241.521 503.526 242.337 502.779 242.596C502.032 242.856 501.215 242.46 500.956 241.713C498.873 235.715 502.043 229.789 506.751 227.807C509.155 226.795 511.951 226.819 514.56 228.362C517.136 229.885 519.379 232.793 520.975 237.268C521.24 238.013 520.852 238.832 520.107 239.098C519.362 239.364 518.542 238.975 518.276 238.23C516.822 234.151 514.917 231.901 513.102 230.828C511.321 229.775 509.482 229.765 507.862 230.447Z" fill="#083156"/><path d="M491.865 240.043C493.313 245.305 490.787 245.95 486.277 247.191C481.766 248.432 476.979 249.798 475.531 244.536C474.084 239.274 476.567 234.003 481.077 232.762C485.588 231.521 490.418 234.781 491.865 240.043Z" fill="white"/><path fill-rule="evenodd" clip-rule="evenodd" d="M496.113 258.468C491.928 254.743 484.569 252.524 478.712 253.985C476.466 254.546 474.19 253.179 473.63 250.933C473.069 248.686 474.436 246.411 476.682 245.85C485.509 243.648 495.659 246.839 501.687 252.205C503.417 253.744 503.571 256.394 502.031 258.123C500.492 259.853 497.842 260.007 496.113 258.468Z" fill="#9A755E"/><path d="M491.376 237.759C493.219 240.932 493.057 244.465 491.015 245.652C488.973 246.838 485.46 246.104 485.25 241.415C481.497 238.139 482.299 235.349 484.341 234.162C486.383 232.976 489.533 234.586 491.376 237.759Z" fill="#083156"/><path fill-rule="evenodd" clip-rule="evenodd" d="M480.972 234.67C477.631 236.076 475.194 240.451 476.772 244.996C477.031 245.743 476.636 246.559 475.888 246.819C475.141 247.078 474.325 246.683 474.065 245.936C471.983 239.937 475.153 234.011 479.86 232.029C482.264 231.017 485.06 231.042 487.67 232.585C490.245 234.107 492.488 237.016 494.084 241.49C494.35 242.235 493.961 243.055 493.216 243.321C492.471 243.586 491.652 243.198 491.386 242.453C489.931 238.373 488.027 236.124 486.212 235.051C484.43 233.997 482.592 233.988 480.972 234.67Z" fill="#083156"/><path fill-rule="evenodd" clip-rule="evenodd" d="M494.804 242.079C495.177 242.582 495.072 243.292 494.569 243.665C494.135 243.987 493.658 244.314 493.216 244.618C492.94 244.808 492.677 244.988 492.448 245.151C491.798 245.614 491.282 246.028 490.904 246.46C490.538 246.877 490.327 247.283 490.251 247.735C490.175 248.194 490.221 248.808 490.553 249.666C490.881 250.515 491.725 251.119 492.927 251.331C494.129 251.542 495.491 251.311 496.514 250.691C497.05 250.367 497.747 250.538 498.071 251.074C498.396 251.609 498.225 252.306 497.689 252.631C496.166 253.554 494.241 253.864 492.535 253.564C490.829 253.264 489.143 252.304 488.438 250.485C488 249.352 487.855 248.32 488.015 247.362C488.175 246.398 488.626 245.618 489.198 244.966C489.757 244.328 490.451 243.79 491.133 243.304C491.436 243.088 491.722 242.892 492.004 242.699C492.405 242.424 492.797 242.155 493.218 241.844C493.721 241.471 494.431 241.576 494.804 242.079Z" fill="#083156"/><path d="M553.889 237.095C554.551 242.053 550.726 246.655 545.344 247.373C539.963 248.092 535.064 244.655 534.402 239.697C533.74 234.739 537.566 230.137 542.947 229.419C548.328 228.7 553.227 232.137 553.889 237.095Z" fill="#9A755E"/><path fill-rule="evenodd" clip-rule="evenodd" d="M547.178 230.846C544.742 230.029 541.791 230.464 539.461 231.194C538.706 231.43 537.902 231.01 537.666 230.255C537.429 229.5 537.85 228.696 538.605 228.46C541.151 227.663 544.804 227.028 548.09 228.13C549.766 228.693 551.336 229.707 552.573 231.346C553.803 232.975 554.645 235.145 555.005 237.941L555.011 237.992L555.014 238.043C555.194 241.261 554.267 244.409 551.997 246.575C549.702 248.766 546.268 249.73 541.909 249.028C541.128 248.902 540.597 248.167 540.723 247.386C540.849 246.605 541.584 246.074 542.365 246.2C546.074 246.797 548.527 245.927 550.019 244.503C551.527 243.063 552.289 240.835 552.157 238.254C551.842 235.858 551.143 234.207 550.286 233.071C549.431 231.938 548.362 231.244 547.178 230.846Z" fill="#083156"/><mask id="path-189-outside-1_1_8" maskUnits="userSpaceOnUse" x="489.026" y="247.063" width="35.9082" height="29.2279" fill="black"><rect fill="white" x="489.026" y="247.063" width="35.9082" height="29.2279"/><path d="M518.208 254.127C515.844 251.006 511.315 251.907 508.406 254.527L508.262 254.657C505.17 257.442 501.498 259.505 497.511 260.698L-nan -nanL-nan -nanL497.511 260.698C494.601 261.569 493.498 265.092 495.973 266.853C496.496 267.224 497.047 267.566 497.614 267.848C501.631 269.848 508.181 268.731 510.116 268.337C510.487 268.261 510.85 268.169 511.209 268.047C512.903 267.467 518.095 265.329 519.475 260.519C520.228 257.898 519.446 255.76 518.208 254.127Z"/></mask><path d="M518.208 254.127C515.844 251.006 511.315 251.907 508.406 254.527L508.262 254.657C505.17 257.442 501.498 259.505 497.511 260.698L-nan -nanL-nan -nanL497.511 260.698C494.601 261.569 493.498 265.092 495.973 266.853C496.496 267.224 497.047 267.566 497.614 267.848C501.631 269.848 508.181 268.731 510.116 268.337C510.487 268.261 510.85 268.169 511.209 268.047C512.903 267.467 518.095 265.329 519.475 260.519C520.228 257.898 519.446 255.76 518.208 254.127Z" fill="#083156"/><path d="M497.614 267.848L498.505 266.058L497.614 267.848ZM519.475 260.519L517.553 259.967L519.475 260.519ZM508.262 254.657L506.924 253.17L506.924 253.17L508.262 254.657ZM495.973 266.853L494.814 268.482L495.973 266.853ZM510.116 268.337L510.515 270.297L510.515 270.297L510.116 268.337ZM511.209 268.047L510.561 266.155L511.209 268.047ZM518.208 254.127L516.614 255.334L518.208 254.127ZM508.406 254.527L509.744 256.013L509.744 256.013L508.406 254.527ZM497.132 265.223C497.588 265.547 498.049 265.831 498.505 266.058L496.722 269.638C496.044 269.301 495.404 268.902 494.814 268.482L497.132 265.223ZM517.553 259.967C518.091 258.091 517.568 256.594 516.614 255.334L519.802 252.919C521.323 254.927 522.364 257.705 521.398 261.071L517.553 259.967ZM509.744 256.013L509.601 256.143L506.924 253.17L507.067 253.041L509.744 256.013ZM498.505 266.058C500.061 266.832 502.295 267.067 504.58 266.992C506.806 266.918 508.807 266.563 509.716 266.377L510.515 270.297C509.49 270.506 507.248 270.906 504.712 270.989C502.233 271.071 499.184 270.864 496.722 269.638L498.505 266.058ZM510.561 266.155C511.308 265.899 512.829 265.296 514.293 264.245C515.759 263.191 517.029 261.791 517.553 259.967L521.398 261.071C520.54 264.057 518.525 266.13 516.626 267.494C514.726 268.858 512.804 269.615 511.856 269.939L510.561 266.155ZM509.601 256.143C506.288 259.126 502.355 261.336 498.084 262.614L496.937 258.782C500.641 257.674 504.052 255.757 506.924 253.17L509.601 256.143ZM494.814 268.482C492.845 267.082 492.258 264.876 492.793 262.915C493.31 261.023 494.837 259.411 496.937 258.782L498.084 262.614C497.275 262.857 496.796 263.441 496.652 263.969C496.527 264.427 496.626 264.863 497.132 265.223L494.814 268.482ZM509.716 266.377C510.028 266.314 510.305 266.242 510.561 266.155L511.856 269.939C511.396 270.097 510.946 270.209 510.515 270.297L509.716 266.377ZM516.614 255.334C515.926 254.426 514.934 254.053 513.692 254.166C512.393 254.284 510.927 254.948 509.744 256.013L507.067 253.041C508.794 251.486 511.047 250.39 513.33 250.182C515.672 249.97 518.126 250.707 519.802 252.919L516.614 255.334Z" fill="#083156" mask="url(#path-189-outside-1_1_8)"/><path d="M518.455 255.681C518.211 255.179 517.916 254.711 517.588 254.279C515.224 251.158 510.695 252.06 507.786 254.68L507.643 254.809C505.696 256.562 503.52 258.029 501.18 259.173C503.168 261.407 506.464 262.158 509.295 260.803C510.929 260.021 512.113 258.679 512.728 257.117C514.089 257.465 515.575 257.355 516.941 256.701C517.508 256.43 518.014 256.084 518.455 255.681Z" fill="white"/><path fill-rule="evenodd" clip-rule="evenodd" d="M372.469 273.099C375.089 273.62 376.791 276.165 376.271 278.785C375.177 284.293 375.533 289.046 379.269 295.703C380.576 298.032 379.747 300.98 377.418 302.287C375.088 303.595 372.14 302.766 370.833 300.437C365.942 291.72 365.251 284.613 366.783 276.901C367.303 274.281 369.849 272.579 372.469 273.099Z" fill="#FFE999"/><path fill-rule="evenodd" clip-rule="evenodd" d="M394.598 376.197C396.878 374.806 399.855 375.527 401.246 377.807C404.17 382.601 407.651 385.857 414.907 388.226C417.447 389.054 418.833 391.785 418.004 394.324C417.176 396.863 414.445 398.25 411.906 397.421C402.404 394.32 397.084 389.557 392.988 382.845C391.597 380.565 392.318 377.589 394.598 376.197Z" fill="#FFE999"/><path d="M458.801 212.97L468.317 235.688L486.152 219.219L541.917 228.915L543.162 200.79L458.801 212.97Z" fill="#FFE999"/><rect opacity="0.3" x="499.543" y="213.649" width="42.9343" height="8" rx="3" transform="rotate(9.80171 499.543 213.649)" fill="#FFAA00"/><path d="M465.568 229.529C465.939 230.569 467.084 231.112 468.124 230.741C469.164 230.37 469.707 229.226 469.336 228.185L465.568 229.529ZM459.917 213.681L465.568 229.529L469.336 228.185L463.685 212.337L459.917 213.681Z" fill="white"/><path d="M458.801 212.97L468.317 235.688L486.152 219.219L541.917 228.915L543.162 200.79L458.801 212.97Z" stroke="#083156" stroke-width="2"/><path d="M490.493 203.705C482.603 191.898 466.635 188.723 454.828 196.613L458.858 202.643C466.748 214.449 482.715 217.624 494.522 209.734L490.493 203.705Z" fill="#FFE999"/><path d="M497.862 191.164C501.384 199.689 497.328 209.456 488.802 212.978L487.003 208.624C483.481 200.098 487.538 190.332 496.063 186.81L497.862 191.164Z" fill="#FFE999"/><rect opacity="0.4" x="438.461" y="395.563" width="66.4643" height="13" rx="4" transform="rotate(-38.355 438.461 395.563)" fill="#001836"/><path d="M516.172 323.122C517.366 327.5 518.322 337.687 512.591 343.418C507.057 348.951 465.954 381.149 444.024 398.167C442.716 399.183 440.867 399.087 439.665 397.947L419.071 378.438" stroke="white" stroke-width="2" stroke-linecap="round"/><path d="M469.703 328.935L421.153 367.138" stroke="white" stroke-width="2.35005" stroke-linecap="round"/><path d="M473.465 302.238C471.873 300.249 441.177 286.708 409.177 288.364" stroke="white" stroke-width="2" stroke-linecap="round"/><path d="M461.258 325.112C453.056 321.524 430.02 317.068 401.768 326.819C400.084 327.401 398.216 326.622 397.497 324.992L386.84 300.837" stroke="white" stroke-width="2" stroke-linecap="round"/><path d="M544.074 197.764C544.582 182.833 540.408 154.906 519.641 162.643C516.757 164.17 510.533 168.223 508.953 172.314C507.488 176.105 509.464 180.368 513.007 181.168C516.708 182.004 520.798 179.723 520.66 172.823C520.263 153.062 506.175 127.989 477.281 137.063C468.645 139.775 458.059 145.898 449.909 163.661" stroke="white" stroke-width="2" stroke-linecap="round"/><mask id="mask0_1_8" style="mask-type:alpha" maskUnits="userSpaceOnUse" x="52" y="0" width="751" height="660"><path fill-rule="evenodd" clip-rule="evenodd" d="M658.866 32.0139C662.032 31.5037 665.026 31.021 667.002 29.501C668.867 28.0667 669.623 25.0371 670.451 21.7197C671.644 16.9418 672.986 11.5667 678.002 9.50098C683.039 7.42722 687.548 8.60074 691.947 9.74549C694.973 10.5328 697.946 11.3065 701.002 11.0008C703.092 10.7919 705.356 8.83665 707.867 6.66762C711.366 3.64609 715.345 0.209639 720.002 0.500699C725.087 0.81847 729.767 4.16518 733.659 6.94774C735.89 8.54343 737.862 9.95359 739.502 10.5006C741.286 11.0956 744.249 10.7474 747.549 10.3594C752.573 9.76867 758.381 9.08593 762.002 11.5009C765.548 13.8651 767.515 18.4662 769.361 22.7827C770.639 25.7709 771.858 28.6227 773.502 30.5016C774.872 32.0669 777.2 32.7132 779.78 33.4297C783.792 34.5438 788.416 35.8277 791.002 41.0009C793.48 45.9566 792.504 50.7209 791.64 54.9368C791.11 57.526 790.622 59.9082 791.002 62.0009C791.459 64.515 793.613 66.9736 795.935 69.6246C799.066 73.198 802.502 77.121 802.502 82.0009C802.502 87.0984 799.805 90.7573 797.214 94.2717C795.485 96.6175 793.803 98.899 793.002 101.501C792.124 104.356 792.693 106.922 793.31 109.707C794.098 113.262 794.965 117.174 793.002 122.501C791.183 127.439 787.751 129.331 783.672 131.58C780.973 133.068 777.989 134.713 775.002 137.501C772.912 139.452 772.046 142.294 771.043 145.589C769.4 150.987 767.386 157.601 759.002 163.501C752.571 169.32 749.992 178.281 752.346 186.629L754.002 192.501L753.957 192.459C756.796 202.596 752.696 213.85 743.131 219.562L727.346 228.989C708.194 240.427 701.56 264.99 712.35 284.514L713.035 285.754C724.953 307.32 716.263 334.469 694.039 345.107L670.522 356.362C640.354 370.802 625.332 405.174 635.226 437.123L635.973 439.538C650.503 486.456 613.7 533.444 564.667 530.579L561.878 530.416C532.016 528.671 504.322 546.021 492.864 573.653C476.201 613.84 427.397 629.385 390.562 606.239L337.582 572.948C322.295 563.341 303.132 562.307 286.9 570.213L253.716 586.374C208.009 608.633 154.174 578.204 149.673 527.564C148.066 509.482 135.407 494.296 117.91 489.458L92.7236 482.495C47.4621 469.981 37.8929 410.048 77.0075 384.063L95.2957 371.913C109.921 362.197 116.339 343.967 111.026 327.231C105.215 308.926 117.009 289.728 135.964 286.637L156.526 283.285C177.68 279.836 194.207 263.159 197.466 241.976L198.696 233.984C202.975 206.168 225.84 184.958 253.898 182.776L259.707 182.324C282.379 180.56 302.666 167.574 313.759 147.723L325.32 127.036C341.9 97.3654 375.418 81.411 408.901 87.251L486.372 100.763C510.116 104.905 534.195 95.5118 548.863 76.3859L555.376 67.8943C567.795 51.7005 588.922 44.8547 608.479 50.6874L613.105 52.0672C617.971 53.5184 622.993 54.0086 627.915 53.5873C635.704 52.4936 640.261 46.1933 644.034 40.9772C645.244 39.3045 646.373 37.7433 647.502 36.501C650.331 33.3896 654.743 32.6784 658.866 32.0139ZM541.343 553.106L539.446 554.219C535.29 556.657 532.154 560.514 530.614 565.081C525.475 580.321 539.71 594.875 553.299 586.272C558.307 583.101 562.752 579.611 566.71 575.767C583.05 559.904 560.985 541.581 541.343 553.106ZM315.354 588.398L318.293 589.337C348.736 599.057 350.268 639.275 318.387 637.068C310.664 636.534 302.854 635.162 294.848 632.9C273.129 626.765 274.997 598.259 295.732 589.349C301.945 586.679 308.912 586.342 315.354 588.398ZM229.948 140.523L199.865 149.472C192.285 151.727 185.951 156.973 182.323 164.001L177.732 172.896C165.301 196.982 128.991 188.957 127.867 161.876L127.661 156.909C127.274 147.586 120.53 139.75 111.368 137.98C94.3374 134.688 89.1658 112.836 102.915 102.26L111.495 95.6589C116.631 91.7086 120.033 85.9195 120.984 79.5109L121.437 76.4655C124.367 56.7376 144.152 44.2301 163.23 50.0464L197.591 60.5225C205.031 62.7906 212.975 62.8048 220.423 60.5633L245.177 53.1129C254.614 50.2727 264.848 52.848 271.816 59.8163C277.529 65.5295 279.894 73.784 278.072 81.6556L275.716 91.8386C270.329 115.119 252.851 133.71 229.948 140.523ZM699.73 379.477L713.203 372.348C725.031 366.089 736.708 380.915 727.852 390.947C716.498 403.809 717.37 423.351 729.825 435.15L736.241 441.228C747.704 452.088 751.913 468.566 747.063 483.594L738.779 509.258C733.252 526.379 739.433 545.108 754.064 555.576C772.56 568.811 776.892 594.5 763.758 613.068L756.642 623.129C739.743 647.02 711.787 660.593 682.561 659.094L677.345 658.826C655.011 657.681 640.34 635.022 648.433 614.175L657.836 589.955C661.353 580.897 654.931 571.063 645.223 570.641C632.133 570.072 626.741 553.583 636.965 545.389L661.895 525.411C673.491 516.119 679.564 501.566 678.015 486.787L672.183 431.14C669.958 409.91 680.863 389.46 699.73 379.477Z" fill="#083156"/></mask><g mask="url(#mask0_1_8)"><path opacity="0.5" d="M530.614 565.081C532.154 560.514 535.29 556.657 539.446 554.219L541.343 553.106C549.661 548.225 558.414 548.698 564.5 552.07" stroke="#001836" stroke-width="12" stroke-linecap="round"/><path opacity="0.5" d="M332.298 597.5C328.659 594.031 323.981 591.151 318.294 589.336L315.355 588.397C308.913 586.34 301.946 586.678 295.733 589.348C292.395 590.782 289.546 592.725 287.205 595" stroke="#001836" stroke-width="13" stroke-linecap="round"/><path opacity="0.5" d="M121.134 78.501L121.431 76.501V76.501C124.363 56.7544 144.168 44.2351 163.263 50.0569L197.59 60.5225C205.03 62.7906 212.974 62.8048 220.422 60.5633L244.926 53.1881C254.517 50.3016 264.918 52.919 272 60.001V60.001L274 62.001" stroke="#001836" stroke-width="14" stroke-linecap="round"/><path opacity="0.5" d="M549.501 76.501L547.92 78.501V78.501C533.799 96.3688 511.023 105.063 488.587 101.15L408.901 87.251C375.418 81.411 341.9 97.3654 325.32 127.036L313.759 147.722C302.666 167.574 282.379 180.56 259.707 182.324L253.898 182.776C225.84 184.958 202.975 206.168 198.696 233.984V233.984C194.703 259.933 174.458 280.361 148.546 284.586L146.001 285.001" stroke="#001836" stroke-width="20" stroke-linecap="round"/><path opacity="0.5" d="M638.501 542.501L644.001 540.001L654.26 533.637C672.063 522.596 681.753 502.155 679.033 481.384L672.306 430.013C669.213 406.398 683.075 383.842 705.54 375.934V375.934C707.302 375.314 709.016 374.564 710.667 373.69L712.501 372.72" stroke="#001836" stroke-width="14" stroke-linecap="round"/><path d="M513.877 484.671L484.1 455.16C480.852 451.94 482.256 446.415 486.648 445.137L571.286 420.512C575.002 419.43 577.935 423.732 575.57 426.796L531.825 483.48C527.417 489.191 519.002 489.75 513.877 484.671Z" fill="white"/><path opacity="0.2" d="M528.752 477.764C527.697 479.041 527.876 480.932 529.153 481.988C530.429 483.044 532.32 482.865 533.376 481.588L528.752 477.764ZM574.892 431.384C575.948 430.107 575.769 428.216 574.492 427.16C573.215 426.104 571.324 426.283 570.268 427.56L574.892 431.384ZM533.376 481.588L574.892 431.384L570.268 427.56L528.752 477.764L533.376 481.588Z" fill="#083156"/><path d="M513.877 484.671L484.1 455.16C480.852 451.94 482.256 446.415 486.648 445.137L571.286 420.512C575.002 419.43 577.935 423.732 575.57 426.796L531.825 483.48C527.417 489.191 519.002 489.75 513.877 484.671Z" stroke="#083156" stroke-width="2" stroke-linecap="round" stroke-linejoin="round"/><path opacity="0.5" d="M484.501 480.497C441.503 500.496 470.006 572.998 355.005 599.997" stroke="#FFD9AB" stroke-width="2" stroke-linecap="round" stroke-dasharray="5 9"/><path d="M494.802 479.286L491.647 462.806L574.486 420.671C574.796 420.513 575.166 420.528 575.462 420.71L576.46 421.322C576.622 421.421 576.618 421.657 576.453 421.752L496.413 467.546L494.802 479.286Z" fill="white"/><path d="M494.802 479.286L491.647 462.806L574.486 420.671C574.796 420.513 575.166 420.528 575.462 420.71L576.46 421.322C576.622 421.421 576.618 421.657 576.453 421.752L496.413 467.546L494.802 479.286Z" fill="#3C5D87" fill-opacity="0.2"/><path d="M494.802 479.286L491.647 462.806L574.486 420.671C574.796 420.513 575.166 420.528 575.462 420.71L576.46 421.322C576.622 421.421 576.618 421.657 576.453 421.752L496.413 467.546L494.802 479.286Z" stroke="#083156" stroke-width="2" stroke-linecap="round" stroke-linejoin="round"/><path d="M505.257 476.313L497.775 480.208C496.329 480.961 494.638 479.76 494.872 478.146L496.413 467.551L505.257 476.313Z" fill="white"/><path d="M505.257 476.313L497.775 480.208C496.329 480.961 494.638 479.76 494.872 478.146L496.413 467.551L505.257 476.313Z" fill="#3C5D87" fill-opacity="0.15"/><path d="M505.257 476.313L497.775 480.208C496.329 480.961 494.638 479.76 494.872 478.146L496.413 467.551L505.257 476.313Z" stroke="#083156" stroke-width="2" stroke-linecap="round" stroke-linejoin="round"/><path opacity="0.2" d="M499.724 469.952C498.496 468.841 496.599 468.935 495.487 470.164C494.375 471.393 494.47 473.29 495.699 474.401L499.724 469.952ZM500.894 479.101C502.123 480.213 504.02 480.118 505.131 478.889C506.243 477.661 506.148 475.764 504.919 474.652L500.894 479.101ZM495.699 474.401L500.894 479.101L504.919 474.652L499.724 469.952L495.699 474.401Z" fill="#083156"/><path opacity="0.2" d="M494.925 464.988C493.962 465.529 493.619 466.748 494.16 467.711C494.701 468.674 495.92 469.017 496.883 468.476L494.925 464.988ZM570.797 426.972C571.76 426.431 572.102 425.212 571.562 424.249C571.021 423.286 569.802 422.944 568.839 423.484L570.797 426.972ZM496.883 468.476L570.797 426.972L568.839 423.484L494.925 464.988L496.883 468.476Z" fill="#083156"/><path d="M643.157 326.774L619.757 311.648C616.324 309.429 616.537 304.34 620.143 302.415L675.375 272.939C678.427 271.311 681.781 274.534 680.276 277.648L658.632 322.434C655.827 328.238 648.571 330.273 643.157 326.774Z" fill="white"/><path opacity="0.2" d="M654.252 320.31C653.563 321.621 654.067 323.242 655.377 323.931C656.688 324.619 658.309 324.115 658.997 322.805L654.252 320.31ZM681.65 279.7C682.339 278.39 681.835 276.769 680.524 276.08C679.214 275.391 677.593 275.896 676.904 277.206L681.65 279.7ZM658.997 322.805L681.65 279.7L676.904 277.206L654.252 320.31L658.997 322.805Z" fill="#083156"/><path d="M643.157 326.774L619.757 311.648C616.324 309.429 616.537 304.34 620.143 302.415L675.375 272.939C678.427 271.311 681.781 274.534 680.276 277.648L658.632 322.434C655.827 328.238 648.571 330.273 643.157 326.774Z" stroke="#083156" stroke-width="1.78712" stroke-linecap="round" stroke-linejoin="round"/><path opacity="0.5" d="M625.005 327.502C486.503 448.505 745.003 390.005 730.503 491.005C724.344 525.491 694.482 557.701 661.003 579.462" stroke="#FFD9AB" stroke-width="1.78712" stroke-linecap="round" stroke-dasharray="4.47 8.04"/><path d="M630.041 326.842L625.201 315.272L677.573 273.839C677.817 273.646 678.167 273.667 678.387 273.887C678.449 273.949 678.446 274.05 678.38 274.109L629.416 318.007L630.041 326.842Z" fill="white"/><path d="M630.041 326.842L625.201 315.272L677.573 273.839C677.817 273.646 678.167 273.667 678.387 273.887C678.449 273.949 678.446 274.05 678.38 274.109L629.416 318.007L630.041 326.842Z" fill="#3C5D87" fill-opacity="0.2"/><path d="M630.041 326.842L625.201 315.272L677.573 273.839C677.817 273.646 678.167 273.667 678.387 273.887C678.449 273.949 678.446 274.05 678.38 274.109L629.416 318.007L630.041 326.842Z" stroke="#083156" stroke-width="1.78712" stroke-linecap="round" stroke-linejoin="round"/><path d="M637.228 323.063L632.795 326.7C631.668 327.624 629.969 326.884 629.877 325.43L629.412 318.013L637.228 323.063Z" fill="white"/><path d="M637.228 323.063L632.795 326.7C631.668 327.624 629.969 326.884 629.877 325.43L629.412 318.013L637.228 323.063Z" fill="#3C5D87" fill-opacity="0.15"/><path d="M637.228 323.063L632.795 326.7C631.668 327.624 629.969 326.884 629.877 325.43L629.412 318.013L637.228 323.063Z" stroke="#083156" stroke-width="1.78712" stroke-linecap="round" stroke-linejoin="round"/><path opacity="0.2" d="M632.426 318.881C631.148 318.135 629.506 318.566 628.76 319.845C628.013 321.124 628.445 322.765 629.724 323.511L632.426 318.881ZM634.246 326.151C635.525 326.897 637.166 326.466 637.913 325.187C638.659 323.908 638.227 322.267 636.949 321.521L634.246 326.151ZM629.724 323.511L634.246 326.151L636.949 321.521L632.426 318.881L629.724 323.511Z" fill="#083156"/><path opacity="0.2" d="M627.738 316.148C626.995 316.798 626.919 317.927 627.569 318.67C628.219 319.412 629.348 319.488 630.091 318.838L627.738 316.148ZM677.78 277.119C678.523 276.469 678.598 275.34 677.948 274.597C677.298 273.854 676.169 273.779 675.426 274.429L677.78 277.119ZM630.091 318.838L677.78 277.119L675.426 274.429L627.738 316.148L630.091 318.838Z" fill="#083156"/><path d="M303.836 406.112L289.406 384.977C287.101 381.601 289.27 376.992 293.339 376.615L351.871 371.196C355.315 370.878 357.159 375.149 354.564 377.436L319.784 408.108C314.949 412.372 307.471 411.436 303.836 406.112Z" fill="white"/><path opacity="0.2" d="M316.218 404.895C315.076 405.836 314.912 407.525 315.854 408.668C316.795 409.811 318.484 409.974 319.627 409.033L316.218 404.895ZM355.474 379.506C356.617 378.564 356.78 376.875 355.839 375.732C354.898 374.589 353.208 374.426 352.066 375.367L355.474 379.506ZM319.627 409.033L355.474 379.506L352.066 375.367L316.218 404.895L319.627 409.033Z" fill="#083156"/><path d="M303.836 406.112L289.406 384.977C287.101 381.601 289.27 376.992 293.339 376.615L351.871 371.196C355.315 370.878 357.159 375.149 354.564 377.436L319.784 408.108C314.949 412.372 307.471 411.436 303.836 406.112Z" stroke="#083156" stroke-width="1.78712" stroke-linecap="round" stroke-linejoin="round"/><path opacity="0.5" d="M287.452 398.762C205.998 440.001 134.497 314.501 52.499 453.504" stroke="#FFD9AB" stroke-width="1.78712" stroke-linecap="round" stroke-dasharray="4.47 8.04"/><path d="M292.598 401.785L292.618 389.823L353.978 372.749C354.264 372.669 354.564 372.817 354.676 373.091C354.707 373.169 354.667 373.257 354.588 373.284L295.313 393.785L292.598 401.785Z" fill="white"/><path d="M292.598 401.785L292.618 389.823L353.978 372.749C354.264 372.669 354.564 372.817 354.676 373.091C354.707 373.169 354.667 373.257 354.588 373.284L295.313 393.785L292.598 401.785Z" fill="#3C5D87" fill-opacity="0.2"/><path d="M292.598 401.785L292.618 389.823L353.978 372.749C354.264 372.669 354.564 372.817 354.676 373.091C354.707 373.169 354.667 373.257 354.588 373.284L295.313 393.785L292.598 401.785Z" stroke="#083156" stroke-width="1.78712" stroke-linecap="round" stroke-linejoin="round"/><path d="M300.312 401.119L295.225 402.633C293.829 403.048 292.549 401.708 293.028 400.332L295.307 393.79L300.312 401.119Z" fill="white"/><path d="M300.312 401.119L295.225 402.633C293.829 403.048 292.549 401.708 293.028 400.332L295.307 393.79L300.312 401.119Z" fill="#3C5D87" fill-opacity="0.15"/><path d="M300.312 401.119L295.225 402.633C293.829 403.048 292.549 401.708 293.028 400.332L295.307 393.79L300.312 401.119Z" stroke="#083156" stroke-width="1.78712" stroke-linecap="round" stroke-linejoin="round"/><path opacity="0.2" d="M297.737 395.589C296.848 394.406 295.167 394.168 293.984 395.057C292.8 395.947 292.562 397.627 293.452 398.811L297.737 395.589ZM296.452 402.803C297.342 403.987 299.023 404.225 300.206 403.335C301.389 402.446 301.628 400.765 300.738 399.582L296.452 402.803ZM293.452 398.811L296.452 402.803L300.738 399.582L297.737 395.589L293.452 398.811Z" fill="#083156"/><path opacity="0.2" d="M294.501 391.454C293.564 391.765 293.057 392.776 293.369 393.713C293.68 394.65 294.691 395.157 295.628 394.845L294.501 391.454ZM352.976 375.789C353.913 375.477 354.42 374.466 354.108 373.529C353.797 372.592 352.785 372.085 351.849 372.397L352.976 375.789ZM295.628 394.845L352.976 375.789L351.849 372.397L294.501 391.454L295.628 394.845Z" fill="#083156"/><path d="M402.24 138.94L395.305 128.594C393.596 126.045 395.372 122.675 398.389 122.741L431.405 123.465C433.884 123.519 434.861 126.786 432.797 128.122L412.584 141.204C409.17 143.414 404.563 142.406 402.24 138.94Z" fill="white"/><path opacity="0.2" d="M410.153 139.058C409.268 139.589 408.99 140.748 409.531 141.648C410.073 142.548 411.229 142.847 412.113 142.317L410.153 139.058ZM434.952 128.625C435.837 128.095 436.115 126.936 435.574 126.036C435.033 125.136 433.877 124.836 432.992 125.367L434.952 128.625ZM412.113 142.317L434.952 128.625L432.992 125.367L410.153 139.058L412.113 142.317Z" fill="#083156"/><path d="M402.24 138.94L395.305 128.594C393.596 126.045 395.372 122.675 398.389 122.741L431.405 123.465C433.884 123.519 434.861 126.786 432.797 128.122L412.584 141.204C409.17 143.414 404.563 142.406 402.24 138.94Z" stroke="#083156" stroke-width="1.2563" stroke-linecap="round" stroke-linejoin="round"/><path opacity="0.5" d="M392.642 134.313C341.462 151.439 334.001 84.501 283.997 156.005C268.501 174.001 241.5 152.504 223 172.504" stroke="#FFD9AB" stroke-width="1.2563" stroke-linecap="round" stroke-dasharray="3.14 5.65"/><path d="M395.718 136.272L396.062 129.803L434.27 124.465C434.428 124.442 434.583 124.534 434.642 124.686C434.662 124.736 434.633 124.79 434.581 124.8L397.608 132.118L395.718 136.272Z" fill="white"/><path d="M395.718 136.272L396.062 129.803L434.27 124.465C434.428 124.442 434.583 124.534 434.642 124.686C434.662 124.736 434.633 124.79 434.581 124.8L397.608 132.118L395.718 136.272Z" fill="#3C5D87" fill-opacity="0.2"/><path d="M395.718 136.272L396.062 129.803L434.27 124.465C434.428 124.442 434.583 124.534 434.642 124.686C434.662 124.736 434.633 124.79 434.581 124.8L397.608 132.118L395.718 136.272Z" stroke="#083156" stroke-width="1.2563" stroke-linecap="round" stroke-linejoin="round"/><path d="M400.48 136.404L397.599 136.854C396.602 137.01 395.817 135.964 396.244 135.048L397.608 132.121L400.48 136.404Z" fill="white"/><path d="M400.48 136.404L397.599 136.854C396.602 137.01 395.817 135.964 396.244 135.048L397.608 132.121L400.48 136.404Z" fill="#3C5D87" fill-opacity="0.15"/><path d="M400.48 136.404L397.599 136.854C396.602 137.01 395.817 135.964 396.244 135.048L397.608 132.121L400.48 136.404Z" stroke="#083156" stroke-width="1.2563" stroke-linecap="round" stroke-linejoin="round"/><path opacity="0.2" d="M399.3 132.91C398.699 132.096 397.491 131.915 396.601 132.506C395.711 133.098 395.476 134.238 396.077 135.052L399.3 132.91ZM397.809 137.403C398.41 138.217 399.618 138.398 400.508 137.807C401.398 137.215 401.633 136.075 401.033 135.261L397.809 137.403ZM396.077 135.052L397.809 137.403L401.033 135.261L399.3 132.91L396.077 135.052Z" fill="#083156"/><path opacity="0.2" d="M397.23 130.52C396.552 130.647 396.113 131.304 396.25 131.989C396.386 132.674 397.047 133.126 397.724 133L397.23 130.52ZM433.481 126.34C434.159 126.213 434.598 125.556 434.461 124.871C434.325 124.186 433.664 123.734 432.987 123.86L433.481 126.34ZM397.724 133L433.481 126.34L432.987 123.86L397.23 130.52L397.724 133Z" fill="#083156"/><path d="M301.172 251.932L292.786 242.722C290.72 240.453 291.979 236.858 294.973 236.479L327.735 232.324C330.194 232.012 331.642 235.099 329.798 236.724L311.736 252.646C308.685 255.335 303.98 255.017 301.172 251.932Z" fill="white"/><path opacity="0.2" d="M309.017 250.882C308.22 251.537 308.116 252.724 308.784 253.535C309.452 254.345 310.639 254.47 311.436 253.815L309.017 250.882ZM332.005 236.904C332.802 236.249 332.906 235.061 332.238 234.251C331.57 233.441 330.383 233.316 329.586 233.971L332.005 236.904ZM311.436 253.815L332.005 236.904L329.586 233.971L309.017 250.882L311.436 253.815Z" fill="#083156"/><path d="M301.172 251.932L292.786 242.722C290.72 240.453 291.979 236.858 294.973 236.479L327.735 232.324C330.194 232.012 331.642 235.099 329.798 236.724L311.736 252.646C308.685 255.335 303.98 255.017 301.172 251.932Z" stroke="#083156" stroke-width="1.2563" stroke-linecap="round" stroke-linejoin="round"/><path opacity="0.5" d="M290.997 248.771C231.502 267.5 249.001 347.001 156.001 352.001C121.997 352.001 114.502 322 151.502 307.5" stroke="#FFD9AB" stroke-width="1.2563" stroke-linecap="round" stroke-dasharray="3.14 5.65"/><path d="M294.328 250.259L293.714 243.81L330.716 232.893C330.869 232.848 331.036 232.916 331.117 233.057C331.144 233.104 331.123 233.162 331.074 233.179L295.584 245.872L294.328 250.259Z" fill="white"/><path d="M294.328 250.259L293.714 243.81L330.716 232.893C330.869 232.848 331.036 232.916 331.117 233.057C331.144 233.104 331.123 233.162 331.074 233.179L295.584 245.872L294.328 250.259Z" fill="#3C5D87" fill-opacity="0.2"/><path d="M294.328 250.259L293.714 243.81L330.716 232.893C330.869 232.848 331.036 232.916 331.117 233.057C331.144 233.104 331.123 233.162 331.074 233.179L295.584 245.872L294.328 250.259Z" stroke="#083156" stroke-width="1.2563" stroke-linecap="round" stroke-linejoin="round"/><path d="M299.055 249.683L296.272 250.553C295.309 250.854 294.379 249.935 294.666 248.967L295.583 245.871L299.055 249.683Z" fill="white"/><path d="M299.055 249.683L296.272 250.553C295.309 250.854 294.379 249.935 294.666 248.967L295.583 245.871L299.055 249.683Z" fill="#3C5D87" fill-opacity="0.15"/><path d="M299.055 249.683L296.272 250.553C295.309 250.854 294.379 249.935 294.666 248.967L295.583 245.871L299.055 249.683Z" stroke="#083156" stroke-width="1.2563" stroke-linecap="round" stroke-linejoin="round"/><path opacity="0.2" d="M297.374 246.403C296.66 245.686 295.438 245.685 294.645 246.402C293.852 247.118 293.788 248.28 294.502 248.997L297.374 246.403ZM296.563 251.066C297.277 251.783 298.499 251.784 299.292 251.068C300.085 250.351 300.149 249.189 299.435 248.472L296.563 251.066ZM294.502 248.997L296.563 251.066L299.435 248.472L297.374 246.403L294.502 248.997Z" fill="#083156"/><path opacity="0.2" d="M294.973 244.346C294.321 244.57 293.984 245.285 294.22 245.942C294.456 246.6 295.176 246.95 295.828 246.725L294.973 244.346ZM330.211 234.862C330.863 234.638 331.2 233.923 330.963 233.265C330.727 232.608 330.008 232.258 329.356 232.483L330.211 234.862ZM295.828 246.725L330.211 234.862L329.356 232.483L294.973 244.346L295.828 246.725Z" fill="#083156"/><path d="M598.008 178.421L591.545 173.334C589.953 172.081 590.382 169.603 592.291 169.03L613.177 162.764C614.745 162.294 616.024 164.147 614.999 165.406L604.966 177.738C603.271 179.821 600.172 180.125 598.008 178.421Z" fill="white"/><path opacity="0.2" d="M603.003 176.885C602.555 177.398 602.617 178.183 603.14 178.638C603.663 179.093 604.45 179.046 604.898 178.533L603.003 176.885ZM616.457 165.284C616.904 164.77 616.843 163.985 616.32 163.53C615.797 163.075 615.01 163.123 614.562 163.636L616.457 165.284ZM604.898 178.533L616.457 165.284L614.562 163.636L603.003 176.885L604.898 178.533Z" fill="#083156"/><path d="M598.008 178.421L591.545 173.334C589.953 172.081 590.382 169.603 592.291 169.03L613.177 162.764C614.745 162.294 616.024 164.147 614.999 165.406L604.966 177.738C603.271 179.821 600.172 180.125 598.008 178.421Z" stroke="#083156" stroke-width="0.829525" stroke-linecap="round" stroke-linejoin="round"/><path opacity="0.5" d="M591.036 177.466C507.501 216.501 737.999 250.498 581.001 283.999" stroke="#FFD9AB" stroke-width="0.829525" stroke-linecap="round" stroke-dasharray="3 5.73"/><path d="M593.367 178.076L592.266 173.943L615.179 162.812C615.274 162.766 615.39 162.792 615.458 162.875C615.48 162.902 615.473 162.942 615.443 162.959L593.708 175.082L593.367 178.076Z" fill="white"/><path d="M593.367 178.076L592.266 173.943L615.179 162.812C615.274 162.766 615.39 162.792 615.458 162.875C615.48 162.902 615.473 162.942 615.443 162.959L593.708 175.082L593.367 178.076Z" fill="#3C5D87" fill-opacity="0.2"/><path d="M593.367 178.076L592.266 173.943L615.179 162.812C615.274 162.766 615.39 162.792 615.458 162.875C615.48 162.902 615.473 162.942 615.443 162.959L593.708 175.082L593.367 178.076Z" stroke="#083156" stroke-width="0.829525" stroke-linecap="round" stroke-linejoin="round"/><path d="M596.384 177.188L594.666 178.057C594.071 178.358 593.365 177.861 593.447 177.199L593.708 175.083L596.384 177.188Z" fill="white"/><path d="M596.384 177.188L594.666 178.057C594.071 178.358 593.365 177.861 593.447 177.199L593.708 175.083L596.384 177.188Z" fill="#3C5D87" fill-opacity="0.15"/><path d="M596.384 177.188L594.666 178.057C594.071 178.358 593.365 177.861 593.447 177.199L593.708 175.083L596.384 177.188Z" stroke="#083156" stroke-width="0.829525" stroke-linecap="round" stroke-linejoin="round"/><path opacity="0.2" d="M594.932 175.235C594.389 174.845 593.593 174.977 593.154 175.53C592.715 176.083 592.8 176.847 593.343 177.236L594.932 175.235ZM594.91 178.36C595.453 178.749 596.249 178.617 596.688 178.064C597.126 177.511 597.042 176.748 596.499 176.358L594.91 178.36ZM593.343 177.236L594.91 178.36L596.499 176.358L594.932 175.235L593.343 177.236Z" fill="#083156"/><path opacity="0.2" d="M593.144 174.155C592.744 174.372 592.602 174.874 592.828 175.277C593.053 175.679 593.56 175.829 593.96 175.612L593.144 174.155ZM615.064 164.149C615.464 163.932 615.606 163.43 615.381 163.028C615.156 162.625 614.649 162.475 614.249 162.693L615.064 164.149ZM593.96 175.612L615.064 164.149L614.249 162.693L593.144 174.155L593.96 175.612Z" fill="#083156"/><path d="M252.269 532.747L230.527 519.248C227.055 517.093 227.175 512 230.745 510.01L282.091 481.394C285.112 479.711 288.525 482.872 287.077 486.013L267.663 528.126C264.964 533.981 257.746 536.148 252.269 532.747Z" fill="white"/><path opacity="0.2" d="M263.104 526.63C262.439 527.953 262.973 529.564 264.296 530.229C265.619 530.894 267.23 530.36 267.895 529.038L263.104 526.63ZM288.747 487.54C289.412 486.217 288.878 484.606 287.556 483.941C286.233 483.276 284.621 483.81 283.957 485.133L288.747 487.54ZM267.895 529.038L288.747 487.54L283.957 485.133L263.104 526.63L267.895 529.038Z" fill="#083156"/><path d="M252.269 532.747L230.527 519.248C227.055 517.093 227.175 512 230.745 510.01L282.091 481.394C285.112 479.711 288.525 482.872 287.077 486.013L267.663 528.126C264.964 533.981 257.746 536.148 252.269 532.747Z" stroke="#083156" stroke-width="1.78712" stroke-linecap="round" stroke-linejoin="round"/><path opacity="0.5" d="M234.314 532.647C188.997 571.499 149.997 685.001 275.498 603.502C298.157 589.339 311.32 604.648 297.497 630.878" stroke="#FFD9AB" stroke-width="1.78712" stroke-linecap="round" stroke-dasharray="4.47 8.04"/><path d="M240.243 533.337L235.426 522.388L284.649 481.968C284.878 481.779 285.212 481.793 285.425 481.999C285.485 482.057 285.484 482.154 285.423 482.211L239.493 524.922L240.243 533.337Z" fill="white"/><path d="M240.243 533.337L235.426 522.388L284.649 481.968C284.878 481.779 285.212 481.793 285.425 481.999C285.485 482.057 285.484 482.154 285.423 482.211L239.493 524.922L240.243 533.337Z" fill="#3C5D87" fill-opacity="0.2"/><path d="M240.243 533.337L235.426 522.388L284.649 481.968C284.878 481.779 285.212 481.793 285.425 481.999C285.485 482.057 285.484 482.154 285.423 482.211L239.493 524.922L240.243 533.337Z" stroke="#083156" stroke-width="1.78712" stroke-linecap="round" stroke-linejoin="round"/><path d="M247.032 529.611L242.991 533.052C241.882 533.996 240.169 533.288 240.051 531.835L239.492 524.931L247.032 529.611Z" fill="white"/><path d="M247.032 529.611L242.991 533.052C241.882 533.996 240.169 533.288 240.051 531.835L239.492 524.931L247.032 529.611Z" fill="#3C5D87" fill-opacity="0.15"/><path d="M247.032 529.611L242.991 533.052C241.882 533.996 240.169 533.288 240.051 531.835L239.492 524.931L247.032 529.611Z" stroke="#083156" stroke-width="1.78712" stroke-linecap="round" stroke-linejoin="round"/><path opacity="0.2" d="M242.439 525.591C241.146 524.868 239.513 525.33 238.79 526.622C238.067 527.914 238.529 529.547 239.821 530.27L242.439 525.591ZM244.179 532.709C245.471 533.431 247.105 532.97 247.827 531.678C248.55 530.386 248.089 528.753 246.797 528.03L244.179 532.709ZM239.821 530.27L244.179 532.709L246.797 528.03L242.439 525.591L239.821 530.27Z" fill="#083156"/><path opacity="0.2" d="M237.808 523.119C237.077 523.782 237.022 524.913 237.686 525.643C238.349 526.374 239.479 526.429 240.21 525.766L237.808 523.119ZM284.961 485.154C285.692 484.491 285.747 483.361 285.083 482.63C284.42 481.899 283.29 481.844 282.559 482.507L284.961 485.154ZM240.21 525.766L284.961 485.154L282.559 482.507L237.808 523.119L240.21 525.766Z" fill="#083156"/></g><path d="M263.709 82.7452L258.4 71.4771C257.093 68.7009 259.353 65.6348 262.326 66.1519L294.862 71.8112C297.305 72.2361 297.781 75.6122 295.541 76.6237L273.597 86.5323C269.89 88.2059 265.487 86.5194 263.709 82.7452Z" fill="white"/><path opacity="0.2" d="M271.514 84.0471C270.56 84.439 270.111 85.5435 270.511 86.5142C270.912 87.4849 272.01 87.9541 272.964 87.5622L271.514 84.0471ZM297.595 77.4445C298.549 77.0527 298.998 75.9481 298.598 74.9774C298.197 74.0067 297.099 73.5375 296.145 73.9294L297.595 77.4445ZM272.964 87.5622L297.595 77.4445L296.145 73.9294L271.514 84.0471L272.964 87.5622Z" fill="#083156"/><path d="M263.709 82.7452L258.4 71.4771C257.093 68.7009 259.353 65.6348 262.326 66.1519L294.862 71.8112C297.305 72.2361 297.781 75.6122 295.541 76.6237L273.597 86.5323C269.89 88.2059 265.487 86.5194 263.709 82.7452Z" stroke="#083156" stroke-width="1.2563" stroke-linecap="round" stroke-linejoin="round"/><path opacity="0.5" d="M254.908 76.7347C201.741 86.0046 191.995 39.4996 136.495 119C126.653 133.098 112.945 126.145 98.9949 121.455" stroke="#FFD9AB" stroke-width="1.2563" stroke-linecap="round" stroke-dasharray="3.14 5.65"/><path d="M257.661 79.1352L258.97 72.7904L296.143 73.1262C296.303 73.1277 296.442 73.2418 296.478 73.4005C296.49 73.4525 296.453 73.5019 296.401 73.5045L260.152 75.3105L257.661 79.1352Z" fill="white"/><path d="M257.661 79.1352L258.97 72.7904L296.143 73.1262C296.303 73.1277 296.442 73.2418 296.478 73.4005C296.49 73.4525 296.453 73.5019 296.401 73.5045L260.152 75.3105L257.661 79.1352Z" fill="#3C5D87" fill-opacity="0.2"/><path d="M257.661 79.1352L258.97 72.7904L296.143 73.1262C296.303 73.1277 296.442 73.2418 296.478 73.4005C296.49 73.4525 296.453 73.5019 296.401 73.5045L260.152 75.3105L257.661 79.1352Z" stroke="#083156" stroke-width="1.2563" stroke-linecap="round" stroke-linejoin="round"/><path d="M262.344 79.9773L259.428 79.9913C258.419 79.9961 257.8 78.8444 258.359 78.0028L260.146 75.313L262.344 79.9773Z" fill="white"/><path d="M262.344 79.9773L259.428 79.9913C258.419 79.9961 257.8 78.8444 258.359 78.0028L260.146 75.313L262.344 79.9773Z" fill="#3C5D87" fill-opacity="0.15"/><path d="M262.344 79.9773L259.428 79.9913C258.419 79.9961 257.8 78.8444 258.359 78.0028L260.146 75.313L262.344 79.9773Z" stroke="#083156" stroke-width="1.2563" stroke-linecap="round" stroke-linejoin="round"/><path opacity="0.2" d="M261.704 76.3499C261.232 75.4545 260.064 75.0947 259.095 75.5463C258.127 75.9979 257.724 77.0898 258.196 77.9852L261.704 76.3499ZM259.557 80.5684C260.029 81.4637 261.197 81.8235 262.165 81.3719C263.134 80.9203 263.537 79.8284 263.065 78.9331L259.557 80.5684ZM258.196 77.9852L259.557 80.5684L263.065 78.9331L261.704 76.3499L258.196 77.9852Z" fill="#083156"/><path opacity="0.2" d="M260.013 73.6711C259.324 73.6944 258.792 74.2788 258.824 74.9762C258.857 75.6737 259.441 76.2202 260.13 76.1968L260.013 73.6711ZM296.482 74.9651C297.171 74.9418 297.703 74.3574 297.67 73.6599C297.638 72.9625 297.053 72.416 296.364 72.4393L296.482 74.9651ZM260.13 76.1968L296.482 74.9651L296.364 72.4393L260.013 73.6711L260.13 76.1968Z" fill="#083156"/></svg>