<svg width="128" height="89" viewBox="0 0 128 89" fill="none" xmlns="http://www.w3.org/2000/svg"><rect opacity="0.45" x="108.121" y="22.4102" width="71.6631" height="71.6631" rx="17.4904" transform="rotate(101.577 108.121 22.4102)" fill="#FFD9AB"/><rect opacity="0.45" x="128.613" y="30.8994" width="13.8493" height="13.8493" rx="3.96001" transform="rotate(112.532 128.613 30.8994)" fill="#FFD9AB"/><rect opacity="0.5" width="6.1394" height="6.1394" rx="1.75547" transform="matrix(0.3832 0.923665 0.923665 -0.3832 0.109375 28.7939)" fill="#FFD9AB"/><rect opacity="0.5" width="8.7217" height="8.7217" rx="2.49384" transform="matrix(-0.184328 0.982865 0.982865 0.184328 14.6406 75.9346)" fill="#FFD9AB"/><path d="M25.0002 33C25.0002 28.286 25.0002 25.9289 26.4647 24.4645C27.9292 23 30.2862 23 35.0002 23H79.0002C83.7143 23 86.0713 23 87.5358 24.4645C89.0002 25.9289 89.0002 28.286 89.0002 33V59C89.0002 63.714 89.0002 66.0711 87.5358 67.5355C86.0713 69 83.7143 69 79.0002 69H35.0002C30.2862 69 27.9292 69 26.4647 67.5355C25.0002 66.0711 25.0002 63.714 25.0002 59V33Z" fill="white" stroke="#3C5D87" stroke-width="1.33333"/><path d="M23.0002 23.2C23.0002 22.0799 23.0002 21.5198 23.2182 21.092C23.41 20.7157 23.7159 20.4097 24.0923 20.218C24.5201 20 25.0801 20 26.2002 20H87.8002C88.9204 20 89.4804 20 89.9082 20.218C90.2845 20.4097 90.5905 20.7157 90.7823 21.092C91.0002 21.5198 91.0002 22.0799 91.0002 23.2V23.2C91.0002 24.8802 91.0002 25.7202 90.6733 26.362C90.3856 26.9265 89.9267 27.3854 89.3622 27.673C88.7205 28 87.8804 28 86.2002 28H27.8002C26.1201 28 25.28 28 24.6383 27.673C24.0738 27.3854 23.6148 26.9265 23.3272 26.362C23.0002 25.7202 23.0002 24.8802 23.0002 23.2V23.2Z" fill="white" stroke="#3C5D87" stroke-width="1.33333"/><path d="M22.9963 23C22.9963 21.3431 24.3395 20 25.9963 20H33.9963L29.9963 28H25.9963C24.3395 28 22.9963 26.6569 22.9963 25V23Z" fill="#3C5D87"/><circle cx="26.9963" cy="23.75" r="1.5" fill="#FFD9AB"/><path d="M40.9963 20H47.9963L43.9963 28H36.9963L40.9963 20Z" fill="#3C5D87"/><path d="M54.9963 20H61.9963L57.9963 28H50.9963L54.9963 20Z" fill="#3C5D87"/><path d="M68.9963 20H75.9963L71.9963 28H64.9963L68.9963 20Z" fill="#3C5D87"/><path d="M82.9963 20H89.9963L85.9963 28H78.9963L82.9963 20Z" fill="#3C5D87"/><path d="M22.6772 16.6963C22.8717 17.7994 22.969 18.3509 23.258 18.7344C23.5121 19.0717 23.8666 19.3199 24.2705 19.4434C24.7297 19.5837 25.2812 19.4865 26.3843 19.292L87.0485 8.59525C88.1515 8.40075 88.7031 8.3035 89.0866 8.01453C89.4239 7.76035 89.672 7.40591 89.7955 7.002C89.9359 6.54283 89.8387 5.99128 89.6442 4.8882V4.8882C89.3524 3.23356 89.2065 2.40625 88.7731 1.83104C88.3918 1.32508 87.8601 0.9528 87.2543 0.767572C86.5655 0.556995 85.7382 0.702873 84.0836 0.994629L26.5708 11.1357C24.9162 11.4274 24.0889 11.5733 23.5136 12.0068C23.0077 12.388 22.6354 12.9197 22.4502 13.5256C22.2396 14.2143 22.3855 15.0416 22.6772 16.6963V16.6963Z" fill="white" stroke="#3C5D87" stroke-width="1.33333"/><path d="M22.7081 16.8942C22.9958 18.5259 24.5517 19.6154 26.1834 19.3277L34.0619 17.9385L28.7335 10.7546L24.7942 11.4492C23.1626 11.7369 22.0731 13.2929 22.3608 14.9246L22.7081 16.8942Z" fill="#3C5D87"/><circle r="1.5" transform="matrix(0.984808 -0.173648 -0.173648 -0.984808 26.517 15.4606)" fill="#FFD9AB"/><path d="M40.9556 16.7234L47.8492 15.5078L42.5208 8.32397L35.6272 9.53951L40.9556 16.7234Z" fill="#3C5D87"/><path d="M54.7429 14.2917L61.6366 13.0762L56.3082 5.89233L49.4145 7.10787L54.7429 14.2917Z" fill="#3C5D87"/><path d="M68.5301 11.8611L75.4237 10.6455L70.0953 3.46166L63.2016 4.6772L68.5301 11.8611Z" fill="#3C5D87"/><path d="M82.3174 9.42943L89.2111 8.21389L83.8826 1.03002L76.989 2.24556L82.3174 9.42943Z" fill="#3C5D87"/><path d="M29 36.001H55" stroke="#FFD9AB" stroke-width="1.33333" stroke-linecap="round"/><path d="M29 39.333H75" stroke="#FFD9AB" stroke-width="1.33333" stroke-linecap="round"/><path d="M29 48.083H32.6667" stroke="#FFD9AB" stroke-width="1.33333" stroke-linecap="round"/><path d="M29 63.083H36.6667" stroke="#FFD9AB" stroke-width="1.33333" stroke-linecap="round"/><path d="M47.9961 48.083H53.6628" stroke="#FFD9AB" stroke-width="1.33333" stroke-linecap="round"/><path d="M47.9961 63.083H55.6628" stroke="#FFD9AB" stroke-width="1.33333" stroke-linecap="round"/><path d="M69.9961 48.083H74.6628" stroke="#FFD9AB" stroke-width="1.33333" stroke-linecap="round"/><path d="M69.9961 63.083H72.6628" stroke="#FFD9AB" stroke-width="1.33333" stroke-linecap="round"/><path d="M29 51.4189H43.6667" stroke="#FFD9AB" stroke-width="1.33333" stroke-linecap="round"/><path d="M29 54.4189H38.6667" stroke="#FFD9AB" stroke-width="1.33333" stroke-linecap="round"/><path d="M69.9961 51.4189H82.6628" stroke="#FFD9AB" stroke-width="1.33333" stroke-linecap="round"/><path d="M69.9961 54.4189H79.6628" stroke="#FFD9AB" stroke-width="1.33333" stroke-linecap="round"/><path d="M48 51.4189H56.6667" stroke="#FFD9AB" stroke-width="1.33333" stroke-linecap="round"/><path d="M48 54.4189H63.6667" stroke="#FFD9AB" stroke-width="1.33333" stroke-linecap="round"/><rect opacity="0.15" x="30" y="66.751" width="54" height="5.33333" rx="2" fill="#3C5D87"/><path opacity="0.1" d="M58 56.751C58 50.1513 58 46.8515 60.0503 44.8012C62.1005 42.751 65.4003 42.751 72 42.751H89V69.0843H58V56.751Z" fill="#3C5D87"/><rect opacity="0.15" x="30" y="25.751" width="54" height="5.33333" rx="2" fill="#3C5D87"/><rect opacity="0.15" x="41.9453" y="13.4814" width="42" height="5.33333" rx="2" transform="rotate(-10 41.9453 13.4814)" fill="#3C5D87"/><path fill-rule="evenodd" clip-rule="evenodd" d="M108.49 49.5893C110.078 51.1775 110.078 53.7339 110.078 58.8465V69.1818C110.078 69.6547 110.078 70.1057 110.077 70.5361H110.078V85.962C110.078 87.7737 107.888 88.681 106.607 87.4L99.2342 80.0273C99.2338 80.0273 99.2333 80.0273 99.2329 80.0273H74.8509C69.7383 80.0273 67.182 80.0273 65.5937 78.439C64.0054 76.8507 64.0054 74.2944 64.0054 69.1818V58.8465C64.0054 53.7339 64.0054 51.1775 65.5937 49.5893C67.182 48.001 69.7383 48.001 74.8509 48.001H99.2329C104.345 48.001 106.902 48.001 108.49 49.5893Z" fill="white"/><path d="M110.077 70.5361V71.214H109.397L109.399 70.5342L110.077 70.5361ZM110.078 70.5361V69.8583H110.756V70.5361H110.078ZM106.607 87.4L106.128 87.8793L106.607 87.4ZM99.2342 80.0273V79.3494H99.515L99.7135 79.5479L99.2342 80.0273ZM65.5937 78.439L66.073 77.9597L65.5937 78.439ZM65.5937 49.5893L66.073 50.0686V50.0686L65.5937 49.5893ZM109.401 58.8465C109.401 56.271 109.399 54.4076 109.208 52.9866C109.02 51.585 108.658 50.7158 108.011 50.0686L108.969 49.11C109.91 50.051 110.343 51.2541 110.552 52.8059C110.758 54.3383 110.756 56.3093 110.756 58.8465H109.401ZM109.401 69.1818V58.8465H110.756V69.1818H109.401ZM109.399 70.5342C109.401 70.1049 109.401 69.6549 109.401 69.1818H110.756C110.756 69.6545 110.756 70.1065 110.755 70.5381L109.399 70.5342ZM110.077 69.8583H110.078V71.214H110.077V69.8583ZM110.756 70.5361V85.962H109.401V70.5361H110.756ZM110.756 85.962C110.756 88.3776 107.836 89.5874 106.128 87.8793L107.086 86.9207C107.94 87.7747 109.401 87.1698 109.401 85.962H110.756ZM106.128 87.8793L98.7549 80.5066L99.7135 79.5479L107.086 86.9207L106.128 87.8793ZM99.2329 79.3494C99.2329 79.3494 99.2329 79.3494 99.2329 79.3494C99.2329 79.3494 99.2329 79.3494 99.2329 79.3494C99.2329 79.3494 99.2329 79.3494 99.2329 79.3494C99.2329 79.3494 99.2329 79.3494 99.2329 79.3494C99.2329 79.3494 99.2329 79.3494 99.2329 79.3494C99.2329 79.3494 99.2329 79.3494 99.2329 79.3494C99.2329 79.3494 99.2329 79.3494 99.2329 79.3494C99.2329 79.3494 99.2329 79.3494 99.2329 79.3494C99.2329 79.3494 99.2329 79.3494 99.2329 79.3494C99.2329 79.3494 99.2329 79.3494 99.2329 79.3494C99.2329 79.3494 99.2329 79.3494 99.2329 79.3494C99.2329 79.3494 99.2329 79.3494 99.2329 79.3494C99.2329 79.3494 99.2329 79.3494 99.2329 79.3494C99.2329 79.3494 99.2329 79.3494 99.2329 79.3494C99.2329 79.3494 99.2329 79.3494 99.2329 79.3494C99.2329 79.3494 99.2329 79.3494 99.2329 79.3494C99.2329 79.3494 99.2329 79.3494 99.2329 79.3494C99.2329 79.3494 99.2329 79.3494 99.2329 79.3494C99.2329 79.3494 99.2329 79.3494 99.2329 79.3494C99.2329 79.3494 99.2329 79.3494 99.2329 79.3494C99.2329 79.3494 99.2329 79.3494 99.2329 79.3494C99.2329 79.3494 99.2329 79.3494 99.2329 79.3494C99.233 79.3494 99.233 79.3494 99.233 79.3494C99.233 79.3494 99.233 79.3494 99.233 79.3494C99.233 79.3494 99.233 79.3494 99.233 79.3494C99.233 79.3494 99.233 79.3494 99.233 79.3494C99.233 79.3494 99.233 79.3494 99.233 79.3494C99.233 79.3494 99.233 79.3494 99.233 79.3494C99.233 79.3494 99.233 79.3494 99.233 79.3494C99.233 79.3494 99.233 79.3494 99.233 79.3494C99.233 79.3494 99.233 79.3494 99.233 79.3494C99.233 79.3494 99.233 79.3494 99.233 79.3494C99.233 79.3494 99.233 79.3494 99.233 79.3494C99.233 79.3494 99.233 79.3494 99.233 79.3494C99.233 79.3494 99.233 79.3494 99.233 79.3494C99.233 79.3494 99.233 79.3494 99.233 79.3494C99.233 79.3494 99.233 79.3494 99.233 79.3494C99.233 79.3494 99.233 79.3494 99.233 79.3494C99.233 79.3494 99.233 79.3494 99.233 79.3494C99.233 79.3494 99.233 79.3494 99.233 79.3494C99.233 79.3494 99.233 79.3494 99.233 79.3494C99.233 79.3494 99.233 79.3494 99.233 79.3494C99.233 79.3494 99.233 79.3494 99.233 79.3494C99.233 79.3494 99.233 79.3494 99.233 79.3494C99.233 79.3494 99.233 79.3494 99.233 79.3494C99.233 79.3494 99.233 79.3494 99.233 79.3494C99.233 79.3494 99.233 79.3494 99.233 79.3494C99.233 79.3494 99.233 79.3494 99.233 79.3494C99.233 79.3494 99.233 79.3494 99.233 79.3494C99.233 79.3494 99.233 79.3494 99.233 79.3494C99.233 79.3494 99.233 79.3494 99.233 79.3494C99.233 79.3494 99.233 79.3494 99.233 79.3494C99.233 79.3494 99.233 79.3494 99.233 79.3494C99.233 79.3494 99.233 79.3494 99.233 79.3494C99.233 79.3494 99.233 79.3494 99.233 79.3494C99.233 79.3494 99.233 79.3494 99.233 79.3494C99.233 79.3494 99.233 79.3494 99.233 79.3494C99.233 79.3494 99.233 79.3494 99.233 79.3494C99.233 79.3494 99.233 79.3494 99.233 79.3494C99.233 79.3494 99.233 79.3494 99.233 79.3494C99.233 79.3494 99.233 79.3494 99.233 79.3494C99.233 79.3494 99.233 79.3494 99.2331 79.3494C99.2331 79.3494 99.2331 79.3494 99.2331 79.3494C99.2331 79.3494 99.2331 79.3494 99.2331 79.3494C99.2331 79.3494 99.2331 79.3494 99.2331 79.3494C99.2331 79.3494 99.2331 79.3494 99.2331 79.3494C99.2331 79.3494 99.2331 79.3494 99.2331 79.3494C99.2331 79.3494 99.2331 79.3494 99.2331 79.3494C99.2331 79.3494 99.2331 79.3494 99.2331 79.3494C99.2331 79.3494 99.2331 79.3494 99.2331 79.3494C99.2331 79.3494 99.2331 79.3494 99.2331 79.3494C99.2331 79.3494 99.2331 79.3494 99.2331 79.3494C99.2331 79.3494 99.2331 79.3494 99.2331 79.3494C99.2331 79.3494 99.2331 79.3494 99.2331 79.3494C99.2331 79.3494 99.2331 79.3494 99.2331 79.3494C99.2331 79.3494 99.2331 79.3494 99.2331 79.3494C99.2331 79.3494 99.2331 79.3494 99.2331 79.3494C99.2331 79.3494 99.2331 79.3494 99.2331 79.3494C99.2331 79.3494 99.2331 79.3494 99.2331 79.3494C99.2331 79.3494 99.2331 79.3494 99.2331 79.3494C99.2331 79.3494 99.2331 79.3494 99.2331 79.3494C99.2331 79.3494 99.2331 79.3494 99.2331 79.3494C99.2331 79.3494 99.2331 79.3494 99.2331 79.3494C99.2331 79.3494 99.2331 79.3494 99.2331 79.3494C99.2331 79.3494 99.2331 79.3494 99.2331 79.3494C99.2331 79.3494 99.2331 79.3494 99.2331 79.3494C99.2331 79.3494 99.2331 79.3494 99.2331 79.3494C99.2331 79.3494 99.2331 79.3494 99.2331 79.3494C99.2331 79.3494 99.2331 79.3494 99.2331 79.3494C99.2331 79.3494 99.2331 79.3494 99.2331 79.3494C99.2331 79.3494 99.2331 79.3494 99.2331 79.3494C99.2331 79.3494 99.2331 79.3494 99.2331 79.3494C99.2331 79.3494 99.2331 79.3494 99.2331 79.3494C99.2331 79.3494 99.2331 79.3494 99.2331 79.3494C99.2331 79.3494 99.2331 79.3494 99.2331 79.3494C99.2331 79.3494 99.2331 79.3494 99.2331 79.3494C99.2331 79.3494 99.2331 79.3494 99.2331 79.3494C99.2331 79.3494 99.2331 79.3494 99.2331 79.3494C99.2331 79.3494 99.2331 79.3494 99.2331 79.3494C99.2331 79.3494 99.2331 79.3494 99.2331 79.3494C99.2331 79.3494 99.2331 79.3494 99.2331 79.3494C99.2332 79.3494 99.2332 79.3494 99.2332 79.3494C99.2332 79.3494 99.2332 79.3494 99.2332 79.3494C99.2332 79.3494 99.2332 79.3494 99.2332 79.3494C99.2332 79.3494 99.2332 79.3494 99.2332 79.3494C99.2332 79.3494 99.2332 79.3494 99.2332 79.3494C99.2332 79.3494 99.2332 79.3494 99.2332 79.3494C99.2332 79.3494 99.2332 79.3494 99.2332 79.3494C99.2332 79.3494 99.2332 79.3494 99.2332 79.3494C99.2332 79.3494 99.2332 79.3494 99.2332 79.3494C99.2332 79.3494 99.2332 79.3494 99.2332 79.3494C99.2332 79.3494 99.2332 79.3494 99.2332 79.3494C99.2332 79.3494 99.2332 79.3494 99.2332 79.3494C99.2332 79.3494 99.2332 79.3494 99.2332 79.3494C99.2332 79.3494 99.2332 79.3494 99.2332 79.3494C99.2332 79.3494 99.2332 79.3494 99.2332 79.3494C99.2332 79.3494 99.2332 79.3494 99.2332 79.3494C99.2332 79.3494 99.2332 79.3494 99.2332 79.3494C99.2332 79.3494 99.2332 79.3494 99.2332 79.3494C99.2332 79.3494 99.2332 79.3494 99.2332 79.3494C99.2332 79.3494 99.2332 79.3494 99.2332 79.3494C99.2332 79.3494 99.2332 79.3494 99.2332 79.3494C99.2332 79.3494 99.2332 79.3494 99.2332 79.3494C99.2332 79.3494 99.2332 79.3494 99.2332 79.3494C99.2332 79.3494 99.2332 79.3494 99.2332 79.3494C99.2332 79.3494 99.2332 79.3494 99.2332 79.3494C99.2332 79.3494 99.2332 79.3494 99.2332 79.3494C99.2332 79.3494 99.2332 79.3494 99.2332 79.3494C99.2332 79.3494 99.2332 79.3494 99.2332 79.3494C99.2332 79.3494 99.2332 79.3494 99.2332 79.3494C99.2332 79.3494 99.2332 79.3494 99.2332 79.3494C99.2332 79.3494 99.2332 79.3494 99.2332 79.3494C99.2332 79.3494 99.2332 79.3494 99.2332 79.3494C99.2332 79.3494 99.2332 79.3494 99.2332 79.3494C99.2332 79.3494 99.2332 79.3494 99.2332 79.3494C99.2332 79.3494 99.2332 79.3494 99.2332 79.3494C99.2332 79.3494 99.2332 79.3494 99.2332 79.3494C99.2332 79.3494 99.2332 79.3494 99.2332 79.3494C99.2332 79.3494 99.2332 79.3494 99.2332 79.3494C99.2332 79.3494 99.2332 79.3494 99.2332 79.3494C99.2332 79.3494 99.2333 79.3494 99.2333 79.3494C99.2333 79.3494 99.2333 79.3494 99.2333 79.3494C99.2333 79.3494 99.2333 79.3494 99.2333 79.3494C99.2333 79.3494 99.2333 79.3494 99.2333 79.3494C99.2333 79.3494 99.2333 79.3494 99.2333 79.3494C99.2333 79.3494 99.2333 79.3494 99.2333 79.3494C99.2333 79.3494 99.2333 79.3494 99.2333 79.3494C99.2333 79.3494 99.2333 79.3494 99.2333 79.3494C99.2333 79.3494 99.2333 79.3494 99.2333 79.3494C99.2333 79.3494 99.2333 79.3494 99.2333 79.3494C99.2333 79.3494 99.2333 79.3494 99.2333 79.3494C99.2333 79.3494 99.2333 79.3494 99.2333 79.3494C99.2333 79.3494 99.2333 79.3494 99.2333 79.3494C99.2333 79.3494 99.2333 79.3494 99.2333 79.3494C99.2333 79.3494 99.2333 79.3494 99.2333 79.3494C99.2333 79.3494 99.2333 79.3494 99.2333 79.3494C99.2333 79.3494 99.2333 79.3494 99.2333 79.3494C99.2333 79.3494 99.2333 79.3494 99.2333 79.3494C99.2333 79.3494 99.2333 79.3494 99.2333 79.3494C99.2333 79.3494 99.2333 79.3494 99.2333 79.3494C99.2333 79.3494 99.2333 79.3494 99.2333 79.3494C99.2333 79.3494 99.2333 79.3494 99.2333 79.3494C99.2333 79.3494 99.2333 79.3494 99.2333 79.3494C99.2333 79.3494 99.2333 79.3494 99.2333 79.3494C99.2333 79.3494 99.2333 79.3494 99.2333 79.3494C99.2333 79.3494 99.2333 79.3494 99.2333 79.3494C99.2333 79.3494 99.2333 79.3494 99.2333 79.3494C99.2333 79.3494 99.2333 79.3494 99.2333 79.3494C99.2333 79.3494 99.2333 79.3494 99.2333 79.3494C99.2333 79.3494 99.2333 79.3494 99.2333 79.3494C99.2333 79.3494 99.2333 79.3494 99.2333 79.3494C99.2333 79.3494 99.2333 79.3494 99.2333 79.3494C99.2333 79.3494 99.2333 79.3494 99.2333 79.3494C99.2333 79.3494 99.2333 79.3494 99.2333 79.3494C99.2333 79.3494 99.2333 79.3494 99.2333 79.3494C99.2333 79.3494 99.2333 79.3494 99.2333 79.3494C99.2333 79.3494 99.2333 79.3494 99.2333 79.3494C99.2333 79.3494 99.2333 79.3494 99.2333 79.3494C99.2333 79.3494 99.2333 79.3494 99.2333 79.3494C99.2333 79.3494 99.2333 79.3494 99.2334 79.3494C99.2334 79.3494 99.2334 79.3494 99.2334 79.3494C99.2334 79.3494 99.2334 79.3494 99.2334 79.3494C99.2334 79.3494 99.2334 79.3494 99.2334 79.3494C99.2334 79.3494 99.2334 79.3494 99.2334 79.3494C99.2334 79.3494 99.2334 79.3494 99.2334 79.3494C99.2334 79.3494 99.2334 79.3494 99.2334 79.3494C99.2334 79.3494 99.2334 79.3494 99.2334 79.3494C99.2334 79.3494 99.2334 79.3494 99.2334 79.3494C99.2334 79.3494 99.2334 79.3494 99.2334 79.3494C99.2334 79.3494 99.2334 79.3494 99.2334 79.3494C99.2334 79.3494 99.2334 79.3494 99.2334 79.3494C99.2334 79.3494 99.2334 79.3494 99.2334 79.3494C99.2334 79.3494 99.2334 79.3494 99.2334 79.3494C99.2334 79.3494 99.2334 79.3494 99.2334 79.3494C99.2334 79.3494 99.2334 79.3494 99.2334 79.3494C99.2334 79.3494 99.2334 79.3494 99.2334 79.3494C99.2334 79.3494 99.2334 79.3494 99.2334 79.3494C99.2334 79.3494 99.2334 79.3494 99.2334 79.3494C99.2334 79.3494 99.2334 79.3494 99.2334 79.3494C99.2334 79.3494 99.2334 79.3494 99.2334 79.3494C99.2334 79.3494 99.2334 79.3494 99.2334 79.3494C99.2334 79.3494 99.2334 79.3494 99.2334 79.3494C99.2334 79.3494 99.2334 79.3494 99.2334 79.3494C99.2334 79.3494 99.2334 79.3494 99.2334 79.3494C99.2334 79.3494 99.2334 79.3494 99.2334 79.3494C99.2334 79.3494 99.2334 79.3494 99.2334 79.3494C99.2334 79.3494 99.2334 79.3494 99.2334 79.3494C99.2334 79.3494 99.2334 79.3494 99.2334 79.3494C99.2334 79.3494 99.2334 79.3494 99.2334 79.3494C99.2334 79.3494 99.2334 79.3494 99.2334 79.3494C99.2334 79.3494 99.2334 79.3494 99.2334 79.3494C99.2334 79.3494 99.2334 79.3494 99.2334 79.3494C99.2334 79.3494 99.2334 79.3494 99.2334 79.3494C99.2334 79.3494 99.2334 79.3494 99.2334 79.3494C99.2334 79.3494 99.2334 79.3494 99.2334 79.3494C99.2334 79.3494 99.2334 79.3494 99.2334 79.3494C99.2334 79.3494 99.2334 79.3494 99.2334 79.3494C99.2334 79.3494 99.2334 79.3494 99.2334 79.3494C99.2334 79.3494 99.2334 79.3494 99.2334 79.3494C99.2334 79.3494 99.2335 79.3494 99.2335 79.3494C99.2335 79.3494 99.2335 79.3494 99.2335 79.3494C99.2335 79.3494 99.2335 79.3494 99.2335 79.3494C99.2335 79.3494 99.2335 79.3494 99.2335 79.3494C99.2335 79.3494 99.2335 79.3494 99.2335 79.3494C99.2335 79.3494 99.2335 79.3494 99.2335 79.3494C99.2335 79.3494 99.2335 79.3494 99.2335 79.3494C99.2335 79.3494 99.2335 79.3494 99.2335 79.3494C99.2335 79.3494 99.2335 79.3494 99.2335 79.3494C99.2335 79.3494 99.2335 79.3494 99.2335 79.3494C99.2335 79.3494 99.2335 79.3494 99.2335 79.3494C99.2335 79.3494 99.2335 79.3494 99.2335 79.3494C99.2335 79.3494 99.2335 79.3494 99.2335 79.3494C99.2335 79.3494 99.2335 79.3494 99.2335 79.3494C99.2335 79.3494 99.2335 79.3494 99.2335 79.3494C99.2335 79.3494 99.2335 79.3494 99.2335 79.3494C99.2335 79.3494 99.2335 79.3494 99.2335 79.3494C99.2335 79.3494 99.2335 79.3494 99.2335 79.3494C99.2335 79.3494 99.2335 79.3494 99.2335 79.3494C99.2335 79.3494 99.2335 79.3494 99.2335 79.3494C99.2335 79.3494 99.2335 79.3494 99.2335 79.3494C99.2335 79.3494 99.2335 79.3494 99.2335 79.3494C99.2335 79.3494 99.2335 79.3494 99.2335 79.3494C99.2335 79.3494 99.2335 79.3494 99.2335 79.3494C99.2335 79.3494 99.2335 79.3494 99.2335 79.3494C99.2335 79.3494 99.2335 79.3494 99.2335 79.3494C99.2335 79.3494 99.2335 79.3494 99.2335 79.3494C99.2335 79.3494 99.2335 79.3494 99.2335 79.3494C99.2335 79.3494 99.2335 79.3494 99.2335 79.3494C99.2335 79.3494 99.2335 79.3494 99.2335 79.3494C99.2335 79.3494 99.2335 79.3494 99.2335 79.3494C99.2335 79.3494 99.2335 79.3494 99.2335 79.3494C99.2335 79.3494 99.2335 79.3494 99.2335 79.3494C99.2335 79.3494 99.2335 79.3494 99.2335 79.3494C99.2335 79.3494 99.2335 79.3494 99.2335 79.3494C99.2335 79.3494 99.2335 79.3494 99.2335 79.3494C99.2335 79.3494 99.2335 79.3494 99.2335 79.3494C99.2335 79.3494 99.2335 79.3494 99.2335 79.3494C99.2335 79.3494 99.2335 79.3494 99.2335 79.3494C99.2335 79.3494 99.2336 79.3494 99.2336 79.3494C99.2336 79.3494 99.2336 79.3494 99.2336 79.3494C99.2336 79.3494 99.2336 79.3494 99.2336 79.3494C99.2336 79.3494 99.2336 79.3494 99.2336 79.3494C99.2336 79.3494 99.2336 79.3494 99.2336 79.3494C99.2336 79.3494 99.2336 79.3494 99.2336 79.3494C99.2336 79.3494 99.2336 79.3494 99.2336 79.3494C99.2336 79.3494 99.2336 79.3494 99.2336 79.3494C99.2336 79.3494 99.2336 79.3494 99.2336 79.3494C99.2336 79.3494 99.2336 79.3494 99.2336 79.3494C99.2336 79.3494 99.2336 79.3494 99.2336 79.3494C99.2336 79.3494 99.2336 79.3494 99.2336 79.3494C99.2336 79.3494 99.2336 79.3494 99.2336 79.3494C99.2336 79.3494 99.2336 79.3494 99.2336 79.3494C99.2336 79.3494 99.2336 79.3494 99.2336 79.3494C99.2336 79.3494 99.2336 79.3494 99.2336 79.3494C99.2336 79.3494 99.2336 79.3494 99.2336 79.3494C99.2336 79.3494 99.2336 79.3494 99.2336 79.3494C99.2336 79.3494 99.2336 79.3494 99.2336 79.3494C99.2336 79.3494 99.2336 79.3494 99.2336 79.3494C99.2336 79.3494 99.2336 79.3494 99.2336 79.3494C99.2336 79.3494 99.2336 79.3494 99.2336 79.3494C99.2336 79.3494 99.2336 79.3494 99.2336 79.3494C99.2336 79.3494 99.2336 79.3494 99.2336 79.3494C99.2336 79.3494 99.2336 79.3494 99.2336 79.3494C99.2336 79.3494 99.2336 79.3494 99.2336 79.3494C99.2336 79.3494 99.2336 79.3494 99.2336 79.3494C99.2336 79.3494 99.2336 79.3494 99.2336 79.3494C99.2336 79.3494 99.2336 79.3494 99.2336 79.3494C99.2336 79.3494 99.2336 79.3494 99.2336 79.3494C99.2336 79.3494 99.2336 79.3494 99.2336 79.3494C99.2336 79.3494 99.2336 79.3494 99.2336 79.3494C99.2336 79.3494 99.2336 79.3494 99.2336 79.3494C99.2336 79.3494 99.2336 79.3494 99.2336 79.3494C99.2336 79.3494 99.2336 79.3494 99.2336 79.3494C99.2336 79.3494 99.2336 79.3494 99.2336 79.3494C99.2336 79.3494 99.2336 79.3494 99.2336 79.3494C99.2336 79.3494 99.2336 79.3494 99.2336 79.3494C99.2336 79.3494 99.2336 79.3494 99.2336 79.3494C99.2336 79.3494 99.2336 79.3494 99.2337 79.3494C99.2337 79.3494 99.2337 79.3494 99.2337 79.3494C99.2337 79.3494 99.2337 79.3494 99.2337 79.3494C99.2337 79.3494 99.2337 79.3494 99.2337 79.3494C99.2337 79.3494 99.2337 79.3494 99.2337 79.3494C99.2337 79.3494 99.2337 79.3494 99.2337 79.3494C99.2337 79.3494 99.2337 79.3494 99.2337 79.3494C99.2337 79.3494 99.2337 79.3494 99.2337 79.3494C99.2337 79.3494 99.2337 79.3494 99.2337 79.3494C99.2337 79.3494 99.2337 79.3494 99.2337 79.3494C99.2337 79.3494 99.2337 79.3494 99.2337 79.3494C99.2337 79.3494 99.2337 79.3494 99.2337 79.3494C99.2337 79.3494 99.2337 79.3494 99.2337 79.3494C99.2337 79.3494 99.2337 79.3494 99.2337 79.3494C99.2337 79.3494 99.2337 79.3494 99.2337 79.3494C99.2337 79.3494 99.2337 79.3494 99.2337 79.3494C99.2337 79.3494 99.2337 79.3494 99.2337 79.3494C99.2337 79.3494 99.2337 79.3494 99.2337 79.3494C99.2337 79.3494 99.2337 79.3494 99.2337 79.3494C99.2337 79.3494 99.2337 79.3494 99.2337 79.3494C99.2337 79.3494 99.2337 79.3494 99.2337 79.3494C99.2337 79.3494 99.2337 79.3494 99.2337 79.3494C99.2337 79.3494 99.2337 79.3494 99.2337 79.3494C99.2337 79.3494 99.2337 79.3494 99.2337 79.3494C99.2337 79.3494 99.2337 79.3494 99.2337 79.3494C99.2337 79.3494 99.2337 79.3494 99.2337 79.3494C99.2337 79.3494 99.2337 79.3494 99.2337 79.3494C99.2337 79.3494 99.2337 79.3494 99.2337 79.3494C99.2337 79.3494 99.2337 79.3494 99.2337 79.3494C99.2337 79.3494 99.2337 79.3494 99.2337 79.3494C99.2337 79.3494 99.2337 79.3494 99.2337 79.3494C99.2337 79.3494 99.2337 79.3494 99.2337 79.3494C99.2337 79.3494 99.2337 79.3494 99.2337 79.3494C99.2337 79.3494 99.2337 79.3494 99.2337 79.3494C99.2337 79.3494 99.2337 79.3494 99.2337 79.3494C99.2337 79.3494 99.2337 79.3494 99.2337 79.3494C99.2337 79.3494 99.2337 79.3494 99.2337 79.3494C99.2337 79.3494 99.2337 79.3494 99.2337 79.3494C99.2337 79.3494 99.2337 79.3494 99.2337 79.3494C99.2337 79.3494 99.2337 79.3494 99.2337 79.3494C99.2338 79.3494 99.2338 79.3494 99.2338 79.3494C99.2338 79.3494 99.2338 79.3494 99.2338 79.3494C99.2338 79.3494 99.2338 79.3494 99.2338 79.3494C99.2338 79.3494 99.2338 79.3494 99.2338 79.3494C99.2338 79.3494 99.2338 79.3494 99.2338 79.3494C99.2338 79.3494 99.2338 79.3494 99.2338 79.3494C99.2338 79.3494 99.2338 79.3494 99.2338 79.3494C99.2338 79.3494 99.2338 79.3494 99.2338 79.3494C99.2338 79.3494 99.2338 79.3494 99.2338 79.3494C99.2338 79.3494 99.2338 79.3494 99.2338 79.3494C99.2338 79.3494 99.2338 79.3494 99.2338 79.3494C99.2338 79.3494 99.2338 79.3494 99.2338 79.3494C99.2338 79.3494 99.2338 79.3494 99.2338 79.3494C99.2338 79.3494 99.2338 79.3494 99.2338 79.3494C99.2338 79.3494 99.2338 79.3494 99.2338 79.3494C99.2338 79.3494 99.2338 79.3494 99.2338 79.3494C99.2338 79.3494 99.2338 79.3494 99.2338 79.3494C99.2338 79.3494 99.2338 79.3494 99.2338 79.3494C99.2338 79.3494 99.2338 79.3494 99.2338 79.3494C99.2338 79.3494 99.2338 79.3494 99.2338 79.3494C99.2338 79.3494 99.2338 79.3494 99.2338 79.3494C99.2338 79.3494 99.2338 79.3494 99.2338 79.3494C99.2338 79.3494 99.2338 79.3494 99.2338 79.3494C99.2338 79.3494 99.2338 79.3494 99.2338 79.3494C99.2338 79.3494 99.2338 79.3494 99.2338 79.3494C99.2338 79.3494 99.2338 79.3494 99.2338 79.3494C99.2338 79.3494 99.2338 79.3494 99.2338 79.3494C99.2338 79.3494 99.2338 79.3494 99.2338 79.3494C99.2338 79.3494 99.2338 79.3494 99.2338 79.3494C99.2338 79.3494 99.2338 79.3494 99.2338 79.3494C99.2338 79.3494 99.2338 79.3494 99.2338 79.3494C99.2338 79.3494 99.2338 79.3494 99.2338 79.3494C99.2338 79.3494 99.2338 79.3494 99.2338 79.3494C99.2338 79.3494 99.2338 79.3494 99.2338 79.3494C99.2338 79.3494 99.2338 79.3494 99.2338 79.3494C99.2338 79.3494 99.2338 79.3494 99.2338 79.3494C99.2338 79.3494 99.2338 79.3494 99.2338 79.3494C99.2338 79.3494 99.2338 79.3494 99.2338 79.3494C99.2338 79.3494 99.2338 79.3494 99.2338 79.3494C99.2338 79.3494 99.2338 79.3494 99.2339 79.3494C99.2339 79.3494 99.2339 79.3494 99.2339 79.3494C99.2339 79.3494 99.2339 79.3494 99.2339 79.3494C99.2339 79.3494 99.2339 79.3494 99.2339 79.3494C99.2339 79.3494 99.2339 79.3494 99.2339 79.3494C99.2339 79.3494 99.2339 79.3494 99.2339 79.3494C99.2339 79.3494 99.2339 79.3494 99.2339 79.3494C99.2339 79.3494 99.2339 79.3494 99.2339 79.3494C99.2339 79.3494 99.2339 79.3494 99.2339 79.3494C99.2339 79.3494 99.2339 79.3494 99.2339 79.3494C99.2339 79.3494 99.2339 79.3494 99.2339 79.3494C99.2339 79.3494 99.2339 79.3494 99.2339 79.3494C99.2339 79.3494 99.2339 79.3494 99.2339 79.3494C99.2339 79.3494 99.2339 79.3494 99.2339 79.3494C99.2339 79.3494 99.2339 79.3494 99.2339 79.3494C99.2339 79.3494 99.2339 79.3494 99.2339 79.3494C99.2339 79.3494 99.2339 79.3494 99.2339 79.3494C99.2339 79.3494 99.2339 79.3494 99.2339 79.3494C99.2339 79.3494 99.2339 79.3494 99.2339 79.3494C99.2339 79.3494 99.2339 79.3494 99.2339 79.3494C99.2339 79.3494 99.2339 79.3494 99.2339 79.3494C99.2339 79.3494 99.2339 79.3494 99.2339 79.3494C99.2339 79.3494 99.2339 79.3494 99.2339 79.3494C99.2339 79.3494 99.2339 79.3494 99.2339 79.3494C99.2339 79.3494 99.2339 79.3494 99.2339 79.3494C99.2339 79.3494 99.2339 79.3494 99.2339 79.3494C99.2339 79.3494 99.2339 79.3494 99.2339 79.3494C99.2339 79.3494 99.2339 79.3494 99.2339 79.3494C99.2339 79.3494 99.2339 79.3494 99.2339 79.3494C99.2339 79.3494 99.2339 79.3494 99.2339 79.3494C99.2339 79.3494 99.2339 79.3494 99.2339 79.3494C99.2339 79.3494 99.2339 79.3494 99.2339 79.3494C99.2339 79.3494 99.2339 79.3494 99.2339 79.3494C99.2339 79.3494 99.2339 79.3494 99.2339 79.3494C99.2339 79.3494 99.2339 79.3494 99.2339 79.3494C99.2339 79.3494 99.2339 79.3494 99.2339 79.3494C99.2339 79.3494 99.2339 79.3494 99.2339 79.3494C99.2339 79.3494 99.2339 79.3494 99.2339 79.3494C99.2339 79.3494 99.2339 79.3494 99.2339 79.3494C99.2339 79.3494 99.2339 79.3494 99.2339 79.3494C99.234 79.3494 99.234 79.3494 99.234 79.3494C99.234 79.3494 99.234 79.3494 99.234 79.3494C99.234 79.3494 99.234 79.3494 99.234 79.3494C99.234 79.3494 99.234 79.3494 99.234 79.3494C99.234 79.3494 99.234 79.3494 99.234 79.3494C99.234 79.3494 99.234 79.3494 99.234 79.3494C99.234 79.3494 99.234 79.3494 99.234 79.3494C99.234 79.3494 99.234 79.3494 99.234 79.3494C99.234 79.3494 99.234 79.3494 99.234 79.3494C99.234 79.3494 99.234 79.3494 99.234 79.3494C99.234 79.3494 99.234 79.3494 99.234 79.3494C99.234 79.3494 99.234 79.3494 99.234 79.3494C99.234 79.3494 99.234 79.3494 99.234 79.3494C99.234 79.3494 99.234 79.3494 99.234 79.3494C99.234 79.3494 99.234 79.3494 99.234 79.3494C99.234 79.3494 99.234 79.3494 99.234 79.3494C99.234 79.3494 99.234 79.3494 99.234 79.3494C99.234 79.3494 99.234 79.3494 99.234 79.3494C99.234 79.3494 99.234 79.3494 99.234 79.3494C99.234 79.3494 99.234 79.3494 99.234 79.3494C99.234 79.3494 99.234 79.3494 99.234 79.3494C99.234 79.3494 99.234 79.3494 99.234 79.3494C99.234 79.3494 99.234 79.3494 99.234 79.3494C99.234 79.3494 99.234 79.3494 99.234 79.3494C99.234 79.3494 99.234 79.3494 99.234 79.3494C99.234 79.3494 99.234 79.3494 99.234 79.3494C99.234 79.3494 99.234 79.3494 99.234 79.3494C99.234 79.3494 99.234 79.3494 99.234 79.3494C99.234 79.3494 99.234 79.3494 99.234 79.3494C99.234 79.3494 99.234 79.3494 99.234 79.3494C99.234 79.3494 99.234 79.3494 99.234 79.3494C99.234 79.3494 99.234 79.3494 99.234 79.3494C99.234 79.3494 99.234 79.3494 99.234 79.3494C99.234 79.3494 99.234 79.3494 99.234 79.3494C99.234 79.3494 99.234 79.3494 99.234 79.3494C99.234 79.3494 99.234 79.3494 99.234 79.3494C99.234 79.3494 99.234 79.3494 99.234 79.3494C99.234 79.3494 99.234 79.3494 99.234 79.3494C99.234 79.3494 99.234 79.3494 99.234 79.3494C99.234 79.3494 99.2341 79.3494 99.2341 79.3494C99.2341 79.3494 99.2341 79.3494 99.2341 79.3494C99.2341 79.3494 99.2341 79.3494 99.2341 79.3494C99.2341 79.3494 99.2341 79.3494 99.2341 79.3494C99.2341 79.3494 99.2341 79.3494 99.2341 79.3494C99.2341 79.3494 99.2341 79.3494 99.2341 79.3494C99.2341 79.3494 99.2341 79.3494 99.2341 79.3494C99.2341 79.3494 99.2341 79.3494 99.2341 79.3494C99.2341 79.3494 99.2341 79.3494 99.2341 79.3494C99.2341 79.3494 99.2341 79.3494 99.2341 79.3494C99.2341 79.3494 99.2341 79.3494 99.2341 79.3494C99.2341 79.3494 99.2341 79.3494 99.2341 79.3494C99.2341 79.3494 99.2341 79.3494 99.2341 79.3494C99.2341 79.3494 99.2341 79.3494 99.2341 79.3494C99.2341 79.3494 99.2341 79.3494 99.2341 79.3494C99.2341 79.3494 99.2341 79.3494 99.2341 79.3494C99.2341 79.3494 99.2341 79.3494 99.2341 79.3494C99.2341 79.3494 99.2341 79.3494 99.2341 79.3494C99.2341 79.3494 99.2341 79.3494 99.2341 79.3494C99.2341 79.3494 99.2341 79.3494 99.2341 79.3494C99.2341 79.3494 99.2341 79.3494 99.2341 79.3494C99.2341 79.3494 99.2341 79.3494 99.2341 79.3494C99.2341 79.3494 99.2341 79.3494 99.2341 79.3494C99.2341 79.3494 99.2341 79.3494 99.2341 79.3494C99.2341 79.3494 99.2341 79.3494 99.2341 79.3494C99.2341 79.3494 99.2341 79.3494 99.2341 79.3494C99.2341 79.3494 99.2341 79.3494 99.2341 79.3494C99.2341 79.3494 99.2341 79.3494 99.2341 79.3494C99.2341 79.3494 99.2341 79.3494 99.2341 79.3494C99.2341 79.3494 99.2341 79.3494 99.2341 79.3494C99.2341 79.3494 99.2341 79.3494 99.2341 79.3494C99.2341 79.3494 99.2341 79.3494 99.2341 79.3494C99.2341 79.3494 99.2341 79.3494 99.2341 79.3494C99.2341 79.3494 99.2341 79.3494 99.2341 79.3494C99.2341 79.3494 99.2341 79.3494 99.2341 79.3494C99.2341 79.3494 99.2341 79.3494 99.2341 79.3494C99.2341 79.3494 99.2341 79.3494 99.2341 79.3494C99.2341 79.3494 99.2341 79.3494 99.2341 79.3494C99.2341 79.3494 99.2341 79.3494 99.2341 79.3494C99.2341 79.3494 99.2341 79.3494 99.2342 79.3494C99.2342 79.3494 99.2342 79.3494 99.2342 79.3494C99.2342 79.3494 99.2342 79.3494 99.2342 79.3494C99.2342 79.3494 99.2342 79.3494 99.2342 79.3494C99.2342 79.3494 99.2342 79.3494 99.2342 79.3494C99.2342 79.3494 99.2342 79.3494 99.2342 79.3494C99.2342 79.3494 99.2342 79.3494 99.2342 79.3494C99.2342 79.3494 99.2342 79.3494 99.2342 79.3494C99.2342 79.3494 99.2342 79.3494 99.2342 79.3494C99.2342 79.3494 99.2342 79.3494 99.2342 79.3494C99.2342 79.3494 99.2342 79.3494 99.2342 79.3494C99.2342 79.3494 99.2342 79.3494 99.2342 79.3494C99.2342 79.3494 99.2342 79.3494 99.2342 79.3494C99.2342 79.3494 99.2342 79.3494 99.2342 79.3494C99.2342 79.3494 99.2342 79.3494 99.2342 79.3494C99.2342 79.3494 99.2342 79.3494 99.2342 79.3494C99.2342 79.3494 99.2342 79.3494 99.2342 79.3494C99.2342 79.3494 99.2342 79.3494 99.2342 79.3494V80.7051C99.2342 80.7051 99.2342 80.7051 99.2342 80.7051C99.2342 80.7051 99.2342 80.7051 99.2342 80.7051C99.2342 80.7051 99.2342 80.7051 99.2342 80.7051C99.2342 80.7051 99.2342 80.7051 99.2342 80.7051C99.2342 80.7051 99.2342 80.7051 99.2342 80.7051C99.2342 80.7051 99.2342 80.7051 99.2342 80.7051C99.2342 80.7051 99.2342 80.7051 99.2342 80.7051C99.2342 80.7051 99.2342 80.7051 99.2342 80.7051C99.2342 80.7051 99.2342 80.7051 99.2342 80.7051C99.2342 80.7051 99.2342 80.7051 99.2342 80.7051C99.2342 80.7051 99.2342 80.7051 99.2342 80.7051C99.2342 80.7051 99.2342 80.7051 99.2342 80.7051C99.2342 80.7051 99.2342 80.7051 99.2342 80.7051C99.2342 80.7051 99.2342 80.7051 99.2342 80.7051C99.2342 80.7051 99.2342 80.7051 99.2342 80.7051C99.2342 80.7051 99.2342 80.7051 99.2342 80.7051C99.2342 80.7051 99.2342 80.7051 99.2342 80.7051C99.2341 80.7051 99.2341 80.7051 99.2341 80.7051C99.2341 80.7051 99.2341 80.7051 99.2341 80.7051C99.2341 80.7051 99.2341 80.7051 99.2341 80.7051C99.2341 80.7051 99.2341 80.7051 99.2341 80.7051C99.2341 80.7051 99.2341 80.7051 99.2341 80.7051C99.2341 80.7051 99.2341 80.7051 99.2341 80.7051C99.2341 80.7051 99.2341 80.7051 99.2341 80.7051C99.2341 80.7051 99.2341 80.7051 99.2341 80.7051C99.2341 80.7051 99.2341 80.7051 99.2341 80.7051C99.2341 80.7051 99.2341 80.7051 99.2341 80.7051C99.2341 80.7051 99.2341 80.7051 99.2341 80.7051C99.2341 80.7051 99.2341 80.7051 99.2341 80.7051C99.2341 80.7051 99.2341 80.7051 99.2341 80.7051C99.2341 80.7051 99.2341 80.7051 99.2341 80.7051C99.2341 80.7051 99.2341 80.7051 99.2341 80.7051C99.2341 80.7051 99.2341 80.7051 99.2341 80.7051C99.2341 80.7051 99.2341 80.7051 99.2341 80.7051C99.2341 80.7051 99.2341 80.7051 99.2341 80.7051C99.2341 80.7051 99.2341 80.7051 99.2341 80.7051C99.2341 80.7051 99.2341 80.7051 99.2341 80.7051C99.2341 80.7051 99.2341 80.7051 99.2341 80.7051C99.2341 80.7051 99.2341 80.7051 99.2341 80.7051C99.2341 80.7051 99.2341 80.7051 99.2341 80.7051C99.2341 80.7051 99.2341 80.7051 99.2341 80.7051C99.2341 80.7051 99.2341 80.7051 99.2341 80.7051C99.2341 80.7051 99.2341 80.7051 99.2341 80.7051C99.2341 80.7051 99.2341 80.7051 99.2341 80.7051C99.2341 80.7051 99.2341 80.7051 99.2341 80.7051C99.2341 80.7051 99.2341 80.7051 99.2341 80.7051C99.2341 80.7051 99.2341 80.7051 99.2341 80.7051C99.2341 80.7051 99.2341 80.7051 99.2341 80.7051C99.2341 80.7051 99.2341 80.7051 99.2341 80.7051C99.2341 80.7051 99.2341 80.7051 99.2341 80.7051C99.2341 80.7051 99.2341 80.7051 99.2341 80.7051C99.2341 80.7051 99.2341 80.7051 99.2341 80.7051C99.2341 80.7051 99.2341 80.7051 99.2341 80.7051C99.2341 80.7051 99.2341 80.7051 99.2341 80.7051C99.2341 80.7051 99.2341 80.7051 99.2341 80.7051C99.2341 80.7051 99.2341 80.7051 99.2341 80.7051C99.2341 80.7051 99.234 80.7051 99.234 80.7051C99.234 80.7051 99.234 80.7051 99.234 80.7051C99.234 80.7051 99.234 80.7051 99.234 80.7051C99.234 80.7051 99.234 80.7051 99.234 80.7051C99.234 80.7051 99.234 80.7051 99.234 80.7051C99.234 80.7051 99.234 80.7051 99.234 80.7051C99.234 80.7051 99.234 80.7051 99.234 80.7051C99.234 80.7051 99.234 80.7051 99.234 80.7051C99.234 80.7051 99.234 80.7051 99.234 80.7051C99.234 80.7051 99.234 80.7051 99.234 80.7051C99.234 80.7051 99.234 80.7051 99.234 80.7051C99.234 80.7051 99.234 80.7051 99.234 80.7051C99.234 80.7051 99.234 80.7051 99.234 80.7051C99.234 80.7051 99.234 80.7051 99.234 80.7051C99.234 80.7051 99.234 80.7051 99.234 80.7051C99.234 80.7051 99.234 80.7051 99.234 80.7051C99.234 80.7051 99.234 80.7051 99.234 80.7051C99.234 80.7051 99.234 80.7051 99.234 80.7051C99.234 80.7051 99.234 80.7051 99.234 80.7051C99.234 80.7051 99.234 80.7051 99.234 80.7051C99.234 80.7051 99.234 80.7051 99.234 80.7051C99.234 80.7051 99.234 80.7051 99.234 80.7051C99.234 80.7051 99.234 80.7051 99.234 80.7051C99.234 80.7051 99.234 80.7051 99.234 80.7051C99.234 80.7051 99.234 80.7051 99.234 80.7051C99.234 80.7051 99.234 80.7051 99.234 80.7051C99.234 80.7051 99.234 80.7051 99.234 80.7051C99.234 80.7051 99.234 80.7051 99.234 80.7051C99.234 80.7051 99.234 80.7051 99.234 80.7051C99.234 80.7051 99.234 80.7051 99.234 80.7051C99.234 80.7051 99.234 80.7051 99.234 80.7051C99.234 80.7051 99.234 80.7051 99.234 80.7051C99.234 80.7051 99.234 80.7051 99.234 80.7051C99.234 80.7051 99.234 80.7051 99.234 80.7051C99.234 80.7051 99.234 80.7051 99.234 80.7051C99.234 80.7051 99.234 80.7051 99.234 80.7051C99.234 80.7051 99.234 80.7051 99.234 80.7051C99.234 80.7051 99.234 80.7051 99.234 80.7051C99.234 80.7051 99.234 80.7051 99.234 80.7051C99.234 80.7051 99.234 80.7051 99.2339 80.7051C99.2339 80.7051 99.2339 80.7051 99.2339 80.7051C99.2339 80.7051 99.2339 80.7051 99.2339 80.7051C99.2339 80.7051 99.2339 80.7051 99.2339 80.7051C99.2339 80.7051 99.2339 80.7051 99.2339 80.7051C99.2339 80.7051 99.2339 80.7051 99.2339 80.7051C99.2339 80.7051 99.2339 80.7051 99.2339 80.7051C99.2339 80.7051 99.2339 80.7051 99.2339 80.7051C99.2339 80.7051 99.2339 80.7051 99.2339 80.7051C99.2339 80.7051 99.2339 80.7051 99.2339 80.7051C99.2339 80.7051 99.2339 80.7051 99.2339 80.7051C99.2339 80.7051 99.2339 80.7051 99.2339 80.7051C99.2339 80.7051 99.2339 80.7051 99.2339 80.7051C99.2339 80.7051 99.2339 80.7051 99.2339 80.7051C99.2339 80.7051 99.2339 80.7051 99.2339 80.7051C99.2339 80.7051 99.2339 80.7051 99.2339 80.7051C99.2339 80.7051 99.2339 80.7051 99.2339 80.7051C99.2339 80.7051 99.2339 80.7051 99.2339 80.7051C99.2339 80.7051 99.2339 80.7051 99.2339 80.7051C99.2339 80.7051 99.2339 80.7051 99.2339 80.7051C99.2339 80.7051 99.2339 80.7051 99.2339 80.7051C99.2339 80.7051 99.2339 80.7051 99.2339 80.7051C99.2339 80.7051 99.2339 80.7051 99.2339 80.7051C99.2339 80.7051 99.2339 80.7051 99.2339 80.7051C99.2339 80.7051 99.2339 80.7051 99.2339 80.7051C99.2339 80.7051 99.2339 80.7051 99.2339 80.7051C99.2339 80.7051 99.2339 80.7051 99.2339 80.7051C99.2339 80.7051 99.2339 80.7051 99.2339 80.7051C99.2339 80.7051 99.2339 80.7051 99.2339 80.7051C99.2339 80.7051 99.2339 80.7051 99.2339 80.7051C99.2339 80.7051 99.2339 80.7051 99.2339 80.7051C99.2339 80.7051 99.2339 80.7051 99.2339 80.7051C99.2339 80.7051 99.2339 80.7051 99.2339 80.7051C99.2339 80.7051 99.2339 80.7051 99.2339 80.7051C99.2339 80.7051 99.2339 80.7051 99.2339 80.7051C99.2339 80.7051 99.2339 80.7051 99.2339 80.7051C99.2339 80.7051 99.2339 80.7051 99.2339 80.7051C99.2339 80.7051 99.2339 80.7051 99.2339 80.7051C99.2339 80.7051 99.2339 80.7051 99.2339 80.7051C99.2339 80.7051 99.2339 80.7051 99.2339 80.7051C99.2338 80.7051 99.2338 80.7051 99.2338 80.7051C99.2338 80.7051 99.2338 80.7051 99.2338 80.7051C99.2338 80.7051 99.2338 80.7051 99.2338 80.7051C99.2338 80.7051 99.2338 80.7051 99.2338 80.7051C99.2338 80.7051 99.2338 80.7051 99.2338 80.7051C99.2338 80.7051 99.2338 80.7051 99.2338 80.7051C99.2338 80.7051 99.2338 80.7051 99.2338 80.7051C99.2338 80.7051 99.2338 80.7051 99.2338 80.7051C99.2338 80.7051 99.2338 80.7051 99.2338 80.7051C99.2338 80.7051 99.2338 80.7051 99.2338 80.7051C99.2338 80.7051 99.2338 80.7051 99.2338 80.7051C99.2338 80.7051 99.2338 80.7051 99.2338 80.7051C99.2338 80.7051 99.2338 80.7051 99.2338 80.7051C99.2338 80.7051 99.2338 80.7051 99.2338 80.7051C99.2338 80.7051 99.2338 80.7051 99.2338 80.7051C99.2338 80.7051 99.2338 80.7051 99.2338 80.7051C99.2338 80.7051 99.2338 80.7051 99.2338 80.7051C99.2338 80.7051 99.2338 80.7051 99.2338 80.7051C99.2338 80.7051 99.2338 80.7051 99.2338 80.7051C99.2338 80.7051 99.2338 80.7051 99.2338 80.7051C99.2338 80.7051 99.2338 80.7051 99.2338 80.7051C99.2338 80.7051 99.2338 80.7051 99.2338 80.7051C99.2338 80.7051 99.2338 80.7051 99.2338 80.7051C99.2338 80.7051 99.2338 80.7051 99.2338 80.7051C99.2338 80.7051 99.2338 80.7051 99.2338 80.7051C99.2338 80.7051 99.2338 80.7051 99.2338 80.7051C99.2338 80.7051 99.2338 80.7051 99.2338 80.7051C99.2338 80.7051 99.2338 80.7051 99.2338 80.7051C99.2338 80.7051 99.2338 80.7051 99.2338 80.7051C99.2338 80.7051 99.2338 80.7051 99.2338 80.7051C99.2338 80.7051 99.2338 80.7051 99.2338 80.7051C99.2338 80.7051 99.2338 80.7051 99.2338 80.7051C99.2338 80.7051 99.2338 80.7051 99.2338 80.7051C99.2338 80.7051 99.2338 80.7051 99.2338 80.7051C99.2338 80.7051 99.2338 80.7051 99.2338 80.7051C99.2338 80.7051 99.2338 80.7051 99.2338 80.7051C99.2338 80.7051 99.2338 80.7051 99.2338 80.7051C99.2338 80.7051 99.2338 80.7051 99.2338 80.7051C99.2338 80.7051 99.2338 80.7051 99.2338 80.7051C99.2338 80.7051 99.2338 80.7051 99.2337 80.7051C99.2337 80.7051 99.2337 80.7051 99.2337 80.7051C99.2337 80.7051 99.2337 80.7051 99.2337 80.7051C99.2337 80.7051 99.2337 80.7051 99.2337 80.7051C99.2337 80.7051 99.2337 80.7051 99.2337 80.7051C99.2337 80.7051 99.2337 80.7051 99.2337 80.7051C99.2337 80.7051 99.2337 80.7051 99.2337 80.7051C99.2337 80.7051 99.2337 80.7051 99.2337 80.7051C99.2337 80.7051 99.2337 80.7051 99.2337 80.7051C99.2337 80.7051 99.2337 80.7051 99.2337 80.7051C99.2337 80.7051 99.2337 80.7051 99.2337 80.7051C99.2337 80.7051 99.2337 80.7051 99.2337 80.7051C99.2337 80.7051 99.2337 80.7051 99.2337 80.7051C99.2337 80.7051 99.2337 80.7051 99.2337 80.7051C99.2337 80.7051 99.2337 80.7051 99.2337 80.7051C99.2337 80.7051 99.2337 80.7051 99.2337 80.7051C99.2337 80.7051 99.2337 80.7051 99.2337 80.7051C99.2337 80.7051 99.2337 80.7051 99.2337 80.7051C99.2337 80.7051 99.2337 80.7051 99.2337 80.7051C99.2337 80.7051 99.2337 80.7051 99.2337 80.7051C99.2337 80.7051 99.2337 80.7051 99.2337 80.7051C99.2337 80.7051 99.2337 80.7051 99.2337 80.7051C99.2337 80.7051 99.2337 80.7051 99.2337 80.7051C99.2337 80.7051 99.2337 80.7051 99.2337 80.7051C99.2337 80.7051 99.2337 80.7051 99.2337 80.7051C99.2337 80.7051 99.2337 80.7051 99.2337 80.7051C99.2337 80.7051 99.2337 80.7051 99.2337 80.7051C99.2337 80.7051 99.2337 80.7051 99.2337 80.7051C99.2337 80.7051 99.2337 80.7051 99.2337 80.7051C99.2337 80.7051 99.2337 80.7051 99.2337 80.7051C99.2337 80.7051 99.2337 80.7051 99.2337 80.7051C99.2337 80.7051 99.2337 80.7051 99.2337 80.7051C99.2337 80.7051 99.2337 80.7051 99.2337 80.7051C99.2337 80.7051 99.2337 80.7051 99.2337 80.7051C99.2337 80.7051 99.2337 80.7051 99.2337 80.7051C99.2337 80.7051 99.2337 80.7051 99.2337 80.7051C99.2337 80.7051 99.2337 80.7051 99.2337 80.7051C99.2337 80.7051 99.2337 80.7051 99.2337 80.7051C99.2337 80.7051 99.2337 80.7051 99.2337 80.7051C99.2337 80.7051 99.2337 80.7051 99.2337 80.7051C99.2336 80.7051 99.2336 80.7051 99.2336 80.7051C99.2336 80.7051 99.2336 80.7051 99.2336 80.7051C99.2336 80.7051 99.2336 80.7051 99.2336 80.7051C99.2336 80.7051 99.2336 80.7051 99.2336 80.7051C99.2336 80.7051 99.2336 80.7051 99.2336 80.7051C99.2336 80.7051 99.2336 80.7051 99.2336 80.7051C99.2336 80.7051 99.2336 80.7051 99.2336 80.7051C99.2336 80.7051 99.2336 80.7051 99.2336 80.7051C99.2336 80.7051 99.2336 80.7051 99.2336 80.7051C99.2336 80.7051 99.2336 80.7051 99.2336 80.7051C99.2336 80.7051 99.2336 80.7051 99.2336 80.7051C99.2336 80.7051 99.2336 80.7051 99.2336 80.7051C99.2336 80.7051 99.2336 80.7051 99.2336 80.7051C99.2336 80.7051 99.2336 80.7051 99.2336 80.7051C99.2336 80.7051 99.2336 80.7051 99.2336 80.7051C99.2336 80.7051 99.2336 80.7051 99.2336 80.7051C99.2336 80.7051 99.2336 80.7051 99.2336 80.7051C99.2336 80.7051 99.2336 80.7051 99.2336 80.7051C99.2336 80.7051 99.2336 80.7051 99.2336 80.7051C99.2336 80.7051 99.2336 80.7051 99.2336 80.7051C99.2336 80.7051 99.2336 80.7051 99.2336 80.7051C99.2336 80.7051 99.2336 80.7051 99.2336 80.7051C99.2336 80.7051 99.2336 80.7051 99.2336 80.7051C99.2336 80.7051 99.2336 80.7051 99.2336 80.7051C99.2336 80.7051 99.2336 80.7051 99.2336 80.7051C99.2336 80.7051 99.2336 80.7051 99.2336 80.7051C99.2336 80.7051 99.2336 80.7051 99.2336 80.7051C99.2336 80.7051 99.2336 80.7051 99.2336 80.7051C99.2336 80.7051 99.2336 80.7051 99.2336 80.7051C99.2336 80.7051 99.2336 80.7051 99.2336 80.7051C99.2336 80.7051 99.2336 80.7051 99.2336 80.7051C99.2336 80.7051 99.2336 80.7051 99.2336 80.7051C99.2336 80.7051 99.2336 80.7051 99.2336 80.7051C99.2336 80.7051 99.2336 80.7051 99.2336 80.7051C99.2336 80.7051 99.2336 80.7051 99.2336 80.7051C99.2336 80.7051 99.2336 80.7051 99.2336 80.7051C99.2336 80.7051 99.2336 80.7051 99.2336 80.7051C99.2336 80.7051 99.2336 80.7051 99.2336 80.7051C99.2336 80.7051 99.2336 80.7051 99.2336 80.7051C99.2336 80.7051 99.2335 80.7051 99.2335 80.7051C99.2335 80.7051 99.2335 80.7051 99.2335 80.7051C99.2335 80.7051 99.2335 80.7051 99.2335 80.7051C99.2335 80.7051 99.2335 80.7051 99.2335 80.7051C99.2335 80.7051 99.2335 80.7051 99.2335 80.7051C99.2335 80.7051 99.2335 80.7051 99.2335 80.7051C99.2335 80.7051 99.2335 80.7051 99.2335 80.7051C99.2335 80.7051 99.2335 80.7051 99.2335 80.7051C99.2335 80.7051 99.2335 80.7051 99.2335 80.7051C99.2335 80.7051 99.2335 80.7051 99.2335 80.7051C99.2335 80.7051 99.2335 80.7051 99.2335 80.7051C99.2335 80.7051 99.2335 80.7051 99.2335 80.7051C99.2335 80.7051 99.2335 80.7051 99.2335 80.7051C99.2335 80.7051 99.2335 80.7051 99.2335 80.7051C99.2335 80.7051 99.2335 80.7051 99.2335 80.7051C99.2335 80.7051 99.2335 80.7051 99.2335 80.7051C99.2335 80.7051 99.2335 80.7051 99.2335 80.7051C99.2335 80.7051 99.2335 80.7051 99.2335 80.7051C99.2335 80.7051 99.2335 80.7051 99.2335 80.7051C99.2335 80.7051 99.2335 80.7051 99.2335 80.7051C99.2335 80.7051 99.2335 80.7051 99.2335 80.7051C99.2335 80.7051 99.2335 80.7051 99.2335 80.7051C99.2335 80.7051 99.2335 80.7051 99.2335 80.7051C99.2335 80.7051 99.2335 80.7051 99.2335 80.7051C99.2335 80.7051 99.2335 80.7051 99.2335 80.7051C99.2335 80.7051 99.2335 80.7051 99.2335 80.7051C99.2335 80.7051 99.2335 80.7051 99.2335 80.7051C99.2335 80.7051 99.2335 80.7051 99.2335 80.7051C99.2335 80.7051 99.2335 80.7051 99.2335 80.7051C99.2335 80.7051 99.2335 80.7051 99.2335 80.7051C99.2335 80.7051 99.2335 80.7051 99.2335 80.7051C99.2335 80.7051 99.2335 80.7051 99.2335 80.7051C99.2335 80.7051 99.2335 80.7051 99.2335 80.7051C99.2335 80.7051 99.2335 80.7051 99.2335 80.7051C99.2335 80.7051 99.2335 80.7051 99.2335 80.7051C99.2335 80.7051 99.2335 80.7051 99.2335 80.7051C99.2335 80.7051 99.2335 80.7051 99.2335 80.7051C99.2335 80.7051 99.2335 80.7051 99.2335 80.7051C99.2335 80.7051 99.2335 80.7051 99.2335 80.7051C99.2335 80.7051 99.2334 80.7051 99.2334 80.7051C99.2334 80.7051 99.2334 80.7051 99.2334 80.7051C99.2334 80.7051 99.2334 80.7051 99.2334 80.7051C99.2334 80.7051 99.2334 80.7051 99.2334 80.7051C99.2334 80.7051 99.2334 80.7051 99.2334 80.7051C99.2334 80.7051 99.2334 80.7051 99.2334 80.7051C99.2334 80.7051 99.2334 80.7051 99.2334 80.7051C99.2334 80.7051 99.2334 80.7051 99.2334 80.7051C99.2334 80.7051 99.2334 80.7051 99.2334 80.7051C99.2334 80.7051 99.2334 80.7051 99.2334 80.7051C99.2334 80.7051 99.2334 80.7051 99.2334 80.7051C99.2334 80.7051 99.2334 80.7051 99.2334 80.7051C99.2334 80.7051 99.2334 80.7051 99.2334 80.7051C99.2334 80.7051 99.2334 80.7051 99.2334 80.7051C99.2334 80.7051 99.2334 80.7051 99.2334 80.7051C99.2334 80.7051 99.2334 80.7051 99.2334 80.7051C99.2334 80.7051 99.2334 80.7051 99.2334 80.7051C99.2334 80.7051 99.2334 80.7051 99.2334 80.7051C99.2334 80.7051 99.2334 80.7051 99.2334 80.7051C99.2334 80.7051 99.2334 80.7051 99.2334 80.7051C99.2334 80.7051 99.2334 80.7051 99.2334 80.7051C99.2334 80.7051 99.2334 80.7051 99.2334 80.7051C99.2334 80.7051 99.2334 80.7051 99.2334 80.7051C99.2334 80.7051 99.2334 80.7051 99.2334 80.7051C99.2334 80.7051 99.2334 80.7051 99.2334 80.7051C99.2334 80.7051 99.2334 80.7051 99.2334 80.7051C99.2334 80.7051 99.2334 80.7051 99.2334 80.7051C99.2334 80.7051 99.2334 80.7051 99.2334 80.7051C99.2334 80.7051 99.2334 80.7051 99.2334 80.7051C99.2334 80.7051 99.2334 80.7051 99.2334 80.7051C99.2334 80.7051 99.2334 80.7051 99.2334 80.7051C99.2334 80.7051 99.2334 80.7051 99.2334 80.7051C99.2334 80.7051 99.2334 80.7051 99.2334 80.7051C99.2334 80.7051 99.2334 80.7051 99.2334 80.7051C99.2334 80.7051 99.2334 80.7051 99.2334 80.7051C99.2334 80.7051 99.2334 80.7051 99.2334 80.7051C99.2334 80.7051 99.2334 80.7051 99.2334 80.7051C99.2334 80.7051 99.2334 80.7051 99.2334 80.7051C99.2334 80.7051 99.2334 80.7051 99.2334 80.7051C99.2334 80.7051 99.2334 80.7051 99.2334 80.7051C99.2333 80.7051 99.2333 80.7051 99.2333 80.7051C99.2333 80.7051 99.2333 80.7051 99.2333 80.7051C99.2333 80.7051 99.2333 80.7051 99.2333 80.7051C99.2333 80.7051 99.2333 80.7051 99.2333 80.7051C99.2333 80.7051 99.2333 80.7051 99.2333 80.7051C99.2333 80.7051 99.2333 80.7051 99.2333 80.7051C99.2333 80.7051 99.2333 80.7051 99.2333 80.7051C99.2333 80.7051 99.2333 80.7051 99.2333 80.7051C99.2333 80.7051 99.2333 80.7051 99.2333 80.7051C99.2333 80.7051 99.2333 80.7051 99.2333 80.7051C99.2333 80.7051 99.2333 80.7051 99.2333 80.7051C99.2333 80.7051 99.2333 80.7051 99.2333 80.7051C99.2333 80.7051 99.2333 80.7051 99.2333 80.7051C99.2333 80.7051 99.2333 80.7051 99.2333 80.7051C99.2333 80.7051 99.2333 80.7051 99.2333 80.7051C99.2333 80.7051 99.2333 80.7051 99.2333 80.7051C99.2333 80.7051 99.2333 80.7051 99.2333 80.7051C99.2333 80.7051 99.2333 80.7051 99.2333 80.7051C99.2333 80.7051 99.2333 80.7051 99.2333 80.7051C99.2333 80.7051 99.2333 80.7051 99.2333 80.7051C99.2333 80.7051 99.2333 80.7051 99.2333 80.7051C99.2333 80.7051 99.2333 80.7051 99.2333 80.7051C99.2333 80.7051 99.2333 80.7051 99.2333 80.7051C99.2333 80.7051 99.2333 80.7051 99.2333 80.7051C99.2333 80.7051 99.2333 80.7051 99.2333 80.7051C99.2333 80.7051 99.2333 80.7051 99.2333 80.7051C99.2333 80.7051 99.2333 80.7051 99.2333 80.7051C99.2333 80.7051 99.2333 80.7051 99.2333 80.7051C99.2333 80.7051 99.2333 80.7051 99.2333 80.7051C99.2333 80.7051 99.2333 80.7051 99.2333 80.7051C99.2333 80.7051 99.2333 80.7051 99.2333 80.7051C99.2333 80.7051 99.2333 80.7051 99.2333 80.7051C99.2333 80.7051 99.2333 80.7051 99.2333 80.7051C99.2333 80.7051 99.2333 80.7051 99.2333 80.7051C99.2333 80.7051 99.2333 80.7051 99.2333 80.7051C99.2333 80.7051 99.2333 80.7051 99.2333 80.7051C99.2333 80.7051 99.2333 80.7051 99.2333 80.7051C99.2333 80.7051 99.2333 80.7051 99.2333 80.7051C99.2333 80.7051 99.2333 80.7051 99.2333 80.7051C99.2333 80.7051 99.2332 80.7051 99.2332 80.7051C99.2332 80.7051 99.2332 80.7051 99.2332 80.7051C99.2332 80.7051 99.2332 80.7051 99.2332 80.7051C99.2332 80.7051 99.2332 80.7051 99.2332 80.7051C99.2332 80.7051 99.2332 80.7051 99.2332 80.7051C99.2332 80.7051 99.2332 80.7051 99.2332 80.7051C99.2332 80.7051 99.2332 80.7051 99.2332 80.7051C99.2332 80.7051 99.2332 80.7051 99.2332 80.7051C99.2332 80.7051 99.2332 80.7051 99.2332 80.7051C99.2332 80.7051 99.2332 80.7051 99.2332 80.7051C99.2332 80.7051 99.2332 80.7051 99.2332 80.7051C99.2332 80.7051 99.2332 80.7051 99.2332 80.7051C99.2332 80.7051 99.2332 80.7051 99.2332 80.7051C99.2332 80.7051 99.2332 80.7051 99.2332 80.7051C99.2332 80.7051 99.2332 80.7051 99.2332 80.7051C99.2332 80.7051 99.2332 80.7051 99.2332 80.7051C99.2332 80.7051 99.2332 80.7051 99.2332 80.7051C99.2332 80.7051 99.2332 80.7051 99.2332 80.7051C99.2332 80.7051 99.2332 80.7051 99.2332 80.7051C99.2332 80.7051 99.2332 80.7051 99.2332 80.7051C99.2332 80.7051 99.2332 80.7051 99.2332 80.7051C99.2332 80.7051 99.2332 80.7051 99.2332 80.7051C99.2332 80.7051 99.2332 80.7051 99.2332 80.7051C99.2332 80.7051 99.2332 80.7051 99.2332 80.7051C99.2332 80.7051 99.2332 80.7051 99.2332 80.7051C99.2332 80.7051 99.2332 80.7051 99.2332 80.7051C99.2332 80.7051 99.2332 80.7051 99.2332 80.7051C99.2332 80.7051 99.2332 80.7051 99.2332 80.7051C99.2332 80.7051 99.2332 80.7051 99.2332 80.7051C99.2332 80.7051 99.2332 80.7051 99.2332 80.7051C99.2332 80.7051 99.2332 80.7051 99.2332 80.7051C99.2332 80.7051 99.2332 80.7051 99.2332 80.7051C99.2332 80.7051 99.2332 80.7051 99.2332 80.7051C99.2332 80.7051 99.2332 80.7051 99.2332 80.7051C99.2332 80.7051 99.2332 80.7051 99.2332 80.7051C99.2332 80.7051 99.2332 80.7051 99.2332 80.7051C99.2332 80.7051 99.2332 80.7051 99.2332 80.7051C99.2332 80.7051 99.2332 80.7051 99.2332 80.7051C99.2332 80.7051 99.2332 80.7051 99.2332 80.7051C99.2332 80.7051 99.2332 80.7051 99.2331 80.7051C99.2331 80.7051 99.2331 80.7051 99.2331 80.7051C99.2331 80.7051 99.2331 80.7051 99.2331 80.7051C99.2331 80.7051 99.2331 80.7051 99.2331 80.7051C99.2331 80.7051 99.2331 80.7051 99.2331 80.7051C99.2331 80.7051 99.2331 80.7051 99.2331 80.7051C99.2331 80.7051 99.2331 80.7051 99.2331 80.7051C99.2331 80.7051 99.2331 80.7051 99.2331 80.7051C99.2331 80.7051 99.2331 80.7051 99.2331 80.7051C99.2331 80.7051 99.2331 80.7051 99.2331 80.7051C99.2331 80.7051 99.2331 80.7051 99.2331 80.7051C99.2331 80.7051 99.2331 80.7051 99.2331 80.7051C99.2331 80.7051 99.2331 80.7051 99.2331 80.7051C99.2331 80.7051 99.2331 80.7051 99.2331 80.7051C99.2331 80.7051 99.2331 80.7051 99.2331 80.7051C99.2331 80.7051 99.2331 80.7051 99.2331 80.7051C99.2331 80.7051 99.2331 80.7051 99.2331 80.7051C99.2331 80.7051 99.2331 80.7051 99.2331 80.7051C99.2331 80.7051 99.2331 80.7051 99.2331 80.7051C99.2331 80.7051 99.2331 80.7051 99.2331 80.7051C99.2331 80.7051 99.2331 80.7051 99.2331 80.7051C99.2331 80.7051 99.2331 80.7051 99.2331 80.7051C99.2331 80.7051 99.2331 80.7051 99.2331 80.7051C99.2331 80.7051 99.2331 80.7051 99.2331 80.7051C99.2331 80.7051 99.2331 80.7051 99.2331 80.7051C99.2331 80.7051 99.2331 80.7051 99.2331 80.7051C99.2331 80.7051 99.2331 80.7051 99.2331 80.7051C99.2331 80.7051 99.2331 80.7051 99.2331 80.7051C99.2331 80.7051 99.2331 80.7051 99.2331 80.7051C99.2331 80.7051 99.2331 80.7051 99.2331 80.7051C99.2331 80.7051 99.2331 80.7051 99.2331 80.7051C99.2331 80.7051 99.2331 80.7051 99.2331 80.7051C99.2331 80.7051 99.2331 80.7051 99.2331 80.7051C99.2331 80.7051 99.2331 80.7051 99.2331 80.7051C99.2331 80.7051 99.2331 80.7051 99.2331 80.7051C99.2331 80.7051 99.2331 80.7051 99.2331 80.7051C99.2331 80.7051 99.2331 80.7051 99.2331 80.7051C99.2331 80.7051 99.2331 80.7051 99.2331 80.7051C99.2331 80.7051 99.2331 80.7051 99.2331 80.7051C99.2331 80.7051 99.2331 80.7051 99.2331 80.7051C99.233 80.7051 99.233 80.7051 99.233 80.7051C99.233 80.7051 99.233 80.7051 99.233 80.7051C99.233 80.7051 99.233 80.7051 99.233 80.7051C99.233 80.7051 99.233 80.7051 99.233 80.7051C99.233 80.7051 99.233 80.7051 99.233 80.7051C99.233 80.7051 99.233 80.7051 99.233 80.7051C99.233 80.7051 99.233 80.7051 99.233 80.7051C99.233 80.7051 99.233 80.7051 99.233 80.7051C99.233 80.7051 99.233 80.7051 99.233 80.7051C99.233 80.7051 99.233 80.7051 99.233 80.7051C99.233 80.7051 99.233 80.7051 99.233 80.7051C99.233 80.7051 99.233 80.7051 99.233 80.7051C99.233 80.7051 99.233 80.7051 99.233 80.7051C99.233 80.7051 99.233 80.7051 99.233 80.7051C99.233 80.7051 99.233 80.7051 99.233 80.7051C99.233 80.7051 99.233 80.7051 99.233 80.7051C99.233 80.7051 99.233 80.7051 99.233 80.7051C99.233 80.7051 99.233 80.7051 99.233 80.7051C99.233 80.7051 99.233 80.7051 99.233 80.7051C99.233 80.7051 99.233 80.7051 99.233 80.7051C99.233 80.7051 99.233 80.7051 99.233 80.7051C99.233 80.7051 99.233 80.7051 99.233 80.7051C99.233 80.7051 99.233 80.7051 99.233 80.7051C99.233 80.7051 99.233 80.7051 99.233 80.7051C99.233 80.7051 99.233 80.7051 99.233 80.7051C99.233 80.7051 99.233 80.7051 99.233 80.7051C99.233 80.7051 99.233 80.7051 99.233 80.7051C99.233 80.7051 99.233 80.7051 99.233 80.7051C99.233 80.7051 99.233 80.7051 99.233 80.7051C99.233 80.7051 99.233 80.7051 99.233 80.7051C99.233 80.7051 99.233 80.7051 99.233 80.7051C99.233 80.7051 99.233 80.7051 99.233 80.7051C99.233 80.7051 99.233 80.7051 99.233 80.7051C99.233 80.7051 99.233 80.7051 99.233 80.7051C99.233 80.7051 99.233 80.7051 99.233 80.7051C99.233 80.7051 99.233 80.7051 99.233 80.7051C99.233 80.7051 99.233 80.7051 99.233 80.7051C99.233 80.7051 99.233 80.7051 99.233 80.7051C99.233 80.7051 99.233 80.7051 99.233 80.7051C99.233 80.7051 99.233 80.7051 99.2329 80.7051C99.2329 80.7051 99.2329 80.7051 99.2329 80.7051C99.2329 80.7051 99.2329 80.7051 99.2329 80.7051C99.2329 80.7051 99.2329 80.7051 99.2329 80.7051C99.2329 80.7051 99.2329 80.7051 99.2329 80.7051C99.2329 80.7051 99.2329 80.7051 99.2329 80.7051C99.2329 80.7051 99.2329 80.7051 99.2329 80.7051C99.2329 80.7051 99.2329 80.7051 99.2329 80.7051C99.2329 80.7051 99.2329 80.7051 99.2329 80.7051C99.2329 80.7051 99.2329 80.7051 99.2329 80.7051C99.2329 80.7051 99.2329 80.7051 99.2329 80.7051C99.2329 80.7051 99.2329 80.7051 99.2329 80.7051C99.2329 80.7051 99.2329 80.7051 99.2329 80.7051C99.2329 80.7051 99.2329 80.7051 99.2329 80.7051C99.2329 80.7051 99.2329 80.7051 99.2329 80.7051C99.2329 80.7051 99.2329 80.7051 99.2329 80.7051C99.2329 80.7051 99.2329 80.7051 99.2329 80.7051C99.2329 80.7051 99.2329 80.7051 99.2329 80.7051C99.2329 80.7051 99.2329 80.7051 99.2329 80.7051C99.2329 80.7051 99.2329 80.7051 99.2329 80.7051C99.2329 80.7051 99.2329 80.7051 99.2329 80.7051C99.2329 80.7051 99.2329 80.7051 99.2329 80.7051C99.2329 80.7051 99.2329 80.7051 99.2329 80.7051V79.3494ZM74.8509 79.3494H99.2329V80.7051H74.8509V79.3494ZM66.073 77.9597C66.7202 78.6069 67.5895 78.9685 68.991 79.1569C70.412 79.348 72.2754 79.3494 74.8509 79.3494V80.7051C72.3138 80.7051 70.3427 80.7065 68.8104 80.5005C67.2585 80.2919 66.0555 79.8594 65.1144 78.9183L66.073 77.9597ZM64.6833 69.1818C64.6833 71.7572 64.6847 73.6206 64.8758 75.0417C65.0642 76.4432 65.4258 77.3125 66.073 77.9597L65.1144 78.9183C64.1733 77.9772 63.7408 76.7742 63.5322 75.2223C63.3261 73.69 63.3276 71.7189 63.3276 69.1818H64.6833ZM64.6833 58.8465V69.1818H63.3276V58.8465H64.6833ZM66.073 50.0686C65.4258 50.7158 65.0642 51.585 64.8758 52.9866C64.6847 54.4076 64.6833 56.271 64.6833 58.8465H63.3276C63.3276 56.3093 63.3261 54.3383 63.5322 52.8059C63.7408 51.2541 64.1733 50.051 65.1144 49.11L66.073 50.0686ZM74.8509 48.6788C72.2754 48.6788 70.412 48.6803 68.991 48.8713C67.5895 49.0597 66.7202 49.4214 66.073 50.0686L65.1144 49.11C66.0555 48.1689 67.2585 47.7364 68.8104 47.5277C70.3427 47.3217 72.3138 47.3231 74.8509 47.3231V48.6788ZM99.2329 48.6788H74.8509V47.3231H99.2329V48.6788ZM108.011 50.0686C107.364 49.4214 106.494 49.0597 105.093 48.8713C103.672 48.6803 101.808 48.6788 99.2329 48.6788V47.3231C101.77 47.3231 103.741 47.3217 105.273 47.5277C106.825 47.7364 108.028 48.1689 108.969 49.11L108.011 50.0686Z" fill="#3C5D87"/><path opacity="0.15" fill-rule="evenodd" clip-rule="evenodd" d="M61.8358 75.2827C61.8358 74.6523 61.8358 74.3371 61.9051 74.0785C62.0932 73.3767 62.6413 72.8286 63.343 72.6406C63.6016 72.5713 63.9168 72.5713 64.5472 72.5713V72.5713C65.1776 72.5713 65.4928 72.5713 65.7514 72.6406C66.4531 72.8286 67.0013 73.3767 67.1893 74.0785C67.2586 74.3371 67.2586 74.6523 67.2586 75.2827V75.2827C67.2586 75.913 67.2586 76.2282 67.3279 76.4868C67.5159 77.1886 68.064 77.7367 68.7658 77.9247C69.0244 77.994 69.3396 77.994 69.9699 77.994H93.0633C93.6937 77.994 94.0088 77.994 94.2674 78.0633C94.9692 78.2514 95.5173 78.7995 95.7054 79.5012C95.7747 79.7598 95.7747 80.075 95.7747 80.7054V80.7054C95.7747 81.3358 95.7747 81.651 95.7054 81.9096C95.5173 82.6113 94.9692 83.1595 94.2674 83.3475C94.0088 83.4168 93.6937 83.4168 93.0633 83.4168H69.7235C67.428 83.4168 66.2802 83.4168 65.3635 83.0749C63.8898 82.5252 62.7274 81.3628 62.1777 79.8891C61.8358 78.9724 61.8358 77.8247 61.8358 75.5292V75.2827Z" fill="#3C5D87"/><path d="M72.8489 56.8486H94.5399" stroke="#FFD9AB" stroke-width="1.69461" stroke-linecap="round"/><path d="M72.8491 61.6221H100.641" stroke="#FFD9AB" stroke-width="1.69461" stroke-linecap="round"/><path d="M72.8491 66.4033H98.0503" stroke="#FFD9AB" stroke-width="1.69461" stroke-linecap="round"/><path d="M72.8491 71.1846H89.7952" stroke="#FFD9AB" stroke-width="1.69461" stroke-linecap="round"/></svg>